<?xml version="1.0" standalone="no"?>
<!DOCTYPE svg PUBLIC "-//W3C//DTD SVG 1.1//EN" "http://www.w3.org/Graphics/SVG/1.1/DTD/svg11.dtd" >
<svg xmlns="http://www.w3.org/2000/svg">
<metadata></metadata>
<defs>
<font id="inderregular" horiz-adv-x="1195" >
<font-face units-per-em="2048" ascent="1638" descent="-410" />
<missing-glyph horiz-adv-x="682" />
<glyph horiz-adv-x="0" />
<glyph unicode="&#xd;" horiz-adv-x="682" />
<glyph horiz-adv-x="0" />
<glyph horiz-adv-x="0" />
<glyph horiz-adv-x="0" />
<glyph horiz-adv-x="0" />
<glyph horiz-adv-x="0" />
<glyph horiz-adv-x="0" />
<glyph horiz-adv-x="0" />
<glyph horiz-adv-x="0" />
<glyph unicode="&#x9;" horiz-adv-x="0" />
<glyph horiz-adv-x="0" />
<glyph horiz-adv-x="0" />
<glyph horiz-adv-x="0" />
<glyph horiz-adv-x="0" />
<glyph horiz-adv-x="0" />
<glyph horiz-adv-x="0" />
<glyph horiz-adv-x="0" />
<glyph horiz-adv-x="0" />
<glyph horiz-adv-x="0" />
<glyph horiz-adv-x="0" />
<glyph unicode=" "  horiz-adv-x="682" />
<glyph unicode="&#x09;" horiz-adv-x="682" />
<glyph unicode="&#xa0;" horiz-adv-x="682" />
<glyph unicode="!" horiz-adv-x="512" d="M117 101.5q0 61.5 39.5 94.5t100 33t100.5 -33t40 -94.5t-40 -94t-100.5 -32.5t-100 32.5t-39.5 94zM156 1450h200l-16 -1036h-168z" />
<glyph unicode="&#x22;" horiz-adv-x="853" d="M138 1530h206l-26 -542h-154zM507 1530h206l-26 -542h-154z" />
<glyph unicode="#" horiz-adv-x="1534" d="M122 340v148h262l72 384h-246v148h274l64 340h162l-64 -340h346l64 340h162l-65 -340h233v-148h-261l-72 -384h247v-148h-275l-64 -340h-162l64 340h-345l-64 -340h-162l64 340h-234zM546 488h345l73 384h-346z" />
<glyph unicode="$" d="M170 16v194q126 -35 363 -35q317 0 317 146q0 60 -62 102q-48 33 -182 86l-122 48q-152 59 -223 130q-90 90 -90 230q0 175 191 259q66 28 157 40v314h152v-306q131 -1 322 -18v-194q-178 37 -305 37t-180 -12.5t-84 -32.5q-54 -37 -54 -92.5t45 -95.5t146 -81l137 -56 q175 -71 236 -125t88 -110.5t27 -122t-22 -115t-68 -89.5q-99 -86 -288 -109v-348h-152v340q-226 0 -349 16z" />
<glyph unicode="%" horiz-adv-x="1706" d="M116 1019q0 156 88 249q85 91 227 91q139 0 224 -91q86 -92 86 -249q0 -159 -86 -251q-83 -88 -225 -88q-69 0 -127 22.5t-99 65.5q-88 92 -88 251zM276 1017.5q0 -99.5 41 -154.5t113 -55t111.5 55t39.5 154.5t-39.5 156.5t-111.5 57t-113 -57t-41 -156.5zM366 0 l787 1360h167l-787 -1360h-167zM963 339q0 80 23 143t64 107q86 91 228 91q139 0 224 -91q86 -92 86 -249q0 -159 -86 -250q-83 -89 -224 -89q-143 0 -228 89q-87 91 -87 249zM1123 338.5q0 -99.5 41 -154.5t113 -55t111.5 55t39.5 154.5t-39.5 156.5t-111.5 57t-113 -57 t-41 -156.5z" />
<glyph unicode="&#x26;" horiz-adv-x="1364" d="M149 390q0 147 133 262q52 45 132 78v3q-105 42 -163.5 118t-58.5 156t25.5 146t88.5 119q144 120 440 120q170 0 276 -11v-180q-122 23 -243.5 23t-188 -14.5t-110.5 -41.5q-86 -52 -86 -146q0 -195 286 -195h612v-170h-124v-657h-173l-7 127q-107 -97 -282 -132 q-56 -11 -131.5 -11t-158 24.5t-142.5 75.5q-125 106 -125 306zM351 387q0 -181 164 -228q52 -15 117 -15q215 0 344 127v387l-297 -1q-157 0 -247 -85q-81 -76 -81 -185z" />
<glyph unicode="'" horiz-adv-x="512" d="M153 1530h206l-26 -542h-154z" />
<glyph unicode="(" horiz-adv-x="683" d="M109 680q0 401 196 668q71 96 175 182h208q-281 -219 -365 -590q-28 -124 -28 -260.5t28 -260t79 -231.5q101 -214 286 -358h-208q-291 238 -352 610q-19 116 -19 240z" />
<glyph unicode=")" horiz-adv-x="683" d="M-48 -170h208q291 238 352 610q19 116 19 240q0 401 -196 668q-71 96 -175 182h-208q281 -219 365 -590q28 -124 28 -260.5t-28 -260t-79 -231.5q-101 -214 -286 -358z" />
<glyph unicode="*" d="M140 1135l53 167l348 -149l-34 377h177l-33 -378l346 157l54 -168l-366 -89l247 -282l-143 -103l-193 315l-195 -321l-142 103l247 283z" />
<glyph unicode="+" horiz-adv-x="1194" d="M97 519v152h422v421h152v-421h429v-152h-429v-429h-152v429h-422z" />
<glyph unicode="," horiz-adv-x="512" d="M24 -223q126 0 148 125q8 42 8 98v186h193v-186q0 -194 -75 -286q-84 -102 -274 -102v165z" />
<glyph unicode="-" horiz-adv-x="1022" d="M170 518v154h680v-154h-680z" />
<glyph unicode="." horiz-adv-x="511" d="M117 101.5q0 61.5 39.5 94.5t100 33t100.5 -33t40 -94.5t-40 -94t-100.5 -32.5t-100 32.5t-39.5 94z" />
<glyph unicode="/" horiz-adv-x="854" d="M12 -170l648 1530h178l-648 -1530h-178z" />
<glyph unicode="0" horiz-adv-x="1365" d="M124 670q0 328 154 511q151 179 412 179q257 0 404 -179q152 -184 152 -511t-152 -509q-147 -177 -404 -177q-261 0 -412 177q-154 181 -154 509zM334 671q0 -535 354 -535q103 0 170 42t106 114q72 132 72 377q0 384 -178 497q-67 42 -168 42q-189 0 -278 -158 q-78 -138 -78 -379z" />
<glyph unicode="1" horiz-adv-x="852" d="M128 840v202l447 318h111v-1360h-199v1085z" />
<glyph unicode="2" d="M136 0v92l423 429l135 143q113 124 142 210q16 46 16 87.5t-12 78.5t-51 68q-91 74 -288 74t-331 -42v192q175 28 306.5 28t223 -19t155 -50.5t102.5 -71.5t60 -83q35 -70 35 -146t-22.5 -138.5t-64.5 -126.5t-103 -133l-136 -150l-260 -266h585v-176h-915z" />
<glyph unicode="3" d="M141 17v189q119 -38 336 -38t308.5 62.5t91.5 174.5t-99 165q-107 57 -362 57h-100v80l399 477h-545v176h869v-80l-419 -482v-3q405 -26 458 -301q8 -44 8 -109.5t-32.5 -140.5t-103 -131.5t-182.5 -89t-315.5 -32.5t-311.5 26z" />
<glyph unicode="4" d="M57 333v75l555 952h236l-508 -851h479v278h202v-278h114v-176h-114v-333h-202v333h-762z" />
<glyph unicode="5" d="M141 17v194q136 -38 330 -38t293.5 62.5t99.5 199.5q0 125 -84 182q-97 67 -323 67h-279v672h821v-188h-629v-316h117q303 0 441 -98q142 -101 142 -323q0 -195 -142 -311q-156 -129 -458 -129q-221 0 -329 26z" />
<glyph unicode="6" horiz-adv-x="1365" d="M152 620v61q0 308 194 495q192 184 507 184h61q120 0 180 -11v-194q-96 30 -233 30t-231 -34.5t-156 -96.5q-122 -121 -122 -330q116 85 276 116q56 10 138 10t169.5 -27.5t150.5 -80.5q131 -113 131 -318q0 -213 -167 -333q-149 -107 -356 -107q-265 0 -406 174 q-136 166 -136 462zM354 573q0 -300 189 -401q66 -36 146 -36t138.5 18.5t102.5 53.5q93 77 93 206t-88 205.5t-238 76.5q-155 0 -289 -82q-35 -22 -54 -41z" />
<glyph unicode="7" d="M105 1183v176h1022v-80l-656 -1279h-230l621 1183h-757z" />
<glyph unicode="8" horiz-adv-x="1365" d="M159 349q0 63 13.5 107.5t41.5 89.5q65 102 182 154v3q-133 70 -182 209q-16 46 -16 88t11 84t34.5 82t61.5 77t91 65q117 61 285 61q324 0 441 -203q44 -77 44 -142.5t-16 -111t-43 -84.5q-55 -81 -139 -125v-3q117 -52 182 -154q55 -88 55 -174t-35.5 -158t-103.5 -123 q-141 -107 -384 -107t-384 107q-68 51 -103.5 123t-35.5 135zM361 367q0 -54 27.5 -99t72.5 -74q91 -60 220 -60q213 0 295 134q27 45 27 99t-18 97.5t-57 77.5q-85 74 -246 74t-246 -74q-75 -65 -75 -175zM401 1005q0 -100 78 -167q80 -68 203 -68q62 0 114.5 18.5 t89.5 49.5q78 67 78 167q0 140 -150 191q-54 18 -131 18q-144 0 -219 -66q-63 -55 -63 -143z" />
<glyph unicode="9" horiz-adv-x="1365" d="M137 919q0 213 167 333q149 107 356 107q265 0 406 -174q136 -166 136 -462v-61q0 -308 -194 -495q-192 -184 -507 -184h-61q-120 0 -180 11v194q96 -30 233 -30t231 34.5t156 96.5q122 121 122 330q-116 -85 -276 -116q-56 -10 -138 -10t-169.5 27.5t-150.5 80.5 q-131 113 -131 318zM331 929q0 -129 88 -205.5t238 -76.5q155 0 289 82q35 22 54 41q0 300 -189 401q-66 36 -146 36t-138.5 -18.5t-102.5 -53.5q-93 -77 -93 -206z" />
<glyph unicode=":" horiz-adv-x="512" d="M117 101.5q0 61.5 39.5 94.5t100 33t100.5 -33t40 -94.5t-40 -94t-100.5 -32.5t-100 32.5t-39.5 94zM117 924.5q0 61.5 39.5 94.5t100 33t100.5 -33t40 -94.5t-40 -94t-100.5 -32.5t-100 32.5t-39.5 94z" />
<glyph unicode=";" horiz-adv-x="513" d="M24 -223q126 0 148 125q8 42 8 98v186h193v-186q0 -194 -75 -286q-84 -102 -274 -102v165zM117 924.5q0 61.5 39.5 94.5t100 33t100.5 -33t40 -94.5t-40 -94t-100.5 -32.5t-100 32.5t-39.5 94z" />
<glyph unicode="&#x3c;" horiz-adv-x="1190" d="M71 539v103l1003 432v-183l-744 -301l744 -300v-183z" />
<glyph unicode="=" horiz-adv-x="1194" d="M97 340v154h1003v-154h-1003zM97 695v154h1003v-154h-1003z" />
<glyph unicode="&#x3e;" horiz-adv-x="1190" d="M114 107l1003 432v103l-1003 432v-183l744 -301l-744 -300v-183z" />
<glyph unicode="?" horiz-adv-x="1023" d="M170 1212v188q356 0 558 -167q181 -151 181 -383q0 -237 -203 -340q-78 -40 -197 -46v-123h-170v282q40 -4 101 -4q269 0 269 231q0 245 -281 326q-114 34 -258 36zM293 96q0 58 37 89t94 31t95 -31t38 -89t-38 -89t-95 -31t-94 31t-37 89z" />
<glyph unicode="@" horiz-adv-x="2044" d="M109 421q0 246 127 459q122 205 334 328q214 124 463 124q278 0 489 -122q197 -113 306 -314q106 -193 106 -427q0 -202 -96 -351q-106 -166 -281 -166q-72 0 -133 34q-116 63 -149 151q-63 -105 -187 -153q-52 -19 -120 -19t-138 23t-126 73q-125 113 -125 322 q0 238 169 367q97 74 229 99q63 12 166 12t231 -17v-500q0 -94 44 -164q52 -81 140 -81q144 0 191 204q16 70 16 189t-46.5 248.5t-138.5 228.5q-202 217 -547 217q-205 0 -381 -105q-264 -157 -347 -457q-27 -98 -27 -229.5t56 -270t160 -242.5q225 -223 586 -223 q143 0 273 36q36 10 54 19l-11 -162q-139 -52 -301 -52t-291 33.5t-237 94t-193 145.5t-144 187q-121 209 -121 461zM771 384q0 -143 77 -216q59 -54 120 -54t95 15.5t59 38.5q42 38 68 89v438q-36 9 -105 9t-127 -18.5t-100 -57.5q-87 -82 -87 -244z" />
<glyph unicode="A" horiz-adv-x="1365" d="M27 0l587 1392h137l587 -1392h-208l-141 350h-618l-140 -350h-204zM436 510h489l-244 610z" />
<glyph unicode="B" d="M170 0v1392h351q345 0 445 -199q37 -75 37 -149t-15.5 -117.5t-41.5 -79.5q-49 -68 -130 -116v-4q150 -43 221 -151q54 -82 54 -182t-39.5 -173t-109.5 -122q-143 -99 -382 -99h-390zM370 152h190q220 0 297 133q26 45 26 105q0 243 -292 243h-221v-481zM370 785h189 q161 0 217 127q19 45 19 100.5t-14 96t-45 69.5q-66 62 -199 62h-167v-455z" />
<glyph unicode="C" d="M92 710q0 225 107 390q145 223 445 284q92 18 219.5 18t204.5 -14v-191q-70 22 -216.5 22t-248.5 -36t-169 -103q-134 -131 -134 -370q0 -241 132 -382q143 -152 411 -152q157 0 257 24v-192q-99 -18 -266.5 -18t-302 46t-231.5 136q-208 193 -208 538z" />
<glyph unicode="D" horiz-adv-x="1366" d="M154 0v1391h338q342 0 542 -169q216 -181 216 -528t-210 -527q-196 -167 -538 -167h-348zM354 160h136q432 0 526 312q29 99 29 221q0 537 -566 537h-125v-1070z" />
<glyph unicode="E" d="M154 0v1392h899v-174h-699v-410h529v-168h-529v-464h699v-176h-899z" />
<glyph unicode="F" d="M154 0v1392h947v-174h-747v-410h577v-168h-577v-640h-200z" />
<glyph unicode="G" horiz-adv-x="1366" d="M132 710q0 226 108 390q146 223 449 284q93 18 228 18t233 -13v-192q-86 22 -245.5 22t-261.5 -36t-169 -103q-134 -131 -134 -370q0 -243 132 -389q144 -159 411 -159q62 0 115 5v513h200v-666q-115 -30 -303.5 -30t-323 47t-231.5 139q-208 194 -208 540z" />
<glyph unicode="H" horiz-adv-x="1366" d="M154 0v1392h200v-550h658v550h200v-1392h-200v666h-658v-666h-200z" />
<glyph unicode="I" horiz-adv-x="512" d="M156 0v1392h200v-1392h-200z" />
<glyph unicode="J" horiz-adv-x="1024" d="M129 -5v193q40 -12 144.5 -12t176 29t119.5 92q97 127 97 407v511h-513v177h713v-688q0 -542 -341 -670q-117 -44 -279 -44q-42 0 -117 5z" />
<glyph unicode="K" d="M154 0v1392h199v-652l536 652h250l-571 -670l615 -722h-248l-582 694v-694h-199z" />
<glyph unicode="L" horiz-adv-x="1026" d="M154 0v1392h200v-1216h596v-176h-796z" />
<glyph unicode="M" horiz-adv-x="1536" d="M145 0v1392h128l496 -570l494 570h128v-1392h-200v1060l-59 -80l-363 -423l-363 422l-61 80v-1059h-200z" />
<glyph unicode="N" horiz-adv-x="1365" d="M153 0v1392h144l727 -1027l-11 144v883h198v-1392h-143l-607 853l-121 174l11 -174v-853h-198z" />
<glyph unicode="O" horiz-adv-x="1536" d="M109 694q0 163 49 295t136 225q183 194 475 194q293 0 474 -194q184 -197 184 -520t-184 -518q-180 -192 -474 -192q-293 0 -475 192q-185 196 -185 518zM309 695q0 -228 111 -377q125 -166 349 -166t348 166q110 147 110 375q0 230 -110 379q-124 168 -348 168 q-225 0 -349 -168q-111 -149 -111 -377z" />
<glyph unicode="P" d="M170 0v1392h395q395 0 509 -234q41 -86 41 -204t-42 -202t-113 -138q-138 -104 -369 -104h-221v-510h-200zM370 670h182q181 0 268 70t87 218q0 197 -183 254q-64 20 -155 20h-199v-562z" />
<glyph unicode="Q" horiz-adv-x="1536" d="M109 694q0 323 185 520q183 194 475 194q293 0 474 -194q184 -197 184 -520q0 -284 -147 -474q-142 -184 -384 -225l3 -3q137 -184 385 -184h24q10 0 20 2v-193q-14 -3 -84 -3t-159 27.5t-161 76.5q-132 91 -223 262l5 7q-268 20 -430 209q-167 195 -167 498zM309 695 q0 -228 111 -377q125 -166 349 -166t348 166q110 147 110 375q0 230 -110 379q-124 168 -348 168q-225 0 -349 -168q-111 -149 -111 -377z" />
<glyph unicode="R" d="M170 0v1392h395q395 0 509 -234q41 -86 41 -193.5t-28.5 -181.5t-79.5 -127q-98 -102 -270 -134q71 -219 241 -302q56 -28 94 -30h30q41 0 60 4v-194h-45q-225 0 -383 160q-139 139 -187 350h-177v-510h-200zM370 670h182q181 0 268 70t87 218q0 197 -183 254 q-64 20 -155 20h-199v-562z" />
<glyph unicode="S" d="M148 1049q0 154 134 249q147 104 418 104q175 0 320 -14v-191q-123 28 -274.5 28t-220 -15.5t-107.5 -39.5q-71 -44 -71 -116q0 -70 45 -116q40 -39 146 -90l263 -125q131 -62 183.5 -117t77.5 -110.5t25 -133t-34 -146t-105.5 -119t-182.5 -79t-271.5 -28.5t-323.5 19 v194q146 -33 294 -33t222 16.5t119 43.5q83 50 83 130q0 62 -32 96q-51 53 -147 97l-256 117q-132 62 -187 115q-118 114 -118 264z" />
<glyph unicode="T" d="M76 1216v176h1038v-176h-419v-1216h-200v1216h-419z" />
<glyph unicode="U" horiz-adv-x="1365" d="M154 559v833h200v-833q0 -403 329 -403q328 0 328 403v833h200v-833q0 -295 -149 -442q-135 -133 -379 -133q-377 0 -489 311q-40 109 -40 264z" />
<glyph unicode="V" horiz-adv-x="1200" d="M-44 1392h208l437 -1144l435 1144h208l-548 -1392h-192z" />
<glyph unicode="W" horiz-adv-x="1877" d="M2 1392h208l269 -982l39 -173l44 173l282 982h192l279 -982l45 -180l43 180l271 982h200l-422 -1392h-192l-293 980l-33 125l-32 -125l-290 -980h-192z" />
<glyph unicode="X" d="M20 0l465 705l-440 687h223l329 -533l336 533h210l-448 -674l487 -718h-222l-374 570l-347 -570h-219z" />
<glyph unicode="Y" horiz-adv-x="1200" d="M0 1392h216l388 -622l380 622h216l-495 -784v-608h-208v606z" />
<glyph unicode="Z" d="M91 0v90l721 1133l-141 -5h-546v174h960v-90l-723 -1130l153 4h570v-176h-994z" />
<glyph unicode="[" horiz-adv-x="684" d="M161 -172h443v138h-262v1458h260v138h-441v-1734z" />
<glyph unicode="\" horiz-adv-x="854" d="M2 1360l648 -1530h178l-648 1530h-178z" />
<glyph unicode="]" horiz-adv-x="684" d="M79 -34h262v1458h-260v138h441v-1734h-443v138z" />
<glyph unicode="^" horiz-adv-x="1193" d="M34 340l502 1052h120l503 -1052h-217l-318 689l-28 89l-28 -89l-329 -689h-205z" />
<glyph unicode="_" d="M-10 -188h1215v-152h-1215v152z" />
<glyph unicode="`" horiz-adv-x="681" d="M92 1621h234l232 -367h-178z" />
<glyph unicode="a" horiz-adv-x="1194" d="M129 519q0 124 53.5 228.5t139.5 171.5q167 129 415 129q129 0 195 -6l97 -10v-1032h-180l-8 119q-60 -80 -183 -119q-47 -15 -96.5 -15t-97.5 10t-95.5 33t-90.5 61.5t-76.5 95t-53 133.5t-19.5 201zM337 495q0 -194 91 -287q69 -69 166 -69q125 0 206 91q20 23 29 41 v614q-64 8 -127.5 8t-135.5 -22.5t-123 -70.5q-106 -100 -106 -305z" />
<glyph unicode="b" horiz-adv-x="1192" d="M168 0v1488h200v-559q66 75 183 107q44 12 90.5 12t94.5 -9.5t95.5 -32.5t90.5 -61t76 -95q73 -122 73 -289.5t-53.5 -272.5t-140 -172.5t-195 -99t-234 -31.5t-280.5 15zM369 147q28 -8 110 -8t154 23t123 72q107 103 107 307q0 249 -145 326q-52 27 -106 27t-94 -14 t-70 -34q-57 -39 -79 -84v-615z" />
<glyph unicode="c" horiz-adv-x="1022" d="M109 528q0 249 181 392q162 128 398 128q146 0 200 -10v-178q-84 27 -191.5 27t-178.5 -29.5t-116 -79.5q-85 -95 -85 -250q0 -262 189 -349q67 -31 131 -31t98.5 3t65.5 8q66 11 95 23v-179q-60 -19 -208 -19t-251.5 36t-176.5 106q-151 145 -151 402z" />
<glyph unicode="d" horiz-adv-x="1194" d="M118 475q0 168 53.5 272.5t140 171.5t195 98t189.5 31t125 -4v444h199v-1488h-179l-8 119q-61 -81 -185 -120q-48 -15 -97.5 -15t-97.5 10t-95.5 33.5t-90.5 62t-77 94.5q-72 123 -72 291zM326 493.5q0 -107.5 26 -177t65 -108.5q69 -70 166 -70q125 0 207 92 q21 23 30 41v615l-20 2q-46 6 -109.5 6t-135.5 -22.5t-123 -71t-78.5 -124t-27.5 -183z" />
<glyph unicode="e" horiz-adv-x="1025" d="M71 537q0 238 157 381q141 130 322 130q197 0 308 -132q103 -123 103 -329v-78h-682q0 -283 231 -346q55 -15 169.5 -15t224.5 31v-169q-110 -26 -267 -26q-566 0 -566 553zM284 656h477q0 96 -53 162q-62 76 -171 76q-115 0 -187 -73q-66 -68 -66 -165z" />
<glyph unicode="f" horiz-adv-x="684" d="M56 879v94l124 59v110q0 105 18.5 158t44.5 88t70 61q93 55 261 55q70 0 105 -8v-158q-36 12 -100 12t-101.5 -12t-59.5 -35q-38 -41 -38 -134v-137h258v-153h-258v-879h-200v879h-124z" />
<glyph unicode="g" horiz-adv-x="1194" d="M90 509v7q0 169 100 297q88 114 242 177q140 58 303 58t287 -16v-982q0 -374 -280 -444q-87 -22 -223.5 -22t-199.5 20v178q79 -34 193 -34q4 -1 7 -1q110 0 162 16q54 16 85 52q56 65 56 235v53q-76 -76 -200 -106q-50 -12 -100 -12t-97.5 11t-94.5 35.5t-90 64 t-76 98.5q-74 128 -74 315zM295 509q0 -205 99 -299q74 -71 181 -71q129 0 217 91q21 23 30 41v615q-64 8 -126 8t-139 -23t-135 -70q-127 -103 -127 -292z" />
<glyph unicode="h" horiz-adv-x="1194" d="M155 0v1488h200v-567q162 127 335 127q185 0 271 -110q90 -116 90 -374v-564h-200v564q0 248 -135 296q-43 16 -97 16q-148 0 -264 -101v-775h-200z" />
<glyph unicode="i" horiz-adv-x="513" d="M128 1332.5q0 57.5 36.5 87.5t92.5 30t93.5 -30t37.5 -87.5t-37.5 -88t-93.5 -30.5t-92.5 30.5t-36.5 88zM154 0v1032h200v-1032h-200z" />
<glyph unicode="j" horiz-adv-x="512" d="M-59 -256q27 -8 61 -8t64.5 12t50.5 40q39 56 39 193v1051h200v-1052q0 -271 -170 -361q-67 -35 -173 -35q-17 0 -35 2l-37 4v154zM128 1333.5q0 57.5 36.5 87.5t92.5 30t93.5 -30t37.5 -87.5t-37.5 -88t-93.5 -30.5t-92.5 30.5t-36.5 88z" />
<glyph unicode="k" horiz-adv-x="1024" d="M170 0v1487h200v-917l418 462h238l-445 -468l468 -564h-244l-435 526v-526h-200z" />
<glyph unicode="l" horiz-adv-x="683" d="M198 390v1098h200v-1097q0 -198 90 -233q30 -12 64 -12t61 8v-154l-37 -4q-18 -2 -35 -2q-192 0 -277 126q-66 99 -66 270z" />
<glyph unicode="m" horiz-adv-x="1878" d="M160 0v1032h184l14 -113q110 92 256 120q47 9 92 9q187 0 282 -158q174 158 364 158q188 0 274 -113q86 -115 86 -380v-555h-200v548q0 260 -125 311q-42 17 -98 17q-134 0 -246 -96v-780h-200v556q0 178 -53 250q-51 70 -182.5 70t-248.5 -101l1 -775h-200z" />
<glyph unicode="n" d="M155 0v1032h185l14 -112q163 128 337 128q184 0 270 -110q90 -116 90 -374v-564h-200v564q0 248 -134 296q-43 16 -97 16q-149 0 -265 -101v-775h-200z" />
<glyph unicode="o" horiz-adv-x="1194" d="M88 518q0 243 155 394q145 141 359 141q210 0 351 -141q150 -150 150 -394q0 -243 -151 -392q-143 -142 -351 -142q-211 0 -358 142q-155 149 -155 392zM296 518q0 -256 164 -348q58 -32 139 -32t137 32.5t92 85.5q67 102 67 262q0 254 -161 348q-56 33 -134 33 t-135.5 -32.5t-94.5 -85.5q-74 -104 -74 -263z" />
<glyph unicode="p" horiz-adv-x="1196" d="M170 -400v1432h180l8 -118q60 80 184 119q48 15 97.5 15t97.5 -10.5t95 -34t90 -62t76 -95.5q72 -123 72 -305q0 -278 -192 -425q-170 -131 -414 -131h-50q-24 0 -44 1v-386h-200zM370 148q28 -8 110 -8t154 23t122 71q106 102 106 307q0 193 -92 285q-68 68 -166 68 q-123 0 -204 -91q-21 -23 -30 -41v-614z" />
<glyph unicode="q" horiz-adv-x="1196" d="M120 519q0 124 53.5 228.5t140.5 171.5q166 129 414 129q129 0 195 -6l97 -10v-1432h-200v274l13 245q-60 -80 -183 -119q-48 -15 -97.5 -15t-97.5 10t-95.5 33t-90.5 61.5t-76.5 95t-53 133.5t-19.5 201zM328 495q0 -194 91 -287q69 -69 166 -69q125 0 206 91 q20 23 29 41v614q-64 8 -127.5 8t-135.5 -22.5t-123 -70.5q-106 -100 -106 -305z" />
<glyph unicode="r" horiz-adv-x="853" d="M169 0v1032h192l8 -143q75 94 219 141q52 18 119 18t104 -10v-189q-55 16 -131.5 16t-125.5 -15.5t-86 -37.5q-68 -40 -99 -90v-722h-200z" />
<glyph unicode="s" horiz-adv-x="1024" d="M155 2v177q130 -31 264 -31q268 0 268 113q0 43 -21 64q-31 33 -98 66l-146 67q-142 71 -184 114q-79 80 -79 190q0 124 115 202q124 84 348 84q113 0 228 -16v-171q-126 23 -219.5 23t-145 -12t-77.5 -30q-41 -28 -41 -72.5t28.5 -72t89.5 -59.5l147 -71 q144 -75 185 -115q78 -76 78 -191q0 -123 -124 -198q-130 -79 -363 -79q-125 0 -253 18z" />
<glyph unicode="t" horiz-adv-x="853" d="M75 879v94l148 59l48 256h152v-256h320v-153h-320v-488q0 -196 103 -233q33 -12 100 -12t112 16v-160q-21 -5 -61 -6l-63 -2h-32q-193 0 -285 126q-74 102 -74 270v489h-148z" />
<glyph unicode="u" d="M152 458v574h200v-564q0 -185 53 -252q47 -60 179.5 -60t243.5 97v779h200v-1032h-180l-18 109q-148 -125 -327 -125q-190 0 -269 105q-82 107 -82 369z" />
<glyph unicode="v" horiz-adv-x="1021" d="M14 1032h215l281 -837l282 837h214l-395 -1032h-201z" />
<glyph unicode="w" horiz-adv-x="1707" d="M16 1032h213l265 -820l268 820h208l271 -817l252 817h198l-347 -1032h-206l-278 782l-263 -782h-206z" />
<glyph unicode="x" horiz-adv-x="1025" d="M21 0l378 518l-355 514h227l246 -373l263 373h224l-384 -513l375 -519h-226l-263 376l-258 -376h-227z" />
<glyph unicode="y" horiz-adv-x="1025" d="M51 1032h213l298 -822l267 822h211l-424 -1159q-48 -130 -133 -199q-112 -90 -299 -90q-17 0 -35 2l-37 4v154q27 -8 73.5 -8t95.5 18.5t85 51.5q60 54 109 170z" />
<glyph unicode="z" horiz-adv-x="1025" d="M89 0v116l600 756h-563v160h819v-116l-609 -756h631v-160h-878z" />
<glyph unicode="{" horiz-adv-x="1023" d="M172 625v145h71q147 0 203 70q64 80 64 307v61q0 116 12.5 163.5t34 82.5t59.5 61q82 55 243 55q72 0 107 -8v-142q-36 12 -105 12t-103 -13t-51 -38q-27 -40 -27 -138v-104q0 -193 -48 -289q-45 -90 -163 -141v-19q117 -50 163 -145q48 -98 48 -293v-104q0 -98 22 -131 q40 -58 134 -58t130 12v-142q-35 -8 -114 -8t-138 14.5t-97.5 40.5t-60 61t-32.5 75q-14 55 -14 171v61q0 228 -64 309q-57 72 -203 72h-71z" />
<glyph unicode="|" horiz-adv-x="511" d="M165 -170v1530h180v-1530h-180z" />
<glyph unicode="}" horiz-adv-x="1023" d="M95 -29v-142q35 -8 114 -8t138 14.5t97.5 40.5t60 61t32.5 75q14 55 14 171v61q0 228 64 309q57 72 203 72h71v145h-71q-147 0 -203 70q-64 80 -64 307v61q0 116 -12.5 163.5t-34 82.5t-59.5 61q-82 55 -243 55q-72 0 -107 -8v-142q36 12 105 12t103 -13t51 -38 q27 -40 27 -138v-104q0 -193 48 -289q45 -90 163 -141v-19q-117 -50 -163 -145q-48 -98 -48 -293v-104q0 -98 -22 -131q-40 -58 -134 -58t-130 12z" />
<glyph unicode="~" d="M20 551q0 151 87 245q82 88 209 88q85 0 142 -28t94 -52l82 -53q28 -18 56.5 -39.5t58.5 -39.5q70 -42 114.5 -42t69.5 14t43 38q38 52 38 129h160q0 -153 -87 -245q-82 -88 -209 -88q-83 0 -145 29.5t-99 53.5l-148 98q-108 73 -170 73q-59 0 -98 -52q-38 -52 -38 -129 h-160z" />
<glyph unicode="&#xa1;" horiz-adv-x="512" d="M117 950.5q0 61.5 40 94t100.5 32.5t100 -32.5t39.5 -94t-39.5 -94.5t-100 -33t-100.5 33t-40 94.5zM158 -398l16 1036h168l16 -1036h-200z" />
<glyph unicode="&#xa2;" horiz-adv-x="1024" d="M99 524.5q0 105.5 33.5 187t91.5 142.5q115 118 303 158v348h152v-330l21 1q151 0 224 -10v-178q-76 27 -204 27t-204 -28t-124 -76q-92 -91 -92 -238q0 -251 211 -336q74 -29 208 -29t213 34v-179q-75 -18 -252 -18h-1v-340h-152v352q-312 56 -399 320q-29 87 -29 192.5 z" />
<glyph unicode="&#xa3;" d="M56 0v170q118 0 194 84q86 96 86 274h-254v152h254v40q0 388 298 484q80 26 166 26q146 0 228 -10l1 -179q-93 19 -199 19t-165.5 -29t-90.5 -77q-46 -72 -46 -230v-44h340v-152h-342q-14 -172 -112 -295q-28 -35 -57 -59v-4h703v-170h-1004z" />
<glyph unicode="&#xa4;" d="M20 131l232 231q-69 105 -69 232t69 232l-231 232l131 132l236 -236q97 56 206 56q111 0 208 -57l237 236l131 -130l-232 -234q69 -108 69 -231.5t-70 -229.5l233 -232l-132 -131l-236 234q-95 -56 -208 -56t-208 56l-235 -235zM326 594q0 -54 21.5 -102t58.5 -84 q78 -77 189 -77t190 77t79 187q0 111 -79 187q-80 76 -190 76q-111 0 -190 -77t-79 -187z" />
<glyph unicode="&#xa5;" d="M-16 1232h223l388 -434l391 434h220l-515 -592h377v-154h-377v-162h377v-154h-377v-170h-192v170h-377v154h377v162h-377v154h377z" />
<glyph unicode="&#xa6;" horiz-adv-x="511" d="M165 -170v669h180v-669h-180zM165 690v670h180v-670h-180z" />
<glyph unicode="&#xa7;" horiz-adv-x="1023" d="M70 651q0 139 166 239q51 31 113 55q-94 53 -128 95q-63 78 -63 155t27 134.5t82 100.5q120 94 336 94q100 0 222 -16v-183q-131 23 -221.5 23t-139.5 -15.5t-74 -38.5q-40 -36 -40 -94q0 -108 150 -166l163 -63q146 -56 211 -124q76 -79 76 -198q0 -139 -167 -239 q-52 -31 -114 -54q93 -51 128 -94q65 -78 65 -156t-27 -135.5t-82 -100.5t-139 -68.5t-192.5 -25.5t-226.5 16v183q131 -23 221.5 -23t139.5 13.5t74 34.5q40 33 40 92q0 119 -150 174l-163 63q-146 56 -211 124q-76 79 -76 198zM254 651q0 -97 116 -158q45 -24 117 -41 q137 11 214 74q65 54 65 123q0 62 -34 96q-67 69 -203 104q-136 -13 -211 -75q-64 -54 -64 -123z" />
<glyph unicode="&#xa8;" horiz-adv-x="850" d="M70 1327q0 55 34.5 83t87.5 28t89 -28t36 -83t-36 -84t-89 -29t-87.5 29t-34.5 84zM535 1327q0 55 34.5 83t87.5 28t89 -28t36 -83t-36 -84t-89 -29t-87.5 29t-34.5 84z" />
<glyph unicode="&#xa9;" horiz-adv-x="1869" d="M136 567q0 216 109 401q163 278 477 366q102 28 212 28q215 0 403 -108q181 -105 287 -286q109 -185 109 -401q0 -217 -109 -401q-163 -277 -478 -364q-102 -29 -212 -29q-215 0 -403 109q-179 103 -286 284q-109 184 -109 401zM288 567q0 -269 189 -459 q88 -89 205.5 -140t229 -51t194.5 23t154.5 65.5t130.5 102t101 131.5q89 150 89 328q0 269 -190 461q-119 119 -285 166q-83 24 -194.5 24t-229 -51t-205.5 -139.5t-138.5 -207t-50.5 -253.5zM517 582q0 201 155 318q138 104 342 104q76 0 166 -10v-152q-80 20 -159 20 t-140 -19.5t-103 -56.5q-84 -74 -84 -204q0 -133 78 -216q85 -88 239 -88q115 0 180 26v-156q-66 -16 -180.5 -16t-203 30t-153.5 88q-137 122 -137 332z" />
<glyph unicode="&#xaa;" horiz-adv-x="1023" d="M109 903q0 230 157 357q136 109 330 109q120 0 173 -6l81 -9v-844h-151l-7 111q-51 -75 -152 -105q-41 -13 -93.5 -13t-112 21t-109.5 68q-116 109 -116 311zM289 903q0 -142 69 -211q53 -53 129 -53q127 0 192 122v456q-37 8 -98 8t-115.5 -18.5t-93.5 -58.5 q-83 -82 -83 -245z" />
<glyph unicode="&#xab;" horiz-adv-x="1706" d="M221 475v118l611 402v-196l-420 -266l420 -273v-196zM835 475v118l611 402v-196l-420 -266l420 -273v-196z" />
<glyph unicode="&#xac;" horiz-adv-x="1194" d="M97 686v164h923v-510h-154v346h-769z" />
<glyph unicode="&#xad;" horiz-adv-x="1229" />
<glyph unicode="&#xae;" horiz-adv-x="1869" d="M136 567q0 216 109 401q163 278 477 366q102 28 212 28q215 0 403 -108q181 -105 287 -286q109 -185 109 -401q0 -217 -109 -401q-163 -277 -478 -364q-102 -29 -212 -29q-215 0 -403 109q-179 103 -286 284q-109 184 -109 401zM288 567q0 -269 189 -459 q88 -89 205.5 -140t229 -51t194.5 23t154.5 65.5t130.5 102t101 131.5q89 150 89 328q0 269 -190 461q-119 119 -285 166q-83 24 -194.5 24t-229 -51t-205.5 -139.5t-138.5 -207t-50.5 -253.5zM625 170v850h265q217 0 314 -86q79 -70 79 -186q0 -238 -269 -269 q64 -170 236 -170h24q15 0 25 2v-143h-34q-247 0 -353 195q-30 55 -45 112h-93v-305h-149zM774 605h116q121 0 163.5 21t60 48t17.5 71q0 141 -241 141h-116v-281z" />
<glyph unicode="&#xaf;" horiz-adv-x="681" d="M69 1240v152h542v-152h-542z" />
<glyph unicode="&#xb0;" horiz-adv-x="852" d="M94 1033q0 136 97 231q97 96 234 96t234 -96q97 -95 97 -231t-97 -231q-97 -96 -234 -96t-234 96q-97 95 -97 231zM246 1033q0 -77 52 -129q54 -54 127 -54t127 54q52 52 52 129t-52 129q-54 54 -127 54t-127 -54q-52 -52 -52 -129z" />
<glyph unicode="&#xb1;" horiz-adv-x="1194" d="M97 519v152h422v421h152v-421h429v-152h-429v-429h-152v429h-422zM127 7v154h943v-154h-943z" />
<glyph unicode="&#xb2;" horiz-adv-x="853" d="M94 510v92l159 126q238 189 267 288q10 34 10 65t-10.5 56.5t-35.5 44.5q-53 43 -166 43q-69 0 -130 -14t-73 -19v158q81 19 183 19t162.5 -13t104.5 -35.5t72 -51.5t44 -61q29 -57 29 -129.5t-58.5 -152t-169.5 -177.5l-87 -77v-8h354v-154h-655z" />
<glyph unicode="&#xb3;" horiz-adv-x="853" d="M92 536v156q125 -38 250 -38q254 0 254 121q0 69 -68 95q-63 25 -215 25h-82v80l239 240h-370v145h640v-80l-273 -262v-3q308 -22 308 -240q0 -182 -229 -243q-79 -22 -212.5 -22t-241.5 26z" />
<glyph unicode="&#xb4;" horiz-adv-x="1192" d="M509 1254l232 367h234l-288 -367h-178z" />
<glyph unicode="&#xb6;" horiz-adv-x="1196" d="M75 935q0 176 124.5 300.5t300.5 124.5h156v-1h218v1h156v-1700h-156v1553h-218v-1553h-156v850q-176 0 -300.5 124.5t-124.5 300.5z" />
<glyph unicode="&#xb7;" horiz-adv-x="512" d="M117 722.5q0 61.5 39.5 94.5t100 33t100.5 -33t40 -94.5t-40 -94t-100.5 -32.5t-100 32.5t-39.5 94z" />
<glyph unicode="&#xb8;" horiz-adv-x="1021" d="M486 -362q45 -9 87 -9q161 0 161 96q0 56 -112 56h-120v303h144v-175h34q155 0 202 -99q16 -34 16 -84t-25 -94.5t-67 -75.5q-90 -65 -219 -65q-67 0 -101 8v139z" />
<glyph unicode="&#xb9;" horiz-adv-x="683" d="M55 960v180l318 228h104v-859h-171v624z" />
<glyph unicode="&#xba;" horiz-adv-x="1025" d="M103 935q0 204 119 323q111 111 288 111q176 0 288 -111q120 -118 120 -323q0 -204 -120 -321q-112 -111 -288 -111q-84 0 -158.5 28t-129.5 83q-119 117 -119 321zM281 935q0 -200 123 -269q44 -25 106.5 -25t106 24.5t71.5 64.5q52 78 52 205q0 199 -127 271 q-43 25 -104 25t-104.5 -24.5t-70.5 -64.5q-53 -78 -53 -207z" />
<glyph unicode="&#xbb;" horiz-adv-x="1705" d="M281 64l611 411v118l-611 402v-196l420 -266l-420 -273v-196zM895 64l611 411v118l-611 402v-196l420 -266l-420 -273v-196z" />
<glyph unicode="&#xbc;" horiz-adv-x="854" d="M54 -69l338 579h206l-319 -517h228v177h172v-177h104v-137h-104v-197h-172v197h-453v75zM163 1130v180l318 228h104v-859h-171v624z" />
<glyph unicode="&#xbd;" horiz-adv-x="853" d="M124 -246l159 126q238 189 267 288q10 34 10 65t-10.5 56.5t-35.5 44.5q-53 43 -166 43q-69 0 -130 -14t-73 -19v158q81 19 183 19t162.5 -13t104.5 -35.5t72 -51.5t44 -61q29 -57 29 -129.5t-58.5 -152t-169.5 -177.5l-87 -77v-8h354v-154h-655v92zM163 1130v180 l318 228h104v-859h-171v624z" />
<glyph unicode="&#xbe;" horiz-adv-x="854" d="M54 -69l338 579h206l-319 -517h228v177h172v-177h104v-137h-104v-197h-172v197h-453v75zM98 705v156q125 -38 250 -38q254 0 254 121q0 69 -68 96q-63 24 -215 24h-82v80l239 240h-370v145h640v-80l-273 -262v-3q308 -22 308 -240q0 -182 -229 -244q-79 -21 -212.5 -21 t-241.5 26z" />
<glyph unicode="&#xbf;" horiz-adv-x="1024" d="M170 202q0 237 203 340q78 40 197 46v123h170v-282q-40 4 -101 4q-269 0 -269 -231q0 -245 281 -326q114 -34 258 -36v-188q-356 0 -558 167q-181 151 -181 383zM522 956q0 58 38 89t95 31t94 -31t37 -89t-37 -89t-94 -31t-95 31t-38 89z" />
<glyph unicode="&#xc0;" horiz-adv-x="1365" d="M27 0l587 1392h137l587 -1392h-208l-141 350h-618l-140 -350h-204zM350 1897h234l232 -367h-178zM436 510h489l-244 610z" />
<glyph unicode="&#xc1;" horiz-adv-x="1365" d="M27 0l587 1392h137l587 -1392h-208l-141 350h-618l-140 -350h-204zM436 510h489l-244 610zM546 1530l232 367h234l-288 -367h-178z" />
<glyph unicode="&#xc2;" horiz-adv-x="1365" d="M27 0l587 1392h137l587 -1392h-208l-141 350h-618l-140 -350h-204zM355 1553v192l324 230l324 -230v-192l-324 214zM436 510h489l-244 610z" />
<glyph unicode="&#xc3;" horiz-adv-x="1365" d="M27 0l587 1392h137l587 -1392h-208l-141 350h-618l-140 -350h-204zM265 1602q0 113 69 188q68 73 167 73q80 0 168 -69l84 -64q61 -47 102 -47t65.5 27t24.5 80h152q0 -113 -69 -188q-68 -73 -167 -73q-91 0 -210 96l-41 33q-61 51 -102.5 51t-66 -27t-24.5 -80h-152z M436 510h489l-244 610z" />
<glyph unicode="&#xc4;" horiz-adv-x="1365" d="M27 0l587 1392h137l587 -1392h-208l-141 350h-618l-140 -350h-204zM316 1671q0 55 34.5 83t87.5 28t89 -28t36 -83t-36 -84t-89 -29t-87.5 29t-34.5 84zM436 510h489l-244 610zM781 1671q0 55 34.5 83t87.5 28t89 -28t36 -83t-36 -84t-89 -29t-87.5 29t-34.5 84z" />
<glyph unicode="&#xc5;" horiz-adv-x="1365" d="M27 0l587 1392h137l587 -1392h-208l-141 350h-618l-140 -350h-204zM404 1771q0 112 80.5 190.5t195.5 78.5t195 -78q82 -80 82 -191q0 -112 -82 -190q-81 -78 -196 -78q-57 0 -107 21t-87 57q-81 77 -81 190zM436 510h489l-244 610zM532 1771q0 -66 43 -111t105 -45 t105 45q44 45 44 111q0 102 -91 145q-27 12 -58 12q-61 0 -105 -46q-43 -45 -43 -111z" />
<glyph unicode="&#xc6;" horiz-adv-x="1872" d="M20 0l903 1392h832v-174h-566v-410h396v-168h-396v-464h566v-176h-766v350h-521l-224 -350h-224zM570 510h419v655z" />
<glyph unicode="&#xc7;" d="M92 694.5q0 133.5 28.5 231t78.5 174.5t119.5 133.5t151.5 94.5q164 74 342.5 74t255.5 -14v-191q-70 22 -216.5 22t-248.5 -36t-169 -103q-134 -131 -134 -370q0 -241 132 -382q143 -152 411 -152q157 0 257 24v-192q-99 -18 -199.5 -18t-124.5 2v-83h34q155 0 202 -99 q16 -34 16 -84t-25 -94.5t-67 -75.5q-90 -65 -219 -65q-67 0 -101 8v139q45 -9 87 -9q161 0 161 96q0 56 -112 56h-120v227q-385 80 -501 434q-39 119 -39 252.5z" />
<glyph unicode="&#xc8;" d="M154 0v1392h899v-174h-699v-410h529v-168h-529v-464h699v-176h-899zM285 1897h234l232 -367h-178z" />
<glyph unicode="&#xc9;" d="M154 0v1392h899v-174h-699v-410h529v-168h-529v-464h699v-176h-899zM481 1530l232 367h234l-288 -367h-178z" />
<glyph unicode="&#xca;" d="M154 0v1392h899v-174h-699v-410h529v-168h-529v-464h699v-176h-899zM290 1553v192l324 230l324 -230v-192l-324 214z" />
<glyph unicode="&#xcb;" d="M154 0v1392h899v-174h-699v-410h529v-168h-529v-464h699v-176h-899zM270 1671q0 55 34.5 83t87.5 28t89 -28t36 -83t-36 -84t-89 -29t-87.5 29t-34.5 84zM735 1671q0 55 34.5 83t87.5 28t89 -28t36 -83t-36 -84t-89 -29t-87.5 29t-34.5 84z" />
<glyph unicode="&#xcc;" horiz-adv-x="512" d="M-73 1897h234l232 -367h-178zM156 0v1392h200v-1392h-200z" />
<glyph unicode="&#xcd;" horiz-adv-x="512" d="M122 1530l232 367h234l-288 -367h-178zM156 0v1392h200v-1392h-200z" />
<glyph unicode="&#xce;" horiz-adv-x="512" d="M-68 1553v192l324 230l324 -230v-192l-324 214zM156 0v1392h200v-1392h-200z" />
<glyph unicode="&#xcf;" horiz-adv-x="512" d="M-107 1671q0 55 34.5 83t87.5 28t89 -28t36 -83t-36 -84t-89 -29t-87.5 29t-34.5 84zM156 0v1392h200v-1392h-200zM358 1671q0 55 34.5 83t87.5 28t89 -28t36 -83t-36 -84t-89 -29t-87.5 29t-34.5 84z" />
<glyph unicode="&#xd0;" horiz-adv-x="1366" d="M29 666v154h125v571h338q342 0 542 -169q216 -181 216 -528t-210 -527q-196 -167 -538 -167h-348v666h-125zM354 160h136q432 0 526 312q29 99 29 221q0 537 -566 537h-125v-410h355v-154h-355v-506z" />
<glyph unicode="&#xd1;" horiz-adv-x="1365" d="M153 0v1392h144l727 -1027l-11 144v883h198v-1392h-143l-607 853l-121 174l11 -174v-853h-198zM283 1602q0 113 69 188q68 73 167 73q80 0 168 -69l84 -64q61 -47 102 -47t65.5 27t24.5 80h152q0 -113 -69 -188q-68 -73 -167 -73q-91 0 -210 96l-41 33q-61 51 -102.5 51 t-66 -27t-24.5 -80h-152z" />
<glyph unicode="&#xd2;" horiz-adv-x="1536" d="M109 694q0 163 49 295t136 225q183 194 475 194q293 0 474 -194q184 -197 184 -520t-184 -518q-180 -192 -474 -192q-293 0 -475 192q-185 196 -185 518zM309 695q0 -228 111 -377q125 -166 349 -166t348 166q110 147 110 375q0 230 -110 379q-124 168 -348 168 q-225 0 -349 -168q-111 -149 -111 -377zM438 1897h234l232 -367h-178z" />
<glyph unicode="&#xd3;" horiz-adv-x="1536" d="M109 694q0 163 49 295t136 225q183 194 475 194q293 0 474 -194q184 -197 184 -520t-184 -518q-180 -192 -474 -192q-293 0 -475 192q-185 196 -185 518zM309 695q0 -228 111 -377q125 -166 349 -166t348 166q110 147 110 375q0 230 -110 379q-124 168 -348 168 q-225 0 -349 -168q-111 -149 -111 -377zM634 1530l232 367h234l-288 -367h-178z" />
<glyph unicode="&#xd4;" horiz-adv-x="1536" d="M109 694q0 163 49 295t136 225q183 194 475 194q293 0 474 -194q184 -197 184 -520t-184 -518q-180 -192 -474 -192q-293 0 -475 192q-185 196 -185 518zM309 695q0 -228 111 -377q125 -166 349 -166t348 166q110 147 110 375q0 230 -110 379q-124 168 -348 168 q-225 0 -349 -168q-111 -149 -111 -377zM443 1553v192l324 230l324 -230v-192l-324 214z" />
<glyph unicode="&#xd5;" horiz-adv-x="1536" d="M109 694q0 163 49 295t136 225q183 194 475 194q293 0 474 -194q184 -197 184 -520t-184 -518q-180 -192 -474 -192q-293 0 -475 192q-185 196 -185 518zM309 695q0 -228 111 -377q125 -166 349 -166t348 166q110 147 110 375q0 230 -110 379q-124 168 -348 168 q-225 0 -349 -168q-111 -149 -111 -377zM353 1602q0 113 69 188q68 73 167 73q80 0 168 -69l84 -64q61 -47 102 -47t65.5 27t24.5 80h152q0 -113 -69 -188q-68 -73 -167 -73q-91 0 -210 96l-41 33q-61 51 -102.5 51t-66 -27t-24.5 -80h-152z" />
<glyph unicode="&#xd6;" horiz-adv-x="1536" d="M109 694q0 163 49 295t136 225q183 194 475 194q293 0 474 -194q184 -197 184 -520t-184 -518q-180 -192 -474 -192q-293 0 -475 192q-185 196 -185 518zM309 695q0 -228 111 -377q125 -166 349 -166t348 166q110 147 110 375q0 230 -110 379q-124 168 -348 168 q-225 0 -349 -168q-111 -149 -111 -377zM404 1671q0 55 34.5 83t87.5 28t89 -28t36 -83t-36 -84t-89 -29t-87.5 29t-34.5 84zM869 1671q0 55 34.5 83t87.5 28t89 -28t36 -83t-36 -84t-89 -29t-87.5 29t-34.5 84z" />
<glyph unicode="&#xd7;" horiz-adv-x="1194" d="M147 250l337 337l-337 337l111 111l337 -337l337 337l111 -111l-337 -337l337 -337l-111 -111l-337 337l-337 -337z" />
<glyph unicode="&#xd8;" horiz-adv-x="1536" d="M94 -12l170 221q-155 188 -155 485q0 323 185 520q183 194 475 194q196 0 347 -92l143 188l130 -100l-145 -191q183 -198 183 -519q0 -323 -184 -518q-180 -192 -474 -192q-220 0 -384 113l-161 -209zM309 695q0 -228 111 -377q125 -166 349 -166t348 166 q110 147 110 375q0 230 -110 379q-124 168 -348 168q-225 0 -349 -168q-111 -149 -111 -377z" />
<glyph unicode="&#xd9;" horiz-adv-x="1365" d="M154 559v833h200v-833q0 -403 329 -403q328 0 328 403v833h200v-833q0 -295 -149 -442q-135 -133 -379 -133q-377 0 -489 311q-40 109 -40 264zM352 1897h234l232 -367h-178z" />
<glyph unicode="&#xda;" horiz-adv-x="1365" d="M154 559v833h200v-833q0 -403 329 -403q328 0 328 403v833h200v-833q0 -295 -149 -442q-135 -133 -379 -133q-377 0 -489 311q-40 109 -40 264zM548 1530l232 367h234l-288 -367h-178z" />
<glyph unicode="&#xdb;" horiz-adv-x="1365" d="M154 559v833h200v-833q0 -403 329 -403q328 0 328 403v833h200v-833q0 -295 -149 -442q-135 -133 -379 -133q-377 0 -489 311q-40 109 -40 264zM357 1553v192l324 230l324 -230v-192l-324 214z" />
<glyph unicode="&#xdc;" horiz-adv-x="1365" d="M154 559v833h200v-833q0 -403 329 -403q328 0 328 403v833h200v-833q0 -295 -149 -442q-135 -133 -379 -133q-377 0 -489 311q-40 109 -40 264zM318 1671q0 55 34.5 83t87.5 28t89 -28t36 -83t-36 -84t-89 -29t-87.5 29t-34.5 84zM783 1671q0 55 34.5 83t87.5 28t89 -28 t36 -83t-36 -84t-89 -29t-87.5 29t-34.5 84z" />
<glyph unicode="&#xdd;" horiz-adv-x="1200" d="M0 1392h216l388 -622l380 622h216l-495 -784v-608h-208v606zM466 1530l232 367h234l-288 -367h-178z" />
<glyph unicode="&#xde;" d="M170 0v1392h200v-230h193q395 0 509 -234q41 -86 41 -204t-42 -202t-113 -138q-138 -104 -369 -104h-221l2 -280h-200zM368 440h182q181 0 268 70t87 218q0 197 -183 254q-64 20 -155 20h-199v-562z" />
<glyph unicode="&#xdf;" horiz-adv-x="1190" d="M156 0v1034q0 335 258 431q89 33 202.5 33t188.5 -25t123 -67q94 -80 94 -204q0 -150 -137 -248l-87 -61q-46 -30 -74 -51.5t-28 -40.5t3 -30t12 -22q19 -23 75 -55l95 -55q139 -80 184 -130q83 -92 83 -208q0 -132 -100 -217q-115 -100 -331 -100q-80 0 -208 18v177 q117 -31 199.5 -31t126.5 15.5t67 38.5q38 38 38 99q0 102 -128 171l-89 48q-127 67 -163.5 106.5t-50 78.5t-13.5 88.5t18 81.5t48 58.5t68 50.5l80 53q90 60 114 111q11 24 11 48t-9 49t-32 47q-55 53 -170 53q-124 0 -187 -58q-81 -74 -81 -254v-1033h-200z" />
<glyph unicode="&#xe0;" horiz-adv-x="1194" d="M129 519q0 124 53.5 228.5t139.5 171.5q167 129 415 129q129 0 195 -6l97 -10v-1032h-180l-8 119q-60 -80 -183 -119q-47 -15 -96.5 -15t-97.5 10t-95.5 33t-90.5 61.5t-76.5 95t-53 133.5t-19.5 201zM337 495q0 -194 91 -287q69 -69 166 -69q125 0 206 91q20 23 29 41 v614q-64 8 -127.5 8t-135.5 -22.5t-123 -70.5q-106 -100 -106 -305zM353 1621h234l232 -367h-178z" />
<glyph unicode="&#xe1;" horiz-adv-x="1194" d="M129 519q0 124 53.5 228.5t139.5 171.5q167 129 415 129q129 0 195 -6l97 -10v-1032h-180l-8 119q-60 -80 -183 -119q-47 -15 -96.5 -15t-97.5 10t-95.5 33t-90.5 61.5t-76.5 95t-53 133.5t-19.5 201zM337 495q0 -194 91 -287q69 -69 166 -69q125 0 206 91q20 23 29 41 v614q-64 8 -127.5 8t-135.5 -22.5t-123 -70.5q-106 -100 -106 -305zM592 1254l232 367h234l-288 -367h-178z" />
<glyph unicode="&#xe2;" horiz-adv-x="1194" d="M129 519q0 124 53.5 228.5t139.5 171.5q167 129 415 129q129 0 195 -6l97 -10v-1032h-180l-8 119q-60 -80 -183 -119q-47 -15 -96.5 -15t-97.5 10t-95.5 33t-90.5 61.5t-76.5 95t-53 133.5t-19.5 201zM337 495q0 -194 91 -287q69 -69 166 -69q125 0 206 91q20 23 29 41 v614q-64 8 -127.5 8t-135.5 -22.5t-123 -70.5q-106 -100 -106 -305zM356 1222v192l324 230l324 -230v-192l-324 214z" />
<glyph unicode="&#xe3;" horiz-adv-x="1194" d="M129 519q0 124 53.5 228.5t139.5 171.5q167 129 415 129q129 0 195 -6l97 -10v-1032h-180l-8 119q-60 -80 -183 -119q-47 -15 -96.5 -15t-97.5 10t-95.5 33t-90.5 61.5t-76.5 95t-53 133.5t-19.5 201zM264 1263q0 113 69 187q68 74 167 74q80 0 168 -68l84 -64 q61 -48 102 -48t65.5 27t24.5 80h152q0 -113 -69 -187q-68 -74 -167 -74q-91 0 -210 96l-42 34q-60 50 -101.5 50t-66 -27t-24.5 -80h-152zM337 495q0 -194 91 -287q69 -69 166 -69q125 0 206 91q20 23 29 41v614q-64 8 -127.5 8t-135.5 -22.5t-123 -70.5 q-106 -100 -106 -305z" />
<glyph unicode="&#xe4;" horiz-adv-x="1194" d="M129 519q0 124 53.5 228.5t139.5 171.5q167 129 415 129q129 0 195 -6l97 -10v-1032h-180l-8 119q-60 -80 -183 -119q-47 -15 -96.5 -15t-97.5 10t-95.5 33t-90.5 61.5t-76.5 95t-53 133.5t-19.5 201zM329 1327q0 55 34.5 83t87.5 28t89 -28t36 -83t-36 -84t-89 -29 t-87.5 29t-34.5 84zM337 495q0 -194 91 -287q69 -69 166 -69q125 0 206 91q20 23 29 41v614q-64 8 -127.5 8t-135.5 -22.5t-123 -70.5q-106 -100 -106 -305zM794 1327q0 55 34.5 83t87.5 28t89 -28t36 -83t-36 -84t-89 -29t-87.5 29t-34.5 84z" />
<glyph unicode="&#xe5;" horiz-adv-x="1194" d="M129 519q0 124 53.5 228.5t139.5 171.5q167 129 415 129q129 0 195 -6l97 -10v-1032h-180l-8 119q-60 -80 -183 -119q-47 -15 -96.5 -15t-97.5 10t-95.5 33t-90.5 61.5t-76.5 95t-53 133.5t-19.5 201zM337 495q0 -194 91 -287q69 -69 166 -69q125 0 206 91q20 23 29 41 v614q-64 8 -127.5 8t-135.5 -22.5t-123 -70.5q-106 -100 -106 -305zM402 1489q0 112 80.5 190.5t195.5 78.5t196 -78q81 -80 81 -191q0 -112 -81 -190q-82 -78 -196 -78q-58 0 -108 21t-88 57q-80 77 -80 190zM540 1503.5q0 -46.5 10.5 -73t29.5 -46.5q41 -42 98 -42 q58 0 98.5 42.5t40.5 88t-11 72.5t-30 47q-39 43 -98 43q-57 0 -98 -43q-40 -42 -40 -88.5z" />
<glyph unicode="&#xe6;" horiz-adv-x="1703" d="M92 323q0 175 175 261q148 73 385 73h116v44q0 85 -62.5 136.5t-196.5 51.5q-166 0 -269 -25q-27 -7 -52 -12v159q148 37 344 37q272 0 360 -140q98 101 244 131q43 9 112 9t142 -32t122 -92q99 -120 99 -336v-78h-655q0 -255 159 -332q61 -29 196 -29t245 31v-169 q-110 -26 -287 -26q-293 0 -417 200q-65 -100 -162 -150t-244 -50q-125 0 -228 73q-126 90 -126 265zM292 324.5q0 -53.5 17.5 -88.5t45.5 -56q53 -41 115 -41t115.5 15.5t98.5 49.5q101 78 101 222v83h-133q-172 0 -239.5 -29.5t-94 -65.5t-26.5 -89.5zM861 871l1 2 q-1 0 -1 -2zM956 657h455q0 167 -113 220q-38 18 -91 18q-104 0 -179 -73q-72 -70 -72 -165z" />
<glyph unicode="&#xe7;" horiz-adv-x="1022" d="M109 528q0 249 181 392q162 128 398 128q146 0 200 -10v-178q-84 27 -191.5 27t-178.5 -29.5t-116 -79.5q-85 -95 -85 -250q0 -262 189 -349q67 -31 131 -31t98.5 3t65.5 8q66 11 95 23v-179q-60 -19 -228 -19l-39 1v-76h34q155 0 202 -99q16 -34 16 -84t-25 -94.5 t-68 -75.5q-89 -65 -218 -65q-67 0 -101 8v139q45 -9 87 -9q161 0 161 96q0 56 -112 56h-120v224q-176 44 -275 179q-101 137 -101 344z" />
<glyph unicode="&#xe8;" horiz-adv-x="1025" d="M71 537q0 238 157 381q141 130 322 130q197 0 308 -132q103 -123 103 -329v-78h-682q0 -283 231 -346q55 -15 169.5 -15t224.5 31v-169q-110 -26 -267 -26q-566 0 -566 553zM260 1621h234l232 -367h-178zM284 656h477q0 96 -53 162q-62 76 -171 76q-115 0 -187 -73 q-66 -68 -66 -165z" />
<glyph unicode="&#xe9;" horiz-adv-x="1025" d="M71 537q0 238 157 381q141 130 322 130q197 0 308 -132q103 -123 103 -329v-78h-682q0 -283 231 -346q55 -15 169.5 -15t224.5 31v-169q-110 -26 -267 -26q-566 0 -566 553zM284 656h477q0 96 -53 162q-62 76 -171 76q-115 0 -187 -73q-66 -68 -66 -165zM500 1254 l232 367h234l-288 -367h-178z" />
<glyph unicode="&#xea;" horiz-adv-x="1025" d="M71 537q0 238 157 381q141 130 322 130q197 0 308 -132q103 -123 103 -329v-78h-682q0 -283 231 -346q55 -15 169.5 -15t224.5 31v-169q-110 -26 -267 -26q-566 0 -566 553zM263 1222v192l324 230l324 -230v-192l-324 214zM284 656h477q0 96 -53 162q-62 76 -171 76 q-115 0 -187 -73q-66 -68 -66 -165z" />
<glyph unicode="&#xeb;" horiz-adv-x="1025" d="M71 537q0 238 157 381q141 130 322 130q197 0 308 -132q103 -123 103 -329v-78h-682q0 -283 231 -346q55 -15 169.5 -15t224.5 31v-169q-110 -26 -267 -26q-566 0 -566 553zM236 1327q0 55 34.5 83t87.5 28t89 -28t36 -83t-36 -84t-89 -29t-87.5 29t-34.5 84zM284 656 h477q0 96 -53 162q-62 76 -171 76q-115 0 -187 -73q-66 -68 -66 -165zM701 1327q0 55 34.5 83t87.5 28t89 -28t36 -83t-36 -84t-89 -29t-87.5 29t-34.5 84z" />
<glyph unicode="&#xec;" horiz-adv-x="509" d="M-70 1621h234l232 -367h-178zM154 0v1032h200v-1032h-200z" />
<glyph unicode="&#xed;" horiz-adv-x="509" d="M154 0v1032h200v-1032h-200zM169 1254l232 367h234l-288 -367h-178z" />
<glyph unicode="&#xee;" horiz-adv-x="509" d="M-67 1222v192l324 230l324 -230v-192l-324 214zM154 0v1032h200v-1032h-200z" />
<glyph unicode="&#xef;" horiz-adv-x="509" d="M-94 1327q0 55 34.5 83t87.5 28t89 -28t36 -83t-36 -84t-89 -29t-87.5 29t-34.5 84zM154 0v1032h200v-1032h-200zM371 1327q0 55 34.5 83t87.5 28t89 -28t36 -83t-36 -84t-89 -29t-87.5 29t-34.5 84z" />
<glyph unicode="&#xf0;" horiz-adv-x="1198" d="M100 458q0 214 151 346q138 121 332 121q151 0 251 -66q37 -25 63 -62h4q-39 225 -214 398l-269 -115l-47 144l184 79q-112 78 -262 140l177 87q156 -63 265 -150l269 115l47 -145l-195 -83q247 -277 247 -701q0 -257 -139 -419q-141 -163 -363 -163q-209 0 -350 125 q-151 133 -151 349zM308 460q0 -61 17 -118.5t53 -102.5q78 -100 223 -100q151 0 234 109q68 90 68 211q0 126 -79 213q-85 92 -223 92q-143 0 -221 -91q-72 -84 -72 -213z" />
<glyph unicode="&#xf1;" d="M155 0v1032h185l14 -112q163 128 337 128q184 0 270 -110q90 -116 90 -374v-564h-200v564q0 248 -134 296q-43 16 -97 16q-149 0 -265 -101v-775h-200zM184 1263q0 113 69 187q68 74 167 74q80 0 168 -68l84 -64q61 -48 102 -48t65.5 27t24.5 80h152q0 -113 -69 -187 q-68 -74 -167 -74q-91 0 -210 96l-42 34q-60 50 -101.5 50t-66 -27t-24.5 -80h-152z" />
<glyph unicode="&#xf2;" horiz-adv-x="1194" d="M88 518q0 243 155 394q145 141 359 141q210 0 351 -141q150 -150 150 -394q0 -243 -151 -392q-143 -142 -351 -142q-211 0 -358 142q-155 149 -155 392zM268 1621h234l232 -367h-178zM296 518q0 -256 164 -348q58 -32 139 -32t137 32.5t92 85.5q67 102 67 262 q0 254 -161 348q-56 33 -134 33t-135.5 -32.5t-94.5 -85.5q-74 -104 -74 -263z" />
<glyph unicode="&#xf3;" horiz-adv-x="1194" d="M88 518q0 243 155 394q145 141 359 141q210 0 351 -141q150 -150 150 -394q0 -243 -151 -392q-143 -142 -351 -142q-211 0 -358 142q-155 149 -155 392zM296 518q0 -256 164 -348q58 -32 139 -32t137 32.5t92 85.5q67 102 67 262q0 254 -161 348q-56 33 -134 33 t-135.5 -32.5t-94.5 -85.5q-74 -104 -74 -263zM508 1254l232 367h234l-288 -367h-178z" />
<glyph unicode="&#xf4;" horiz-adv-x="1194" d="M88 518q0 243 155 394q145 141 359 141q210 0 351 -141q150 -150 150 -394q0 -243 -151 -392q-143 -142 -351 -142q-211 0 -358 142q-155 149 -155 392zM271 1222v192l324 230l324 -230v-192l-324 214zM296 518q0 -256 164 -348q58 -32 139 -32t137 32.5t92 85.5 q67 102 67 262q0 254 -161 348q-56 33 -134 33t-135.5 -32.5t-94.5 -85.5q-74 -104 -74 -263z" />
<glyph unicode="&#xf5;" horiz-adv-x="1194" d="M88 518q0 243 155 394q145 141 359 141q210 0 351 -141q150 -150 150 -394q0 -243 -151 -392q-143 -142 -351 -142q-211 0 -358 142q-155 149 -155 392zM179 1263q0 113 69 187q68 74 167 74q80 0 168 -68l84 -64q61 -48 102 -48t65.5 27t24.5 80h152q0 -113 -69 -187 q-68 -74 -167 -74q-91 0 -210 96l-42 34q-60 50 -101.5 50t-66 -27t-24.5 -80h-152zM296 518q0 -256 164 -348q58 -32 139 -32t137 32.5t92 85.5q67 102 67 262q0 254 -161 348q-56 33 -134 33t-135.5 -32.5t-94.5 -85.5q-74 -104 -74 -263z" />
<glyph unicode="&#xf6;" horiz-adv-x="1194" d="M88 518q0 243 155 394q145 141 359 141q210 0 351 -141q150 -150 150 -394q0 -243 -151 -392q-143 -142 -351 -142q-211 0 -358 142q-155 149 -155 392zM244 1327q0 55 34.5 83t87.5 28t89 -28t36 -83t-36 -84t-89 -29t-87.5 29t-34.5 84zM296 518q0 -256 164 -348 q58 -32 139 -32t137 32.5t92 85.5q67 102 67 262q0 254 -161 348q-56 33 -134 33t-135.5 -32.5t-94.5 -85.5q-74 -104 -74 -263zM709 1327q0 55 34.5 83t87.5 28t89 -28t36 -83t-36 -84t-89 -29t-87.5 29t-34.5 84z" />
<glyph unicode="&#xf7;" horiz-adv-x="1194" d="M127 519v154h943v-154h-943zM455 221.5q0 61.5 39.5 94.5t100 33t100.5 -33t40 -94.5t-40 -94t-100.5 -32.5t-100 32.5t-39.5 94zM455 968.5q0 61.5 39.5 94.5t100 33t100.5 -33t40 -94.5t-40 -94t-100.5 -32.5t-100 32.5t-39.5 94z" />
<glyph unicode="&#xf8;" horiz-adv-x="1194" d="M76 0l132 163q-120 144 -120 355q0 243 155 394q145 141 359 141q146 0 266 -75l128 158l127 -104l-132 -164q112 -142 112 -350q0 -243 -151 -392q-143 -142 -373 -142q-123 0 -246 72l-130 -160zM296 518q0 -256 164 -348q58 -32 139 -32t137 32.5t92 85.5 q67 102 67 262q0 254 -161 348q-56 33 -134 33t-135.5 -32.5t-94.5 -85.5q-74 -104 -74 -263z" />
<glyph unicode="&#xf9;" d="M152 458v574h200v-564q0 -185 53 -252q47 -60 179.5 -60t243.5 97v779h200v-1032h-180l-18 109q-148 -125 -327 -125q-190 0 -269 105q-82 107 -82 369zM269 1621h234l232 -367h-178z" />
<glyph unicode="&#xfa;" d="M152 458v574h200v-564q0 -185 53 -252q47 -60 179.5 -60t243.5 97v779h200v-1032h-180l-18 109q-148 -125 -327 -125q-190 0 -269 105q-82 107 -82 369zM509 1254l232 367h234l-288 -367h-178z" />
<glyph unicode="&#xfb;" d="M152 458v574h200v-564q0 -185 53 -252q47 -60 179.5 -60t243.5 97v779h200v-1032h-180l-18 109q-148 -125 -327 -125q-190 0 -269 105q-82 107 -82 369zM272 1222v192l324 230l324 -230v-192l-324 214z" />
<glyph unicode="&#xfc;" d="M152 458v574h200v-564q0 -185 53 -252q47 -60 179.5 -60t243.5 97v779h200v-1032h-180l-18 109q-148 -125 -327 -125q-190 0 -269 105q-82 107 -82 369zM245 1327q0 55 34.5 83t87.5 28t89 -28t36 -83t-36 -84t-89 -29t-87.5 29t-34.5 84zM710 1327q0 55 34.5 83t87.5 28 t89 -28t36 -83t-36 -84t-89 -29t-87.5 29t-34.5 84z" />
<glyph unicode="&#xfd;" horiz-adv-x="1025" d="M51 1032h213l298 -822l267 822h211l-424 -1159q-48 -130 -133 -199q-112 -90 -299 -90q-17 0 -35 2l-37 4v154q27 -8 73.5 -8t95.5 18.5t85 51.5q60 54 109 170zM475 1254l232 367h234l-288 -367h-178z" />
<glyph unicode="&#xfe;" horiz-adv-x="1192" d="M168 -385v1883h202v-565q109 118 275 118q159 0 276 -105q149 -133 149 -405q0 -275 -194 -425q-167 -131 -414 -131h-50q-24 0 -44 1v-371h-200zM368 147q28 -8 110 -8t154 23t123 72q107 103 107 307q0 249 -146 329q-50 27 -104.5 27t-94.5 -14t-70 -35 q-57 -38 -79 -83v-618z" />
<glyph unicode="&#xff;" horiz-adv-x="1025" d="M51 1032h213l298 -822l267 822h211l-424 -1159q-48 -130 -133 -199q-112 -90 -299 -90q-17 0 -35 2l-37 4v154q27 -8 73.5 -8t95.5 18.5t85 51.5q60 54 109 170zM211 1327q0 55 34.5 83t87.5 28t89 -28t36 -83t-36 -84t-89 -29t-87.5 29t-34.5 84zM676 1327q0 55 34.5 83 t87.5 28t89 -28t36 -83t-36 -84t-89 -29t-87.5 29t-34.5 84z" />
<glyph unicode="&#x152;" horiz-adv-x="1702" d="M109 694q0 163 56 292.5t155 219.5q205 186 531 186h766v-174h-566v-410h396v-168h-396v-464h566v-176h-766q-328 0 -531 184q-211 190 -211 510zM309 695q0 -227 131 -369q146 -158 411 -158v1055q-279 0 -421 -159q-121 -137 -121 -369z" />
<glyph unicode="&#x153;" horiz-adv-x="1700" d="M71 518q0 244 139 394q129 141 322 141q226 0 353 -192q123 187 340 187q196 0 303 -132q100 -121 100 -329v-78h-647q0 -284 207 -346q50 -15 161.5 -15t221.5 31v-169q-110 -26 -267 -26q-298 0 -423 186q-62 -91 -153 -138.5t-190 -47.5t-182.5 36.5t-146.5 105.5 q-138 150 -138 392zM279 518q0 -257 134 -348q48 -32 117.5 -32t118 32.5t78.5 85.5q58 104 58 262t-61 263q-67 118 -192 118q-126 0 -194 -118q-59 -103 -59 -263zM981 656h447q0 158 -116 217q-42 21 -97.5 21t-98.5 -20t-73 -53q-62 -68 -62 -165z" />
<glyph unicode="&#x178;" horiz-adv-x="1200" d="M0 1392h216l388 -622l380 622h216l-495 -784v-608h-208v606zM236 1671q0 55 34.5 83t87.5 28t89 -28t36 -83t-36 -84t-89 -29t-87.5 29t-34.5 84zM701 1671q0 55 34.5 83t87.5 28t89 -28t36 -83t-36 -84t-89 -29t-87.5 29t-34.5 84z" />
<glyph unicode="&#x2c6;" horiz-adv-x="1021" d="M186 1222v192l324 230l324 -230v-192l-324 214z" />
<glyph unicode="&#x2dc;" horiz-adv-x="1021" d="M94 1263q0 113 69 187q68 74 167 74q80 0 168 -68l84 -64q61 -48 102 -48t65.5 27t24.5 80h152q0 -113 -69 -187q-68 -74 -167 -74q-91 0 -210 96l-42 34q-60 50 -101.5 50t-66 -27t-24.5 -80h-152z" />
<glyph unicode="&#x2000;" horiz-adv-x="1020" />
<glyph unicode="&#x2001;" horiz-adv-x="2040" />
<glyph unicode="&#x2002;" horiz-adv-x="1020" />
<glyph unicode="&#x2003;" horiz-adv-x="2040" />
<glyph unicode="&#x2004;" horiz-adv-x="680" />
<glyph unicode="&#x2005;" horiz-adv-x="510" />
<glyph unicode="&#x2006;" horiz-adv-x="340" />
<glyph unicode="&#x2007;" horiz-adv-x="340" />
<glyph unicode="&#x2008;" horiz-adv-x="255" />
<glyph unicode="&#x2009;" horiz-adv-x="408" />
<glyph unicode="&#x200a;" horiz-adv-x="113" />
<glyph unicode="&#x2010;" horiz-adv-x="1022" d="M170 518v154h680v-154h-680z" />
<glyph unicode="&#x2011;" horiz-adv-x="1022" d="M170 518v154h680v-154h-680z" />
<glyph unicode="&#x2012;" horiz-adv-x="1022" d="M170 518v154h680v-154h-680z" />
<glyph unicode="&#x2013;" d="M170 519v152h850v-152h-850z" />
<glyph unicode="&#x2014;" horiz-adv-x="1880" d="M170 519v152h1530v-152h-1530z" />
<glyph unicode="&#x2018;" horiz-adv-x="512" d="M109 1020v122q0 194 75 286q84 102 274 102v-160q-126 0 -148 -130q-8 -42 -8 -98v-122h-193z" />
<glyph unicode="&#x2019;" horiz-adv-x="512" d="M109 1020v160q126 0 148 130q8 42 8 98v122h193v-122q0 -194 -75 -286q-84 -102 -274 -102z" />
<glyph unicode="&#x201a;" horiz-adv-x="512" d="M15 -181q126 0 148 130q8 42 8 98v122h193v-122q0 -194 -75 -286q-84 -102 -274 -102v160z" />
<glyph unicode="&#x201c;" horiz-adv-x="1023" d="M170 1020v122q0 194 75 286q84 102 274 102v-160q-126 0 -148 -130q-8 -42 -8 -98v-122h-193zM585 1020v122q0 194 75 286q84 102 274 102v-160q-126 0 -148 -130q-8 -42 -8 -98v-122h-193z" />
<glyph unicode="&#x201d;" horiz-adv-x="1024" d="M86 1020v160q126 0 148 130q8 42 8 98v122h193v-122q0 -194 -75 -286q-84 -102 -274 -102zM501 1020v160q126 0 148 130q8 42 8 98v122h193v-122q0 -194 -75 -286q-84 -102 -274 -102z" />
<glyph unicode="&#x201e;" horiz-adv-x="1024" d="M86 -180q126 0 148 130q8 42 8 98v122h193v-122q0 -194 -75 -286q-84 -102 -274 -102v160zM501 -180q126 0 148 130q8 42 8 98v122h193v-122q0 -194 -75 -286q-84 -102 -274 -102v160z" />
<glyph unicode="&#x2022;" horiz-adv-x="853" d="M120 647q0 126 90 217q88 90 215 90q128 0 217 -90q90 -92 90 -217q0 -124 -90.5 -214.5t-216.5 -90.5q-125 0 -215 90t-90 215z" />
<glyph unicode="&#x2026;" horiz-adv-x="1533" d="M117 101.5q0 61.5 39.5 94.5t100 33t100.5 -33t40 -94.5t-40 -94t-100.5 -32.5t-100 32.5t-39.5 94zM628 101.5q0 61.5 39.5 94.5t100 33t100.5 -33t40 -94.5t-40 -94t-100.5 -32.5t-100 32.5t-39.5 94zM1139 101.5q0 61.5 39.5 94.5t100 33t100.5 -33t40 -94.5t-40 -94 t-100.5 -32.5t-100 32.5t-39.5 94z" />
<glyph unicode="&#x202f;" horiz-adv-x="408" />
<glyph unicode="&#x2039;" horiz-adv-x="1024" d="M170 475v118l611 402v-196l-429 -266l429 -273v-196z" />
<glyph unicode="&#x203a;" horiz-adv-x="1024" d="M239 64l611 411v118l-611 402v-196l429 -266l-429 -273v-196z" />
<glyph unicode="&#x205f;" horiz-adv-x="510" />
<glyph unicode="&#x20ac;" d="M0 356l65 154h111q-6 48 -6 91.5t3 78.5h-173l65 153h139q66 194 245 299q169 100 393 100q166 0 260 -15v-190q-96 30 -260 30q-327 0 -437 -224h589l-66 -153h-566q-4 -34 -4 -83t8 -87h484l-66 -154h-357q124 -186 441 -186q121 0 189.5 16t84.5 23v-195 q-92 -22 -240.5 -22t-251 22t-187.5 67q-177 94 -249 275h-214z" />
<glyph unicode="&#x2122;" horiz-adv-x="1877" d="M145 1208v152h668v-152h-249v-698h-171v698h-248zM932 510v851h104l295 -370l296 370h104v-851h-172v534l-61 -80l-167 -190l-166 190l-61 80v-534h-172z" />
<glyph unicode="&#x25fc;" horiz-adv-x="1030" d="M0 0v1030h1030v-1030h-1030z" />
<glyph unicode="&#xfb01;" d="M46 879v94l123 60l1 105q0 227 134 307q92 55 260 55q67 0 102 -8v-158q-36 12 -98.5 12t-100 -12t-59.5 -35q-38 -41 -38 -134v-133h650v-1032h-200v879h-450v-879h-200v879h-124zM792 1332.5q0 57.5 36.5 87.5t92.5 30t93.5 -30t37.5 -87.5t-37.5 -88t-93.5 -30.5 t-92.5 30.5t-36.5 88z" />
<glyph unicode="&#xfb02;" horiz-adv-x="1363" d="M46 879v94l124 60v73q0 179 85 272q113 122 392 122q178 0 355 -32l47 -8v-2h1v-1067q0 -198 90 -233q30 -12 64 -12t61 8v-154l-37 -4q-18 -2 -35 -2q-192 0 -277 126q-66 99 -66 270v935q-114 21 -194 21t-132 -11.5t-86 -38.5q-68 -54 -68 -187v-77h250v-153h-250 v-879h-200v879h-124z" />
</font>
</defs>
</svg>
