<?xml version="1.0" standalone="no"?>
<!DOCTYPE svg PUBLIC "-//W3C//DTD SVG 1.1//EN" "http://www.w3.org/Graphics/SVG/1.1/DTD/svg11.dtd" >
<svg xmlns="http://www.w3.org/2000/svg">
<metadata></metadata>
<defs>
<font id="playballregular" horiz-adv-x="919" >
<font-face units-per-em="2048" ascent="1638" descent="-410" />
<missing-glyph horiz-adv-x="614" />
<glyph horiz-adv-x="0" />
<glyph unicode="&#xd;" horiz-adv-x="681" />
<glyph horiz-adv-x="0" />
<glyph horiz-adv-x="0" />
<glyph horiz-adv-x="0" />
<glyph unicode=" "  horiz-adv-x="614" />
<glyph unicode="&#x09;" horiz-adv-x="614" />
<glyph unicode="&#xa0;" horiz-adv-x="614" />
<glyph unicode="!" horiz-adv-x="718" d="M100 68q0 37 44 71.5t102 34.5q84 0 84 -51q0 -7 -4 -23q-23 -4 -67 -47t-58 -69q-100 33 -101 84zM274 459q35 78 146.5 399.5t152.5 431.5q19 49 107 49l119 -8q16 0 22 2q-113 -162 -276.5 -476t-186.5 -382z" />
<glyph unicode="&#x22;" horiz-adv-x="763" d="M109 1014q10 16 159 397q10 25 96.5 24.5t86.5 -20.5q0 -4 -42 -59.5t-126 -180t-101 -159.5q-2 -8 -37.5 -8t-35.5 6zM389 1014q10 14 160 397q10 25 97 25t87 -23q0 -2 -42 -56t-125 -179t-101 -162q-6 -8 -41 -8t-35 6z" />
<glyph unicode="#" horiz-adv-x="1599" d="M125 401.5q0 10.5 38 66.5t56 56h242l117 301h-306q-2 0 -2 10.5t38 66.5t59 56h262l108 281q0 2 2 2q12 0 50 -54t38 -79v-4l-55 -146h322l108 281q0 2 2 2q10 0 49 -54t39 -79v-4l-57 -146h297q2 0 2 -10t-38 -66.5t-58 -56.5h-254l-117 -301h317q2 0 2 -10 t-37.5 -66.5t-58.5 -56.5h-274l-144 -373l-2 -2q-12 0 -51 54.5t-38 68t1 15.5l92 237h-323l-143 -373l-2 -2q-13 0 -52 54.5t-38 68t1 15.5l93 237h-283q-2 0 -2 10.5zM604 524h322l114 301h-321z" />
<glyph unicode="$" horiz-adv-x="931" d="M92 371.5q0 72.5 38 129t101 56.5q14 0 23 -2q-45 -33 -45 -82t30.5 -93t92.5 -65l151 396q-152 135 -151.5 240.5t93.5 189.5t259 90l78 201q4 6 47 6t43 -15v-2l-76 -196q98 -19 135 -80q14 -23 14.5 -58.5t-21 -62.5t-62.5 -27h-13q0 76 -92 127l-114 -301l39 -26 q174 -121 174 -258.5t-132.5 -252t-324.5 -114.5h-8l-113 -291q-2 -6 -46 -6t-44 16l113 291q-84 18 -136.5 67.5t-52.5 122zM422 307q109 6 176.5 62.5t67.5 129.5t-76 128l-35 24zM487.5 1008.5q0.5 -66.5 63.5 -125.5l102 268h-16q-61 0 -105.5 -38t-44 -104.5z" />
<glyph unicode="%" horiz-adv-x="1372" d="M176 987q0 150 92 278t236 128q92 0 148.5 -70t125 -70t138 44t106.5 106q20 35 94 35t74 -41q0 -5 -8 -21q-63 -94 -174 -178l-680 -1198q-4 -10 -59.5 -10t-55.5 8v2l672 1178q-29 -8 -58 -9q-84 0 -135 52q2 -16 2 -54q0 -145 -91 -277t-238 -132q-94 0 -141.5 64.5 t-47.5 164.5zM326 995q0 -59 22.5 -94t66.5 -35t90 51.5t70.5 124t24.5 134.5q0 127 -86 127q-70 0 -129 -98.5t-59 -209.5zM692 221q0 150 92.5 278t235.5 128q98 0 145 -64.5t47 -163.5q0 -51 -12 -100q-31 -125 -116 -217t-191.5 -92t-153.5 64.5t-47 166.5zM842 219 q0 -119 84 -119q49 0 96 51.5t70.5 123t23.5 133.5q0 127 -86 127q-70 0 -129 -98.5t-59 -217.5z" />
<glyph unicode="&#x26;" horiz-adv-x="1615" d="M27 240q0 209 172 356t393 158q-74 37 -116 98t-42 131q0 125 90 220t212 137t241 42t197.5 -58t78.5 -139t-53 -133.5t-117 -52.5q-27 0 -39 11q92 51 93 147q0 121 -162 121t-274.5 -104.5t-112.5 -221.5q0 -86 53 -131t119 -49h41q55 0 55 -22q0 -16 -21.5 -36 t-41.5 -20l-91 15q-186 0 -317 -142.5t-131 -285.5q0 -113 73.5 -189t207.5 -76q219 0 350 117t131 244t-113 127q-35 0 -61.5 -43t-28.5 -76q-33 39 -33 89t56.5 101.5t146.5 79.5l309 95q207 61 234 124q6 -12 6 -38q0 -90 -61.5 -139.5t-143.5 -63.5q-293 -51 -389 -101 q45 12 70 13q72 0 111.5 -45t39.5 -109q0 -139 -117.5 -248.5t-266 -159t-253 -49.5t-181.5 14.5t-150.5 47.5t-118.5 95.5t-45 148.5z" />
<glyph unicode="'" horiz-adv-x="292" d="M193 934q125 186 157 401q2 27 88 27t86 -27v-4q-57 -133 -154.5 -269t-148.5 -136q-14 0 -28 8z" />
<glyph unicode="(" horiz-adv-x="1269" d="M102 199q0 199 101.5 411.5t263.5 383.5t371.5 294t414.5 158l-16 -55q-240 -59 -458 -237.5t-354 -425.5t-136 -496.5t194 -249.5q35 0 68 4l-14 -62q-86 -33 -203 -33t-174.5 88.5t-57.5 219.5z" />
<glyph unicode=")" horiz-adv-x="1175" d="M2 -106l16 55q369 94 658 439t289 716q0 254 -193 254q-39 0 -67 -4l14 61q86 33 202.5 33t174 -89t57.5 -218q0 -346 -270 -686q-176 -221 -411.5 -372t-469.5 -189z" />
<glyph unicode="*" horiz-adv-x="1335" d="M16 641l551 197l2 8l-430 201l142 151l340 -295l12 4l90 498h184l-209 -498l9 -4l518 297l49 -151l-551 -203l-2 -6l430 -197l-141 -154l-338 293l-15 -6l-88 -491h-186l209 491l-8 6l-518 -293z" />
<glyph unicode="+" horiz-adv-x="1478" d="M92 639q0 18 51 74.5t78 56.5l488 -16q113 281 157 422q6 25 84 53t98.5 28t20.5 -2v-2q-199 -438 -225 -499q463 4 590 10q2 0 2 -4q0 -18 -51.5 -73.5t-77.5 -55.5l-508 18q-57 -117 -115.5 -272.5t-75.5 -224.5q-6 -25 -85 -53.5t-99.5 -28.5t-20.5 2v2 q104 193 265 577q-385 0 -480.5 -7t-95.5 -5z" />
<glyph unicode="," horiz-adv-x="555" d="M172 -266q125 186 158 401q2 27 88 27t86 -27v-4q-57 -133 -154.5 -269t-148.5 -136q-14 0 -29 8z" />
<glyph unicode="-" horiz-adv-x="1003" d="M313 467q0 10 39.5 66.5t57.5 56.5h571q2 0 2 -10.5t-38 -66.5t-58 -56h-572q-2 0 -2 10z" />
<glyph unicode="." horiz-adv-x="555" d="M229 68q0 37 44 71.5t102 34.5q84 0 84 -51q0 -7 -4 -23q-23 -4 -67 -47t-58 -69q-100 33 -101 84z" />
<glyph unicode="/" horiz-adv-x="931" d="M143 -109l1139 1541q6 6 56.5 6t50.5 -15v-2l-1139 -1540q-4 -6 -55.5 -6t-51.5 14v2z" />
<glyph unicode="0" horiz-adv-x="1249" d="M51 438q0 266 146 529q158 283 397 395q133 61 278 61q195 0 292.5 -126t97.5 -326q0 -134 -41 -275q-86 -293 -299 -507t-490 -214q-190 0 -285.5 129t-95.5 334zM266 463q0 -184 65.5 -286.5t205 -102.5t267.5 148.5t195.5 356t67.5 377.5t-67.5 274.5t-205 104.5 t-263 -141t-195.5 -344t-70 -387z" />
<glyph unicode="1" horiz-adv-x="714" d="M49 0q66 147 389 1008l107 286l-291 -270h-72l359 426h258q-111 -256 -292 -777t-210 -673h-248z" />
<glyph unicode="2" horiz-adv-x="1163" d="M61 53q0 201 222 391q102 88 213 170q305 225 434 392q76 98 76 192t-52.5 147.5t-160 53.5t-210 -105.5t-102.5 -220.5q0 -33 8 -57q-47 -33 -89 -33t-67.5 30.5t-25.5 86.5q0 98 57.5 173t143.5 116q172 78 336 77q104 0 186 -23.5t142.5 -91t60.5 -173.5q0 -17 -4 -58 q-43 -270 -438 -473q-137 -70 -215 -110.5t-196 -122.5t-149 -140h19q78 0 185.5 -35.5t247.5 -58t198 -22.5q203 0 204 149h56q-4 -143 -92 -242.5t-240 -99.5t-252 76q-23 23 -85 63.5t-85 51.5q-59 31 -99 30.5t-60.5 -33t-22.5 -72.5t-21.5 -73t-52.5 -33q-70 0 -70 78z " />
<glyph unicode="3" horiz-adv-x="1228" d="M41 262q0 94 53 165t135 71q39 0 80 -21q-78 -113 -78 -217t78 -162.5t201 -58.5q158 0 269.5 110.5t111.5 254t-87 234.5t-218 91q-78 0 -160 -37q-12 -6 -29.5 -6t-31 17.5t-13.5 46t29 52t97.5 23.5t144.5 -34q154 39 255 152.5t101 254.5q0 94 -57.5 154.5t-178 60.5 t-210 -95t-89.5 -218q0 -39 13 -80q-27 -10 -58.5 -10t-61.5 36.5t-30 100.5q0 104 82 180q152 141 410 141q416 0 415 -284q0 -125 -111 -239t-306 -167q164 -27 250 -120t86 -222t-100.5 -240.5t-247 -167t-283.5 -55.5t-232.5 28t-162 97.5t-66.5 163.5z" />
<glyph unicode="4" horiz-adv-x="1406" d="M8 489q0 92 88 138l961 823h254q-150 -354 -316 -856q281 20 281 170q0 35 -19 59q23 16 56 16.5t60.5 -41.5t27.5 -85q0 -84 -74 -162q-102 -106 -305 -107q-35 0 -76 7q-94 -293 -133 -451h-244q49 111 185 477q-61 14 -162 43q-225 68 -309 68t-121 -29t-39 -63 q-2 -92 -60 -93q-23 0 -39 23t-16 63zM256 655q152 -8 273.5 -29.5t269.5 -27.5l280 752z" />
<glyph unicode="5" horiz-adv-x="1193" d="M29 313q0 96 56 174t144 78q51 0 93 -28q-92 -100 -92.5 -234.5t75.5 -196t195 -61.5q156 0 269.5 131t113.5 308.5t-110.5 280.5t-272.5 103q-43 0 -123 -20.5t-103.5 -20.5t-23.5 23q0 43 262 600h389q55 0 135 4l82 6q55 0 77 -12t22 -62.5t-46 -152.5l-57 -148h-41 l10 35q25 63 -2 117q-14 35 -90 61q-47 18 -254 19h-10h-164q-131 -281 -182 -404q129 41 240 41q229 0 370.5 -118.5t141.5 -294.5q0 -141 -62.5 -253t-165.5 -175q-209 -129 -452 -129q-178 0 -301 83t-123 246z" />
<glyph unicode="6" horiz-adv-x="1193" d="M63 388q0 185 61.5 370.5t166 342t262.5 258t310.5 101.5t247.5 -63.5t95 -192.5q0 -86 -43 -112.5t-76 -26.5q-59 0 -88 68q53 35 53.5 106.5t-44.5 106t-121 34.5q-160 0 -307.5 -160.5t-237.5 -416.5q160 131 395 131q178 0 279.5 -99.5t101.5 -261.5 q0 -276 -190.5 -430.5t-434 -154.5t-337 107.5t-93.5 292.5zM270 358q0 -131 59.5 -216t174.5 -85q170 0 283.5 149.5t113.5 328.5q0 137 -69.5 224t-196.5 87q-180 -8 -272.5 -147.5t-92.5 -340.5z" />
<glyph unicode="7" horiz-adv-x="1103" d="M104 1026q0 4 6.5 18.5t15.5 51.5t19 86q41 199 76 238.5t117 39.5l227 -10h518q31 0 31 -45t-38 -94t-153.5 -194.5t-185.5 -235.5q-207 -268 -286.5 -413.5t-79.5 -238.5q0 -41 20.5 -70.5t52 -29.5t52.5 6q-18 -82 -79 -120t-132.5 -38t-125 48.5t-53.5 138.5 t60.5 203.5t150 215t194.5 208t194 192.5q211 199 210 287q0 8 -4 28h-434q-104 0 -165.5 -29.5t-81 -71.5t-28.5 -84t-24.5 -71.5t-44.5 -28.5t-29 13z" />
<glyph unicode="8" horiz-adv-x="1202" d="M8 330.5q0 154.5 123 284.5t324 196q-150 100 -150 252q0 178 141.5 295t384.5 117q182 0 291 -81t109 -214q0 -250 -330 -373q205 -117 205 -320.5t-197.5 -356.5t-451.5 -153q-193 0 -321 99.5t-128 254zM211 313q0 -104 81 -172.5t226.5 -68.5t272.5 92t127 262 q0 123 -107 188q-77 47 -229 88q-371 -147 -371 -389zM483 1165q0 -92 93.5 -177t214.5 -114q291 111 299 297q0 95 -85 162.5t-203 67.5t-218.5 -72t-100.5 -164z" />
<glyph unicode="9" horiz-adv-x="1257" d="M41 219q0 68 41 123t111 55q39 0 75 -18q-41 -59 -41 -157.5t50.5 -140.5t131 -42t160.5 45q143 80 224 205t165 346q-162 -117 -357 -117t-316 116t-121 298q0 250 165 390t408 140q483 0 484 -444q0 -188 -75 -401.5t-190 -358.5q-227 -285 -587 -285q-328 0 -328 246z M377 961.5q0 -154.5 80 -256t207 -101.5t205.5 63.5t109.5 159t31 232.5t-72 233.5t-215 95t-244.5 -136.5t-101.5 -289.5z" />
<glyph unicode=":" horiz-adv-x="581" d="M229 68q0 37 44 71.5t102 34.5q84 0 84 -51q0 -7 -4 -23q-23 -4 -67 -47t-58 -69q-100 33 -101 84zM442 692q0 37 44 72t102 35q84 0 84 -51q0 -7 -4 -23q-23 -4 -67 -47t-58 -70q-100 33 -101 84z" />
<glyph unicode=";" horiz-adv-x="700" d="M172 -266q125 186 158 401q2 27 88 27t86 -27v-4q-57 -133 -154.5 -269t-148.5 -136q-14 0 -29 8zM498 657q0 37 44 72t101 35q84 0 84 -51q0 -7 -4 -23q-23 -4 -67 -47t-58 -70q-100 33 -100 84z" />
<glyph unicode="&#x3c;" horiz-adv-x="980" d="M53 583.5q0 22.5 62 57.5q424 240 821 541q2 2 6 2t4 -21.5t-31 -64.5q-57 -68 -288.5 -232t-372.5 -250q385 -274 487 -452q2 -4 2 -12q0 -29 -47 -69t-71 -40q-4 0 -7 2q-270 305 -514 481q-51 35 -51 57.5z" />
<glyph unicode="=" horiz-adv-x="1087" d="M197 379q0 10 35 59t55 49h653q2 0 2 -10t-36 -59t-54 -49h-653q-2 0 -2 10zM307 762q0 10 35 59t55 49h654q2 0 2 -10t-36 -59t-54 -49h-654q-2 0 -2 10z" />
<glyph unicode="&#x3e;" horiz-adv-x="980" d="M164 51q0 43 33 76q55 68 281.5 227.5t379.5 255.5q-141 98 -285.5 226.5t-201.5 226.5q-4 8 -4 12q0 29 48 69t72 40q4 0 7 -2q270 -306 514 -482q51 -35 51 -58.5t-62 -57.5q-434 -246 -821 -539q-4 -4 -8 -4t-4 10z" />
<glyph unicode="?" horiz-adv-x="1128" d="M174 68q0 37 44 71.5t101 34.5q84 0 84 -51q0 -7 -4 -23q-23 -4 -66.5 -47t-58.5 -69q-100 33 -100 84zM299 1114q0 92 82 156q143 113 369 112q385 0 385 -243q0 -141 -89.5 -213t-238.5 -133q-154 -68 -232 -115q-143 -93 -143 -197l2 -28q0 -25 -25.5 -42.5 t-52.5 -17.5q-47 0 -47 56q0 111 133 210l50 33q266 170 364 309q45 66 45 137.5t-48 123t-128 51.5q-57 0 -152 -51q-47 -27 -81.5 -80.5t-34.5 -105.5t14 -81q-29 -16 -66.5 -16t-71.5 37t-34 98z" />
<glyph unicode="@" horiz-adv-x="1878" d="M180 502q0 166 63.5 324.5t177.5 286.5t288 206t376 78q322 0 514.5 -172t192.5 -428q0 -207 -129 -408q-61 -94 -179 -157.5t-222.5 -63.5t-164 55.5t-59.5 169.5q0 70 25 162q-193 -305 -342 -305q-59 0 -101 51t-42 137q0 223 139 421t340 198q68 0 105.5 -32 t66.5 -116q35 70 64.5 94.5t97.5 24.5h114q-109 -86 -207 -325.5t-98 -350.5q0 -133 98 -133q145 0 248 181.5t103 375.5q0 242 -145.5 411t-411.5 169q-213 0 -388.5 -121t-269.5 -308.5t-94 -367.5t51 -301t137 -188q172 -135 403.5 -135.5t458 115.5t312.5 257 q6 12 14 12t8 -34q0 -90 -60 -165t-150.5 -120t-204.5 -78q-203 -55 -402 -55q-324 0 -525.5 156.5t-201.5 478.5zM760 522q0 -61 20.5 -96t50.5 -35q66 0 171.5 141.5t173.5 272.5l45 88q-6 41 -42 63.5t-83 22.5q-147 0 -241.5 -152.5t-94.5 -304.5z" />
<glyph unicode="A" horiz-adv-x="1536" d="M25 0q193 176 598 578q522 520 686 720q41 49 61.5 68.5t62.5 41.5t89 22h147q-94 -90 -191.5 -492.5t-97.5 -622.5q0 -156 58 -215q25 -27 60 -27l2 1q36 0 77 26l12 -18q-29 -41 -102.5 -70.5t-145.5 -29.5q-106 0 -145 75.5t-45 202.5q0 104 27 270h-469 q-305 -324 -480 -530h-204zM461 1164q0 266 497 266h459q-51 -51 -178 -78t-286.5 -42.5t-209.5 -25.5q-219 -51 -219 -262q-63 66 -63 142zM799 633h393q37 203 119 508q-233 -219 -512 -508z" />
<glyph unicode="B" horiz-adv-x="1187" d="M-61 1133.5q0 11.5 2 15.5q78 213 284 260q94 20 252 21h404q186 0 281 -80t95 -201v-27q-23 -219 -274 -327q-59 -25 -121 -37q319 -59 320 -303q0 -207 -220.5 -348.5t-545.5 -141.5q-160 0 -266.5 50.5t-106.5 166.5q0 143 151.5 499.5t280.5 608.5q20 41 31 58 l-74 -11q-160 -23 -294 -76t-181 -133q-2 -6 -10 -6t-8 11.5zM262 171q0 -79 45 -102.5t150 -23.5q195 0 340 105.5t145 314.5q0 102 -50 176t-147 86q-127 -35 -245 -35q-35 0 -35 15q0 47 63.5 64t121 17t112.5 -8q133 41 207.5 147.5t74.5 221.5v27q-18 180 -284 192 q-96 -125 -254 -469t-201 -496.5t-43 -231.5z" />
<glyph unicode="C" horiz-adv-x="1392" d="M109 387q0 170 75.5 355.5t204.5 344t322.5 261t382 102.5t289 -64.5t100.5 -164.5q-1 -37 -17 -82q-33 -84 -122 -141.5t-185 -57.5q-45 0 -73.5 19.5t-28.5 50t24 65.5q23 -8 52 -8q80 0 147.5 55.5t67.5 132.5q0 119 -158 119q-209 0 -407.5 -143.5t-320.5 -371.5 t-122 -464q0 -364 330 -364h2q207 0 438 159.5t307 346.5q39 -27 39 -72q0 -92 -131 -228.5t-329.5 -217t-405.5 -80.5q-481 0 -481 448z" />
<glyph unicode="D" horiz-adv-x="1454" d="M-41 1133.5q0 11.5 2 15.5q78 213 285 260q94 20 252 21h420q291 0 432 -158t141 -402q0 -59 -10 -137q-39 -242 -182.5 -420t-348.5 -266t-444 -88q-444 0 -445 227q0 246 435 1104q20 41 30 58q-162 -12 -329.5 -71.5t-219.5 -148.5q-2 -6 -10 -6t-8 11.5zM283 175 q0 -79 41 -103.5t145 -24.5q285 0 508 191.5t289 478.5q22 90 22 173v7q0 199 -117 330q-66 72 -179 105.5t-212 33.5q-98 -129 -234 -425t-220 -558q-43 -129 -43 -208z" />
<glyph unicode="E" horiz-adv-x="1167" d="M-41 1133.5q0 11.5 2 15.5q78 213 285 260q94 20 252 21h405l223 10q63 0 70.5 -25.5t7.5 -38.5q0 -72 -50 -181.5t-71.5 -109.5t-21.5 17l16 123q0 63 -51 100t-123 37t-106.5 -10.5t-55.5 -42.5q-150 -223 -272 -508h535l2 -2q0 -14 -29 -56.5t-47 -42.5h-506 q-55 -135 -108.5 -303t-53.5 -222t33 -79.5t111 -25.5q598 0 708 233q4 6 15.5 6t11.5 -12t-4 -33q-57 -178 -170 -225q-59 -25 -111.5 -32t-134.5 -7h-619q-63 0 -63 96q0 166 182 604h-112q-16 0 -17 11q0 20 39 55t64 35h69q188 453 273 551q-193 -25 -351.5 -82.5 t-208.5 -141.5q-2 -6 -10 -6t-8 11.5z" />
<glyph unicode="F" horiz-adv-x="778" d="M20 1133.5q0 11.5 3 15.5q78 213 284 260q94 20 252 21h406l223 10q63 0 70.5 -25.5t7.5 -38.5q0 -72 -50.5 -181.5t-72 -109.5t-21.5 17l17 123q0 61 -58.5 99t-130 38t-105.5 -10.5t-57 -42.5q-96 -137 -253 -508h454l2 -2q0 -14 -28.5 -56.5t-47.5 -42.5h-423 q-199 -483 -199 -655q0 -31 8 -45h-264q55 233 246 700h-113q-16 0 -16 11q0 20 38.5 55t63.5 35h70q174 412 268 551q-463 -66 -555 -224q-2 -6 -10.5 -6t-8.5 11.5z" />
<glyph unicode="G" horiz-adv-x="1515" d="M104 401q0 172 80 357.5t212 339t324.5 253t377 99.5t285 -64.5t100.5 -170t-100.5 -190.5t-223.5 -85q-45 0 -73.5 19.5t-28.5 50t24 65.5q23 -8 52 -8q80 0 147.5 55.5t67.5 132.5q0 119 -155 119t-308.5 -93t-268 -237.5t-187.5 -329t-73 -360.5t90.5 -260t239.5 -84 q215 0 405.5 132t223.5 339q-367 0 -441 -10q10 18 25.5 47t55.5 76t67 47h600q-14 -74 -49 -108.5t-94 -45.5q-209 -565 -817 -565q-268 0 -413 126t-145 353z" />
<glyph unicode="H" horiz-adv-x="1392" d="M90 1145q0 4 4 20q39 113 113 174.5t144.5 76t174.5 14.5h463q-139 -106 -371 -629h580q193 451 272 567q14 23 53.5 42.5t100.5 19.5h131q-102 -80 -256 -410q-276 -588 -276 -825q0 -121 75 -121q33 0 80 26h2q6 0 6 -12q0 -39 -103 -72.5t-167 -33.5q-125 0 -125 133 q0 174 166 585h-579q-68 -158 -135.5 -357.5t-67.5 -297.5q0 -31 8 -45h-264q57 248 241 688q246 586 318 666q-174 -4 -353.5 -70.5t-207.5 -159.5q-2 -6 -8 -6q-18 0 -19 27z" />
<glyph unicode="I" horiz-adv-x="573" d="M49 1145q0 4 4 20q39 113 113 174.5t144.5 76t174.5 14.5h463q-141 -109 -389 -672q-63 -143 -144 -375.5t-81 -339.5q0 -29 8 -43h-264q57 248 241 688q246 586 318 666q-174 -4 -353.5 -70.5t-207.5 -159.5q-2 -6 -8 -6q-18 0 -19 27z" />
<glyph unicode="J" horiz-adv-x="798" d="M-174 -150q0 43 22.5 90.5t71.5 53.5l-2 -12q0 -57 29.5 -85t72.5 -28q248 0 603 876q6 16 27.5 69.5t76.5 164.5t136 222.5t143 133.5q-59 16 -211 17h-2q-151 0 -337 -66q-188 -65 -218 -162q-4 -6 -9 -6q-18 0 -18 27q0 4 4 20q39 113 112.5 174.5t144.5 76t175 14.5 h96l461 -3q-121 -92 -168 -141t-98 -150.5t-96 -226.5t-76 -221t-56.5 -172t-69.5 -188.5t-86 -198.5t-101.5 -180t-120.5 -156q-137 -141 -293 -141q-96 0 -154.5 54t-58.5 144z" />
<glyph unicode="K" horiz-adv-x="1310" d="M80 1145q0 4 16.5 55t62.5 106.5t107 82.5q100 41 250 41h463q-102 -78 -241.5 -344.5t-227.5 -487.5q84 119 224 263.5t301 276.5t332 220t299 88t128 -29q0 -10 -10 -10q-131 0 -431 -188.5t-538 -403.5q68 -225 244 -475t307 -336q-31 -6 -98 -6l-174 6 q-57 0 -153.5 132t-171.5 294t-91 256q-117 -117 -197 -231q-33 -47 -77 -187.5t-44 -197t9 -70.5h-265q66 252 231 685t296 620q0 2 35 49q-174 -4 -353.5 -70.5t-208.5 -159.5q-2 -6 -8 -6q-16 0 -16 27z" />
<glyph unicode="L" horiz-adv-x="1167" d="M-20 1145q0 4 17 55t64.5 106.5t106.5 82.5q100 41 248 41h465q-84 -63 -216.5 -301t-258 -521.5t-125.5 -404.5q0 -133 145 -133q594 0 709 233q4 6 10 6q14 0 14 -20q0 -5 -4 -25q-57 -178 -168 -225q-59 -25 -111.5 -32t-134.5 -7h-620q-82 0 -82 115q0 293 489 1175 q37 59 39 64q-174 -4 -353 -70.5t-208 -159.5q-2 -6 -8 -6q-18 0 -18 27z" />
<glyph unicode="M" horiz-adv-x="1720" d="M78 0q117 299 334 788.5t264 581.5q-186 0 -363.5 -73.5t-208.5 -172.5q-2 -6 -8 -6q-16 0 -16 27q0 4 16.5 55t62.5 106.5t107 82.5q100 41 248 41h260q61 0 97 -20.5t50.5 -97.5t28 -354.5t13.5 -390t-5 -153.5q293 367 758 919q82 97 262 97h127q-92 -72 -278 -443 q-276 -557 -277 -801q0 -112 71 -112h1q33 0 80 26h2q6 0 6 -10q0 -39 -103.5 -73.5t-168.5 -34.5q-137 0 -138 149q0 260 418 1051q-82 -78 -110 -111q-197 -219 -586 -725q-82 -104 -112.5 -131t-81 -27t-115.5 31q51 66 51 398.5t-41 605.5q-74 -137 -266.5 -610.5 t-192.5 -594.5q0 -14 2 -18h-188z" />
<glyph unicode="N" horiz-adv-x="1310" d="M78 0q117 299 334 788.5t264 581.5q-186 0 -363.5 -73.5t-208.5 -172.5q-2 -6 -8 -6q-16 0 -16 27q0 4 16.5 55t62.5 106.5t107 82.5q100 41 248 41h346q-29 -47 -29 -115q0 -152 117 -426q106 -256 126 -326.5t25 -93.5t7 -53.5t4 -38.5q27 66 457 1053q4 10 37.5 10 t89 -6.5t63.5 -6.5q-82 -53 -230.5 -343.5t-264 -607t-115.5 -439.5q0 -27 4 -37h-129q-6 119 -42 208t-54.5 133t-63.5 146.5t-80 184.5q-106 248 -120 422q-135 -301 -266.5 -637t-131.5 -439q0 -14 2 -18h-188z" />
<glyph unicode="O" horiz-adv-x="1562" d="M129 383q0 203 85 398.5t224.5 342t329.5 236.5t389 90q260 0 390 -128t130 -319.5t-84 -381.5q-135 -307 -386 -497t-570 -190q-508 0 -508 449zM369 381q0 -162 71.5 -262.5t228 -100.5t314.5 94.5t270.5 241t183 325.5t70.5 343q0 334 -299 334q-217 0 -414.5 -149.5 t-311 -375t-113.5 -450.5z" />
<glyph unicode="P" horiz-adv-x="1003" d="M29 1145q0 4 4 20q39 113 112.5 174.5t144 76t175.5 14.5h518q186 0 281.5 -80t95.5 -201v-27q-12 -135 -86 -236.5t-189 -156.5q-219 -111 -507 -111q-51 0 -95 7q-170 -430 -170 -580q0 -31 9 -45h-265q57 248 242 688q246 586 317 666q-174 -4 -353 -70.5t-208 -159.5 q-2 -6 -8 -6q-18 0 -18 27zM496 657h24q148 0 294.5 51.5t240.5 157t94 250.5q0 233 -283 252q-135 -168 -327 -610z" />
<glyph unicode="Q" horiz-adv-x="1562" d="M170 383q0 203 85 398.5t224 342t329.5 236.5t389.5 90q262 0 391 -128t129 -319.5t-84 -381.5q-164 -371 -471 -553q16 -37 36 -124t36 -155t54 -122t86 -54t81 33q16 -33 17 -62q0 -68 -58.5 -112.5t-136.5 -44.5t-130 37.5t-75.5 108.5t-34 134.5t-17.5 155.5t-13 131 q-156 -59 -330 -60q-508 0 -508 449zM416 370.5q0 -159.5 70.5 -255t214 -95.5t284.5 70q-20 55 -57 84t-76 29l-55 -8q-18 0 -19 12q0 27 40 40t83 13q115 0 201 -96q199 150 322.5 392.5t123.5 465.5q0 334 -286 334q-160 0 -318 -92.5t-272.5 -235.5t-185 -320.5 t-70.5 -337z" />
<glyph unicode="R" horiz-adv-x="1249" d="M8 1145q0 4 4 20q39 113 113 174.5t144.5 76t174.5 14.5h498q188 0 283.5 -79t95.5 -200t-72 -213q-127 -168 -391 -217l-65 -12q102 -356 430 -705q-31 -6 -95 -6l-157 6q-82 0 -173 161t-144.5 327.5t-53.5 222.5q0 31 29 33q481 59 495 376q0 113 -66.5 174.5 t-217.5 69.5q-160 -215 -355 -688q-192 -479 -192 -633q0 -33 8 -47h-264q57 248 242 688q246 586 317 666q-174 -4 -353.5 -70.5t-207.5 -159.5q-2 -6 -8 -6q-18 0 -19 27z" />
<glyph unicode="S" horiz-adv-x="1071" d="M106 213q0 72 47.5 131t134.5 59t118 -61q-72 -57 -72 -138t54 -125t142 -44q123 0 216.5 88t93.5 222t-176 321q-2 4 -72 76.5t-116 148.5t-46 180q0 178 139.5 286.5t328.5 108.5t271 -61.5t82 -148.5t-58 -161.5t-162.5 -74.5t-104.5 88q0 8 4 33q55 0 96 43t41 94 t-49 84t-119 33q-119 0 -196.5 -72t-77.5 -168q0 -51 36.5 -112.5t70.5 -97.5t111 -106.5t91 -84.5q156 -156 156 -339.5t-166 -319.5t-398 -136q-188 0 -304 61.5t-116 192.5z" />
<glyph unicode="T" horiz-adv-x="819" d="M0 1114q0 96 45 164t123 102q147 66 325.5 66t403.5 -21.5t409.5 -21.5t239.5 57q6 -14 6 -28q0 -68 -86 -108t-227 -40l-289 12q-20 0 -135 -244.5t-199 -474t-84 -331t65 -101.5t163 134q10 12 20.5 12t10.5 -18.5t-28 -67.5t-73 -105.5t-116.5 -100.5t-147.5 -44 q-113 0 -113 156q0 193 195 655q139 326 256 541h-27l-211 4q-176 0 -307 -45q-72 -25 -114 -73t-42 -116l17 -86q0 -20 -21 -20q-27 0 -43 52t-16 91z" />
<glyph unicode="U" horiz-adv-x="1454" d="M82 1145q0 4 17.5 55t64.5 106.5t106 82.5q100 41 248 41h465q-94 -72 -232.5 -332t-218.5 -459q-113 -259 -113 -391q0 -133 105 -133q88 0 227.5 126t274.5 308q266 362 374.5 564t168 259.5t131.5 57.5h127q-96 -74 -281 -443q-276 -557 -276 -801q0 -112 70 -112h1 q35 0 82 26h2q6 0 7 -12q0 -39 -102.5 -71.5t-166.5 -32.5q-131 0 -131 151q0 76 53.5 243t135.5 345q-305 -455 -455 -588q-165 -149 -305 -149h-2q-236 0 -236 227q0 168 124 478t284 599q37 59 39 64q-174 -4 -353.5 -70.5t-207.5 -159.5q-2 -6 -9 -6q-18 0 -18 27z" />
<glyph unicode="V" horiz-adv-x="921" d="M82 1208v2q25 76 114 161t152 85q100 0 133 -163t33 -473t-25 -593q162 227 392.5 629t306.5 574h184q-68 -111 -391.5 -606.5t-368.5 -566.5t-65.5 -102.5t-29.5 -47t-28.5 -40t-33.5 -36.5q-39 -31 -82 -31h-131q33 63 39 144t9 171.5t8 195.5t5 216q0 543 -123 543 q-43 0 -88 -72l-2 -2q-8 0 -8 12z" />
<glyph unicode="W" horiz-adv-x="2048" d="M20 1159q0 270 521 271h420q4 0 4 -7.5t-26 -36t-48 -43.5q-88 -53 -203 -221t-209 -398t-94 -412.5t129 -182.5q145 0 455 459q63 96 145 287.5t115 254t118 127t155.5 64.5t70.5 -21q-109 -147 -205 -399t-96 -481q0 -281 166 -291q106 0 209.5 102.5t174 236.5 t132.5 302q104 281 104 446.5t-108 165.5q-33 0 -74 -14q4 37 50 60.5t121 23.5t140.5 -52.5t71.5 -156.5v-33q0 -207 -125 -471t-307 -465q-98 -106 -230.5 -184t-267.5 -78q-254 0 -254 381q0 139 37 324q-166 -328 -317 -504q-193 -221 -404 -221q-96 0 -158.5 71.5 t-62.5 229.5q0 207 146.5 511t349.5 484q37 35 92 55q-78 -16 -240 -33.5t-215 -29.5q-219 -49 -219 -262q-63 66 -64 141z" />
<glyph unicode="X" horiz-adv-x="1146" d="M0 0q414 379 702 670l-137 534q-23 88 -98.5 88t-155.5 -80q-2 -2 -6 -2q-14 0 -14 17.5t6 23.5q70 68 169 122t169 54t100.5 -30.5t41.5 -64.5t36 -145.5t76 -328.5q262 268 493 533q32 34 124 34h5q20 0 56.5 -1t50.5 -1q-350 -301 -705 -659q121 -455 209 -670 q33 -78 47 -94h-288l-154 573q-270 -285 -506 -573h-221z" />
<glyph unicode="Y" horiz-adv-x="1400" d="M8 1122.5q0 16.5 2 18.5q72 145 152 213.5t202.5 68.5t178 -63.5t112 -255t111.5 -414.5q43 59 229.5 325.5t268.5 373.5q33 43 168 43q23 0 62.5 -1t53.5 -1q-193 -133 -381 -347q-233 -264 -372 -569q-78 -174 -115 -350q-16 -76 -16 -113t8 -51h-264q8 35 80.5 254 t72.5 316.5t-47 261t-126 300t-152 136.5q-92 0 -213 -160q-2 -2 -5 -2q-10 0 -10 16.5z" />
<glyph unicode="Z" horiz-adv-x="1398" d="M0 59q0 61 63 101q258 160 672 554t592 572q-74 -33 -182.5 -57.5t-175 -24.5t-201.5 13.5t-185.5 13.5t-110.5 -52.5t-66 -121.5q0 -12 -21 -13q-14 0 -14 41q0 84 64.5 181.5t125 133.5t157.5 36t261 -37t271.5 -37t187.5 38t131 38t69 -8q-494 -430 -1243 -1168 q57 -29 168 -51q279 -63 438 -64q256 0 256 148q0 39 -28 59q0 4 7 12.5t11 8.5q57 -2 101.5 -43t44.5 -99q0 -98 -101.5 -179t-248 -81t-287 51.5t-247 103.5t-152.5 52t-138 -101.5t-145 -101.5q-33 0 -53.5 24t-20.5 58z" />
<glyph unicode="[" horiz-adv-x="931" d="M27 -158q521 1544 546 1616h498l-33 -98h-313l-481 -1419h313l-33 -99h-497z" />
<glyph unicode="\" horiz-adv-x="931" d="M176 1421q-2 6 39 11.5t85 5.5t48 -6l520 -1541q2 -6 -39 -11t-86 -5t-47 6z" />
<glyph unicode="]" horiz-adv-x="931" d="M27 -158l32 99h314l481 1419h-313l32 98h498l-547 -1616h-497z" />
<glyph unicode="^" horiz-adv-x="1087" d="M332 943q0 3 2 5q242 197 442 414q27 31 40 31t34 -37q71 -153 229 -350v-2q0 -12 -29.5 -36t-50.5 -24q-41 0 -109.5 116t-115.5 220q-102 -102 -247.5 -221t-182.5 -119q-12 0 -12 3z" />
<glyph unicode="_" horiz-adv-x="1552" d="M-96 -327.5q0 10.5 38 66.5t58 56h1552q2 0 2 -10t-38.5 -66.5t-57.5 -56.5h-1552q-2 0 -2 10.5z" />
<glyph unicode="`" horiz-adv-x="1087" d="M670 1266q0 12 41 34.5t57 22.5t25 -4q37 -27 108 -78l117 -88q47 -35 61 -41q0 -6 -20.5 -15.5t-25.5 -9.5t-62 29q-1 0 -146 72q-88 45 -121.5 59.5t-33.5 18.5z" />
<glyph unicode="a" horiz-adv-x="968" d="M57 182q0 143 62.5 291t179.5 251t256 103q66 0 123 -29.5t76 -95.5q23 47 69.5 82t87.5 35l103 -2h20q-68 -55 -166 -279.5t-98 -326.5q0 -53 37 -53q119 0 303 350q8 14 14 14q13 0 13 -40q0 -37 -21 -70q-252 -424 -422 -424q-110 0 -110 167q0 130 43 253 q-233 -414 -432 -414q-137 0 -138 188zM256 227q0 -63 49 -63q53 0 125 66.5t129 156.5q127 201 182 297q-20 66 -96 66q-135 0 -262 -187.5t-127 -335.5z" />
<glyph unicode="b" horiz-adv-x="907" d="M49 126q0 79 25 179q63 270 212.5 636t235.5 388q27 6 97.5 7t85.5 3q-80 -59 -216.5 -348t-205.5 -555q221 391 417 391q140 0 140 -201q0 -199 -168 -405q2 -35 20.5 -55.5t47 -20.5t62.5 26t51 45.5t46 56t68 99t66.5 107.5t31.5 45q12 0 12 -37.5t-12 -58.5l-45 -76 q-100 -166 -164 -221q-70 -63 -135 -63q-86 0 -115 79q-84 -84 -170 -125.5t-192.5 -41.5t-150.5 33.5t-44 112.5zM223 150.5q0 -97.5 60 -97.5q109 0 233.5 210t124.5 331q0 51 -31 59q-6 2 -31.5 2t-96 -53t-165 -203.5t-94.5 -248z" />
<glyph unicode="c" horiz-adv-x="733" d="M70 242q0 215 152.5 394t359.5 179q92 0 147 -48t55 -114.5t-36.5 -116t-83.5 -49.5q-92 0 -93 76q0 25 52 47q20 8 36.5 31t16.5 59q0 53 -58 54q-123 0 -243.5 -178.5t-120.5 -345.5t145 -167q203 0 396 314q39 61 64.5 104t29.5 43q12 0 12 -39t-33.5 -96t-53 -87 t-67 -95.5t-82 -94t-87.5 -67.5q-89 -66 -232 -66q0 1 -2 1q-144 0 -209 72.5t-65 189.5z" />
<glyph unicode="d" horiz-adv-x="974" d="M57 182q0 143 62.5 291t179.5 251t253 103t187 -90q57 113 118 260.5t80 191.5t28.5 64.5t23.5 38.5q23 29 54.5 36t102.5 8t85 3q-68 -49 -177.5 -275t-193.5 -477t-84 -364q0 -66 34 -66l1 1q35 0 87 45t74.5 75.5t60.5 93t65.5 108.5t31.5 46q14 0 15 -39 q-2 -72 -170 -299q-55 -74 -133 -137t-142 -63q-108 0 -108 159q0 122 59 308q-94 -186 -215 -323.5t-241 -137.5q-137 0 -138 188zM256 227q0 -63 49 -63q166 0 424 549q-25 37 -82 37q-92 0 -185 -93.5t-149.5 -215.5t-56.5 -214z" />
<glyph unicode="e" horiz-adv-x="733" d="M70 250q0 209 153.5 387t358.5 178q92 0 147 -48t55 -116q0 -115 -108.5 -184.5t-255.5 -69.5q-86 0 -127 23q-39 -104 -39 -184q0 -172 145 -173q86 0 177.5 67t156 149.5t146.5 238.5q8 14 14 14q12 0 12 -39.5t-32.5 -95t-64.5 -104.5t-85 -114.5t-105 -104.5 q-129 -94 -259 -94t-209.5 66.5t-79.5 203.5zM342 496q0 -41 78 -41t163 75.5t93 163.5q0 59 -58 60q-80 0 -178 -98.5t-98 -159.5z" />
<glyph unicode="f" horiz-adv-x="694" d="M-354 -355.5q0 58.5 26.5 97.5t59 39t49 -15.5t16.5 -33t-21.5 -55t-21.5 -64.5t14.5 -45.5t51.5 -18.5t87 36t97 104q176 260 465 1018h-57q-105 0 -140 -66q-154 -293 -170 -293q-10 0 -10 34t12 58q100 172 152 328q8 27 18.5 36t34.5 9h17l180 -14q12 31 42 112.5 t46 124.5t49 117t59.5 117t69.5 97t86 83q104 70 225 70q213 0 213 -158q0 -59 -33.5 -106.5t-88.5 -47.5q-27 0 -46.5 14.5t-19.5 34t30.5 63.5t30.5 75.5t-25.5 52t-60.5 20.5q-61 0 -122.5 -65.5t-112.5 -171.5q-90 -186 -162 -397q-2 -10 -4 -15q-6 -16 -10 -28 q324 0 368 28q-27 -66 -114.5 -86t-282.5 -24l-59 -172q-127 -365 -197 -501t-132 -234.5t-124 -161.5q-139 -147 -289 -148q-100 0 -148 47t-48 105.5z" />
<glyph unicode="g" horiz-adv-x="892" d="M-78 -354q0 51 32 96t85 45t72 -43q-20 -12 -31.5 -43t-11.5 -58.5t21.5 -46t55.5 -18.5q98 0 178 99.5t136 230.5q14 35 196 541q-242 -455 -454 -455q-139 0 -140 188q0 143 62.5 291t179.5 251t256 103q63 0 121.5 -28.5t75.5 -93.5q31 66 73 90t138 24h82 q-43 -29 -94.5 -125t-87.5 -189t-93 -255q-127 -365 -221 -484.5t-212 -184t-214 -64.5q-205 0 -205 129zM260 225q0 -61 49 -61q53 0 125 66.5t129 156.5q185 285 185 299q-20 66 -97 66q-135 0 -263 -189.5t-128 -337.5z" />
<glyph unicode="h" horiz-adv-x="897" d="M-41 0q55 141 158.5 451.5t177.5 487.5t144.5 299t161.5 204t192.5 82t101.5 -97q0 -68 -55 -178q-119 -233 -398 -540q111 80 175.5 104.5t123.5 24.5q117 0 117 -103q0 -41 -14.5 -75.5t-31.5 -79.5t-28.5 -74t-30 -78t-28.5 -84q-27 -86 -27 -137t35 -51 q123 0 307 356q6 14 16 14q9 0 9 -34q0 -40 -21 -80q-252 -424 -426 -424q-121 0 -120 139q0 162 129 461q29 76 28 104q0 41 -37 41q-25 0 -83 -28.5t-111 -84t-89 -128t-57.5 -126t-44 -130t-40 -125t-35.5 -111.5h-199zM383 723q281 330 383 541q58 130 58 170 q0 39 -27 39q-72 0 -187.5 -227.5t-226.5 -522.5z" />
<glyph unicode="i" horiz-adv-x="444" d="M51 147q0 248 170 549q72 123 160 123l102 -2h21q-33 -25 -87.5 -133.5t-81 -163.5t-60 -149.5t-33.5 -153.5t39 -59q27 0 74.5 35.5t78.5 75.5t69 101.5t65.5 106.5t31.5 45q12 0 12 -38t-20 -72q-76 -127 -138.5 -212t-142.5 -148.5t-145 -63.5q-115 0 -115 159z M465 1056.5q0 53.5 49 108t94 54.5t67.5 -20.5t22.5 -52t-39 -56.5h-8q-41 0 -78.5 -35t-54.5 -72q-53 20 -53 73.5z" />
<glyph unicode="j" horiz-adv-x="440" d="M-610 -356q0 51 31.5 97t86 46t72.5 -43q-20 -12 -31.5 -43t-11.5 -58.5t21.5 -47t58.5 -19.5q172 2 309 330q49 117 127 352q147 436 199 492q49 49 170 49h82q-45 -27 -71.5 -79t-41 -80t-37.5 -87l-35 -90q-39 -102 -69.5 -192.5t-41.5 -121t-41 -102.5t-50.5 -110.5 t-57 -104t-69.5 -102.5t-81 -83t-97 -71q-115 -59 -215 -59q-207 0 -207 127zM465 1056.5q0 53.5 49 108t94 54.5t67.5 -20.5t22.5 -52t-39 -56.5h-8q-41 0 -78.5 -35t-54.5 -72q-53 20 -53 73.5z" />
<glyph unicode="k" horiz-adv-x="841" d="M-59 0q63 119 187 480.5t183 484.5q2 4 25.5 53t33 67.5t36 69.5t43 75.5t45 71t51 71t53.5 58t57 50.5q70 41 127 41q113 0 113 -103q0 -143 -173 -379.5t-390 -447.5l-37 -103q98 127 223 222.5t230 95.5q59 0 92.5 -28.5t33.5 -78.5q0 -113 -99 -181t-228 -89 q18 -213 59 -260q20 -23 51 -23t84.5 37t87 81t71.5 105.5t65.5 106.5t31.5 45q13 0 13 -41q0 -39 -23 -73q-72 -121 -145 -220q-157 -204 -311 -204h-1q-84 0 -126 84t-42 186q0 205 62 205q96 0 178 44t82 115q0 57 -66 58q-141 0 -313 -307q-16 -31 -68.5 -142.5 t-92.5 -169t-78 -57.5h-125zM385 731q262 307 369 518q61 111 61 183q0 36 -29 36q-115 0 -401 -737z" />
<glyph unicode="l" horiz-adv-x="503" d="M63 143q0 154 138 537q10 33 47 137.5t63.5 162.5t71.5 154.5t87 154t93 116.5q100 119 217 119t117 -107q0 -82 -47 -168q-74 -150 -225.5 -339t-272.5 -304l-33 -94q-25 -72 -47 -174q-20 -94 -20 -137v-8q0 -61 45 -61h1q44 0 106 50q62 51 91 89t67 99.5t65.5 106.5 t31.5 45q13 0 13 -40q0 -37 -21 -70q-113 -190 -182 -269q-140 -155 -289 -155h-2q-115 0 -115 155zM393 723q281 330 383 541q58 130 58 170q0 39 -27 39h-14q-125 0 -400 -750z" />
<glyph unicode="m" horiz-adv-x="1361" d="M-45 0q23 86 49 154l133 340q82 205 82 299q0 20 -4 26h86q70 0 90.5 -13t20.5 -35.5t-25 -104.5q179 163 359 163h2q108 0 108 -88q0 -41 -22 -98q186 186 383 186q106 0 106 -90q0 -41 -14.5 -77.5t-37 -95t-36.5 -96.5t-33 -93q-39 -113 -39 -167t34 -54t85 45 t76.5 77.5t63.5 93t64.5 105.5t31.5 45q12 0 12 -35q0 -40 -21 -75q-76 -127 -138 -212t-142 -148.5t-146 -63.5q-121 0 -120 139q0 162 129 461q29 76 28 104q0 41 -37 41q-23 0 -78 -26.5t-105 -80t-81 -98.5t-67.5 -135t-49.5 -127q-59 -184 -79 -266h-201 q106 295 146 397.5t48 126.5l19 58q23 65 23 107q0 44 -40 44q-33 0 -89 -28.5t-109 -84t-89 -128t-57.5 -126t-44 -130t-40 -125t-35.5 -111.5h-199z" />
<glyph unicode="n" horiz-adv-x="892" d="M-43 0q0 43 180 494q74 211 74 294q0 20 -6 31h86q72 0 92 -14t20 -39t-22 -100q171 163 344 163h2q117 0 117 -106q0 -35 -10.5 -70t-51.5 -139q-90 -229 -90 -307q0 -49 37 -49q27 0 75 36.5t79.5 76.5t69.5 100.5t64.5 105.5t31.5 45q12 0 12 -35q0 -40 -21 -75 q-76 -127 -138 -212t-142 -148.5t-146 -63.5q-121 0 -121 132q0 133 154 535q8 18 8 39q0 43 -54 43t-106.5 -33.5t-95.5 -96t-77.5 -127t-64.5 -148.5t-47 -140.5t-34.5 -121t-19.5 -70.5h-199z" />
<glyph unicode="o" d="M72 237q0 128 58 264t176 234.5t263 98.5q244 0 244 -259q0 -98 -43 -206q31 -43 88 -43q107 0 201 178q6 12 12 12q12 0 12 -31q0 -98 -78.5 -162.5t-147.5 -64.5t-118 39q-74 -145 -175 -229t-261 -84q-102 0 -166.5 62.5t-64.5 190.5zM268 190.5q0 -122.5 107 -129.5 q88 0 162.5 93.5t126.5 205.5q-70 59 -70 150q0 55 29.5 88t81.5 33h12q-8 108 -97 108h-2q-141 0 -276 -274q-74 -152 -74 -274.5z" />
<glyph unicode="p" horiz-adv-x="806" d="M-250 -508q53 78 215 537.5t214 586.5t77 154q49 49 170 49h61q-59 -41 -161 -246q190 254 336 254q137 0 137 -188q0 -156 -98.5 -319.5t-231.5 -253.5h16q84 0 171 67.5t151 149.5q35 45 98.5 152.5t67.5 107.5q16 0 16 -35t-20 -70q-123 -225 -266.5 -350t-340 -125 t-221.5 100l-114 -358q-41 -121 -62.5 -156.5t-48.5 -46t-68 -10.5h-98zM184 149.5q0 -96.5 60 -96.5q106 0 231 211t125 330q0 51 -31 59q-6 2 -18 2q-43 0 -94 -41q-84 -66 -178.5 -217t-94.5 -247.5z" />
<glyph unicode="q" horiz-adv-x="948" d="M57 182q0 143 62.5 291t179.5 251t256 103q61 0 117.5 -26.5t77.5 -87.5q29 59 71.5 82.5t134.5 23.5h62q-119 -74 -291 -581v-11q0 -82 56.5 -82t164.5 138q29 37 92.5 141t67.5 104q10 0 10 -37.5t-11 -59t-41 -71t-41 -68t-42 -62.5t-51.5 -64.5t-50.5 -46.5 q-53 -51 -113.5 -51t-79.5 47q-18 -61 -62 -213t-70 -237t-88 -126t-196 -41q74 100 172 373q35 96 98.5 281.5t94.5 271.5q-238 -430 -442 -430q-137 0 -138 188zM256 227q0 -63 49 -63q72 0 175.5 121t166 227t78.5 145l14 33q-23 61 -94 62q-135 0 -262 -188.5 t-127 -336.5z" />
<glyph unicode="r" horiz-adv-x="688" d="M111 406q0 34 25.5 94.5t55 116t31.5 61.5q-73 37 -73 117q0 43 25.5 75.5t70.5 32.5t73 -29q-4 -12 -4 -36q0 -55 40 -87t98 -32q16 0 24 2q72 102 146 102l104 -2h21q-31 -23 -87.5 -133t-84 -166.5t-61.5 -152t-34 -154.5t41 -59q27 2 75 37.5t80 75.5t69.5 102.5 t65.5 108.5t32 46q14 0 14 -37.5t-20 -72.5q-88 -145 -145.5 -223t-138.5 -142.5t-146 -64.5q-117 0 -117 172q0 117 45 264t133 285q-72 -57 -143 -58q-23 0 -47 10q-145 -287 -156.5 -287t-11.5 34z" />
<glyph unicode="s" horiz-adv-x="774" d="M51 133q0 49 29 90t79 41t64 -37q-39 -39 -39 -90q0 -102 115 -102q68 0 118 47t50 103.5t-24.5 99.5t-59.5 75.5t-70 65.5q-84 80 -84 183.5t79 174t216 70.5q86 0 145.5 -30.5t59.5 -95t-39 -112t-105.5 -47.5t-66.5 62q0 14 47 42.5t47 59.5t-25.5 46.5t-72.5 15.5 t-91 -33t-44 -86t45 -100.5t98 -80t98.5 -91t45.5 -123t-30 -115.5t-71 -82q115 49 244 246q12 16 43 67q72 129 80 129q12 0 12 -37.5t-20 -72.5q-154 -256 -279 -356.5t-323 -100.5q-115 0 -193 44t-78 130z" />
<glyph unicode="t" horiz-adv-x="509" d="M78 353.5q0 25.5 27.5 83t75.5 149.5t79 168h-137q-6 0 -6 9t15 31.5t24 22.5h155q147 354 299 354q89 1 99 3q-100 -70 -226 -357h207l2 -2q0 -10 -22.5 -35.5t-38.5 -25.5h-176q-162 -401 -162 -516q0 -78 49 -78q72 0 168 123q23 27 59 90q94 152 99 151q12 0 12 -32 q-2 -78 -170 -304q-55 -74 -133 -137t-141 -63q-117 0 -117 164q0 137 65 315v2q-39 -72 -66.5 -106.5t-31.5 -34.5q-8 0 -8 25.5z" />
<glyph unicode="u" d="M55 158q0 84 59.5 277.5t145.5 318.5q20 31 44 38t89 7h99q-51 -70 -111 -189q-135 -281 -135 -411q0 -78 56 -78t134 108.5t167 281.5t104 196q75 118 145 118l98 -2q31 0 39 2q-57 -39 -164.5 -271t-107.5 -335q0 -61 41 -61q27 0 73 34.5t78.5 76.5t70.5 103.5 t65.5 106.5t31.5 45q13 0 13 -41q0 -38 -23 -71q-254 -424 -424 -424q-115 0 -115 170q0 53 9 102q-193 -272 -367 -272q-51 0 -83 43t-32 127z" />
<glyph unicode="v" horiz-adv-x="827" d="M51 165q0 83 51 249q100 326 232 381q61 26 164 26h8q8 0 8 -8t-12 -20q-78 -66 -169 -280t-91 -303t67 -89q57 0 133 113.5t127 250.5q-10 47 -10 120t36 145.5t99.5 72.5t63.5 -94q0 -111 -68 -225q-18 -33 -24 -45q2 -63 31.5 -98t76.5 -35q74 0 137 92 q25 37 44.5 66.5t21.5 29.5q8 0 8 -42.5t-14 -65.5q-84 -150 -211 -150q-106 0 -150 115q-178 -268 -250 -318q-99 -67 -193 -67h-3q-49 0 -81 48t-32 131z" />
<glyph unicode="w" horiz-adv-x="1386" d="M45 159q0 81 57 251q109 328 238 383q59 26 164 26h8q6 0 6 -8q0 6 -14 -14q-78 -111 -160 -293q-16 -41 -51 -143.5t-35 -171t51 -68.5q102 0 297 373q82 158 84 159q76 121 146 121l110 -2q35 0 41 2q-76 -45 -180 -344q-59 -158 -59 -241t61 -83q72 0 146.5 83 t112.5 159t60 137q-10 51 -10 125t38 143.5t95 69.5q66 0 66 -92q0 -82 -20.5 -129t-41 -87t-28.5 -56q0 -59 31.5 -96t72.5 -37q96 0 195 178q6 10 11 10t5 -29q0 -111 -75.5 -170t-151.5 -59q-111 0 -146 115l-6 20q-127 -221 -224 -313t-230 -92q-172 0 -172 194 q0 35 8 80q-195 -272 -381 -272q-51 0 -85 45t-34 126z" />
<glyph unicode="x" horiz-adv-x="917" d="M-27 0q147 133 369 350q-49 136 -82 275q-111 -219 -129 -238q-10 0 -10 41t8 57q33 59 64.5 152.5t56 136.5t61.5 43h107q25 -137 82 -317q51 51 142 156.5t124 142.5q18 20 61 20t64.5 -1t26.5 -1q-164 -145 -402 -393q70 -225 127 -281q28 -26 57 -26h2q82 0 216 166 q20 25 57 86q98 160 102 159q10 0 10 -38.5t-22 -77.5q-86 -147 -149.5 -223t-148.5 -141.5t-165 -65.5t-135 69.5t-96 212.5q-172 -172 -246 -264h-152z" />
<glyph unicode="y" horiz-adv-x="870" d="M-102 -246q0 45 27.5 81t63.5 36t60.5 -16.5t34.5 -36.5q-37 -12 -37 -86q0 -39 27.5 -62.5t70.5 -23.5q166 0 279 297l117 311q-96 -121 -167 -181.5t-111 -72.5t-94 -12t-87 44q-32 43 -32 124q0 87 49 248q48 157 106.5 249t121 119t171.5 27q8 0 8 -8.5t-12 -20.5 q-84 -74 -171 -264.5t-87 -321.5q0 -69 37 -69h1q74 0 189 147.5t176 294.5q8 20 23.5 59t21.5 53.5t19.5 40t23.5 35t27.5 23.5t36.5 18q59 13 110 13h84q-63 -39 -129 -193q-53 -129 -90 -234.5t-45 -128t-38 -109.5t-48 -134q-51 -143 -118.5 -227t-168 -134.5 t-203 -50.5t-175 40t-72.5 126z" />
<glyph unicode="z" horiz-adv-x="872" d="M53 18q0 41 25.5 67t39 38t41 32.5t77.5 61.5q150 121 352 315l71 68l-41 6q-145 23 -192 23q-109 0 -166 -54q-6 -6 -71.5 -105t-67.5 -99q-8 0 -8 43t16 71.5t50 98t47.5 93t42 58.5t61 46.5t69.5 11.5t115 -13l25 -4q170 -31 213 -31q70 0 131 70q12 14 33.5 14 t64.5 -14q-160 -147 -666 -639q94 -76 211 -76h9q92 0 182 49.5t155 133.5q27 35 92.5 142t69.5 107q11 0 11 -40q0 -38 -25 -80q-137 -229 -242.5 -340t-206.5 -111q-53 0 -171.5 61.5t-144.5 61.5t-34 -6q-84 -100 -126 -100q-1 0 -1 -1q-41 0 -41 41z" />
<glyph unicode="{" horiz-adv-x="935" d="M18 674l21 63q166 12 193.5 30.5t56.5 41.5q74 57 117 252q16 76 30.5 122t62.5 102t112.5 89t97.5 47q90 37 262 37h53l-18 -63q-178 0 -269 -68q-37 -29 -65.5 -78t-39.5 -89t-28.5 -103.5t-32.5 -100.5q-41 -104 -159.5 -180t-243.5 -80q94 -2 174 -60t80 -140 t-47 -229.5t-47 -223.5q0 -147 217 -147q14 0 41.5 1t38.5 1l-25 -60l-106 -4q-205 0 -249 17.5t-75 35.5q-57 35 -57 119t58 253t58 241.5t-41 112.5t-83 50.5t-87 10.5z" />
<glyph unicode="|" horiz-adv-x="935" d="M352 -109l219 1536h142l-217 -1536h-144z" />
<glyph unicode="}" horiz-adv-x="1171" d="M18 -166l21 64q176 0 264 67q39 29 67.5 78t40 89t29 103.5t31.5 100.5q39 104 158 180t245 80q-96 2 -174.5 60.5t-78.5 139.5t47 230.5t47 222.5q0 147 -217 148q-16 0 -43 -1t-37 -1l24 59l107 4q205 0 249 -17.5t74 -35.5q57 -35 57.5 -119t-58 -253t-58.5 -241.5 t41 -112.5t83 -50.5t87 -10.5l-20 -63q-166 -12 -194 -30.5t-56 -41.5q-74 -59 -117 -254q-16 -76 -30.5 -121t-62.5 -101t-116 -90t-96.5 -46t-99 -25.5t-120 -13.5t-66.5 1t-28 1z" />
<glyph unicode="~" horiz-adv-x="1052" d="M463 1290.5q0 22.5 74.5 84t143.5 61.5t187.5 -44t175 -44t97.5 22.5t64.5 44t27.5 21.5q16 0 16 -19q0 -6 -2 -8q-115 -162 -227 -162q-68 0 -186.5 44t-184.5 44q-115 0 -153 -59q-6 -8 -15 -8q-18 0 -18 22.5z" />
<glyph unicode="&#xa1;" horiz-adv-x="768" d="M31 -223q113 162 276.5 476t186.5 382l84 16q-35 -78 -147 -399.5t-152 -431.5q-19 -49 -107 -49l-121 8q-4 0 -11 -1t-9 -1zM541 971q0 37 44 71.5t101 34.5q84 0 84 -51q0 -6 -4 -22q-23 -4 -67 -47.5t-58 -69.5q-100 33 -100 84z" />
<glyph unicode="&#xa2;" horiz-adv-x="985" d="M100 504q0 137 88 307t231.5 285.5t291.5 128.5l80 207q4 6 47 6t43 -15v-2l-78 -202q70 -12 109.5 -53.5t39.5 -94.5t-14 -96q-29 -82 -86 -82q-27 0 -46.5 19.5t-19.5 43t26 63.5t26 66q0 51 -64 62l-328 -850q88 0 199 35q68 23 199 141q41 39 49 39t8 -33t-31 -76 q-82 -113 -213 -167t-256 -54l-114 -301q-2 -6 -45 -6t-43 14v2l114 299q-2 0 -2 1.5t-2 1.5q-106 23 -157.5 98.5t-51.5 212.5zM281 489q-1 -129 81 -172l316 822q-160 -55 -278.5 -256t-118.5 -394z" />
<glyph unicode="&#xa3;" horiz-adv-x="1316" d="M41 47.5q0 65.5 58.5 118.5t142.5 63q68 111 182 433h-188q-2 0 -2.5 10t23.5 48t40 38h162q168 465 350 594q84 59 168 59t123 -41t39 -95t-15.5 -93t-29.5 -39q-4 0 -4 4q-16 106 -78 106q-131 0 -363 -495h242q2 0 2 -11.5t-22.5 -48t-39.5 -36.5h-227l-31 -70 q-115 -260 -198 -363q47 -6 245.5 -48t315.5 -42q238 0 238 133q0 39 -27 58v2q0 4 6 10t10 6q43 -2 88 -33.5t45 -95.5q0 -88 -91 -162.5t-223 -74.5t-258 46t-222 93t-138 47t-81 -28.5t-66 -65.5q-66 -92 -127 -92q-49 0 -49 65.5z" />
<glyph unicode="&#xa4;" horiz-adv-x="1705" d="M240 218q0 38 10 92.5t24 64.5l199 139q-37 66 -37 145q0 131 86 244l-121 117q-6 6 -6 34.5t19.5 94t29.5 65.5h2l205 -196q117 72 259.5 71.5t246.5 -88.5l299 213h2q6 0 6 -37.5t-10 -91t-27 -65.5l-184 -131q29 -63 29 -137q0 -131 -92 -244l139 -133q6 -6 6 -28.5 t-9 -63.5t-20.5 -72t-15.5 -31h-2l-227 217q-117 -68 -250 -67.5t-236 76.5l-317 -226h-2q-6 0 -6 38zM584 687q0 -116 67.5 -185.5t175 -69.5t203.5 89t96 208t-68.5 189.5t-180 70.5t-202.5 -93t-91 -209z" />
<glyph unicode="&#xa5;" horiz-adv-x="1341" d="M45 1225.5q0 15.5 4 19.5q68 72 169 126t174 54t100 -39q57 -84 215 -696q43 59 229 325.5t268 373.5q33 43 168 43q23 0 63 -1t54 -1q-383 -266 -651 -730h180q2 0 2 -10t-36 -59t-54 -49h-156q-51 -98 -92 -207h246q2 0 2 -10.5t-36 -59.5t-54 -49h-197 q-39 -143 -39 -192.5t8 -63.5h-264q23 100 76 256h-238q-2 0 -2 10t35 59.5t55 49.5h191q37 111 37 186v21h-226q-2 0 -2 10t35 59t56 49h116q-43 188 -168 494q-39 94 -100 94t-152 -76l-4 -2q-12 0 -12 15.5z" />
<glyph unicode="&#xa6;" horiz-adv-x="935" d="M510 -109l94 650q0 6 48 5.5t44 -16.5l-94 -649q0 -6 -48 -6t-44 16zM635 776l94 649q0 6 48 6t44 -16l-94 -649q0 -6 -48 -6t-44 16z" />
<glyph unicode="&#xa7;" horiz-adv-x="1755" d="M66 -217q0 72 47 131t134 59t118 -61q-72 -57 -72 -136t50 -123t132 -48q129 0 226.5 85t97.5 222t-176 324q-2 4 -72 76.5t-116 148.5t-46 180q0 178 139.5 286.5t341.5 108.5h43q-2 10 -2 35q0 178 139.5 286.5t329 108.5t271.5 -61.5t82 -148.5t-58.5 -161.5 t-163 -74.5t-104.5 88q0 8 4 33q53 0 94 42t41 94t-48 85t-118 33q-119 0 -196.5 -72t-77.5 -168q0 -51 36 -111.5t72.5 -98.5t108.5 -104.5t92 -86.5q156 -158 156 -336t-152.5 -311.5t-369.5 -145.5q-16 -178 -180 -305t-369 -127t-319.5 62.5t-114.5 191.5zM584 725 q0 -51 36.5 -112.5t70.5 -97.5t111 -106.5t91 -84.5q133 -133 154 -289q113 14 193.5 99t80.5 204q0 131 -127 272q-58 66 -64 72q-129 135 -159.5 188.5t-44.5 96.5q-18 -2 -68 -2q-119 0 -196.5 -72t-77.5 -168z" />
<glyph unicode="&#xa8;" horiz-adv-x="1187" d="M555 1179.5q0 34.5 50 106.5t93 72q23 0 43.5 -31t20.5 -54.5t-12 -25.5q-41 -10 -85 -56t-67 -46q-43 0 -43 34.5zM938 1179.5q0 34.5 50 106.5t93 72q23 0 43.5 -31t20.5 -54.5t-12 -25.5q-41 -10 -85 -56t-67 -46q-43 0 -43 34.5z" />
<glyph unicode="&#xa9;" horiz-adv-x="1380" d="M84 616q0 209 121 391.5t319.5 289t421.5 106.5q293 0 485.5 -177t192.5 -440q0 -41 -6 -84q-39 -291 -290 -495.5t-554 -204.5t-496.5 177t-193.5 437zM244 629q0 -236 153.5 -393.5t394 -157.5t441.5 184q233 215 233 516q0 236 -153.5 394.5t-384.5 158.5 q-272 0 -478 -210t-206 -492zM438 594q0 219 156 409.5t379 190.5q98 0 155.5 -53.5t57.5 -127t-38 -126.5t-89 -53q-102 0 -103 88q0 18 35 32q63 25 64 97q0 35 -19.5 57t-58.5 22q-80 0 -165 -86t-141.5 -215t-56.5 -242.5t48.5 -181t141.5 -67.5t192.5 63.5t177.5 163.5 q8 10 16 10q25 0 24.5 -31.5t-10.5 -43.5q-195 -244 -467 -244q-145 0 -222 96.5t-77 241.5z" />
<glyph unicode="&#xaa;" horiz-adv-x="968" d="M57 801q0 143 62.5 290.5t179.5 251t256 103.5q66 0 123 -30t76 -95q23 47 69.5 82t87.5 35l103 -2h20q-68 -55 -166 -279.5t-98 -327.5q0 -53 37 -53h2q27 0 72 35t77.5 77t70.5 103.5t65.5 106.5t31.5 45q12 0 12.5 -39t-22.5 -72q-74 -125 -138.5 -212t-142 -150.5 t-141.5 -63.5q-111 0 -110 170q0 127 43 250q-233 -414 -432 -414q-137 0 -138 189zM256 846q0 -63 49 -64q53 0 125 66.5t129 157.5q127 201 182 297q-20 66 -96 65q-135 0 -262 -187.5t-127 -334.5z" />
<glyph unicode="&#xab;" horiz-adv-x="1374" d="M141 590q0 16 52 47q338 190 655 430q2 2 5 2t3 -6q0 -51 -186.5 -194.5t-366.5 -254.5q307 -217 389 -360q2 -4 2 -18.5t-38 -47t-50 -32.5t-12 2q-215 244 -412 385q-41 31 -41 47zM635 590q0 16 51 47q362 203 657 430l5 2q4 0 4 -8q0 -51 -187.5 -194.5 t-367.5 -252.5q113 -78 229.5 -180t161.5 -180q2 -2 2 -16.5t-38 -48t-50 -33.5t-12 2q-215 244 -412 385q-43 31 -43 47z" />
<glyph unicode="&#xac;" horiz-adv-x="1660" d="M6 643v92l1364 21q23 0 54.5 -26.5t31.5 -59.5l-39 -209q-82 -424 -104 -424q-27 0 -33 26l43 599z" />
<glyph unicode="&#xad;" horiz-adv-x="1003" d="M313 467q0 10 39.5 66.5t57.5 56.5h571q2 0 2 -10.5t-38 -66.5t-58 -56h-572q-2 0 -2 10z" />
<glyph unicode="&#xae;" horiz-adv-x="1701" d="M84 616q0 209 121 391.5t319.5 289t421.5 106.5q293 0 485.5 -177t192.5 -440q0 -41 -6 -84q-39 -291 -290 -495.5t-554 -204.5t-496.5 177t-193.5 437zM244 629q0 -236 153.5 -393.5t394 -157.5t441.5 184q233 215 233 516q0 236 -153.5 394.5t-384.5 158.5 q-272 0 -478 -210t-206 -492zM389 256q37 166 184 514q133 332 211 451h215q127 0 191.5 -53.5t64.5 -135.5q0 -119 -93 -193.5t-218 -97.5l-45 -8q72 -246 291 -475q-14 -4 -64 -4l-106 4q-80 0 -165 202t-85 277q0 20 18 23q139 12 236.5 77.5t97.5 186.5q0 70 -48 112 t-144 42q-111 -150 -240 -468.5t-129 -422.5q0 -20 6 -31h-178z" />
<glyph unicode="&#xaf;" horiz-adv-x="1052" d="M573 1325q0 6 29 42t43 36h494l2 -2q0 -12 -29 -47t-43 -35h-494q-2 0 -2 6z" />
<glyph unicode="&#xb0;" horiz-adv-x="1705" d="M551 1141q0 117 98.5 214t247.5 97q96 0 144.5 -48t48.5 -122q-1 -37 -13 -78q-33 -98 -123 -166.5t-198.5 -68.5t-156.5 48t-48 124zM664 1135q0 -109 106 -109q92 0 161.5 85t69.5 171q0 109 -110 109q-92 0 -159.5 -84t-67.5 -172z" />
<glyph unicode="&#xb1;" horiz-adv-x="1478" d="M-74 -189.5q0 9.5 38.5 59.5t58.5 50h989q2 0 2 -9t-38 -59.5t-58 -50.5h-990q-2 0 -2 9.5zM92 639q0 18 51 74.5t78 56.5l488 -16q113 281 157 422q6 25 84 53t98.5 28t20.5 -2v-2q-199 -438 -225 -499q463 4 590 10q2 0 2 -4q0 -18 -51.5 -73.5t-77.5 -55.5l-508 18 q-57 -117 -115.5 -272.5t-75.5 -224.5q-6 -25 -85 -53.5t-99.5 -28.5t-20.5 2v2q104 193 265 577q-385 0 -480.5 -7t-95.5 -5z" />
<glyph unicode="&#xb2;" horiz-adv-x="1005" d="M6 338q0 188 273 389q313 217 385 309q78 102 77 197q0 59 -33.5 95t-112.5 36t-149.5 -76t-70.5 -166q0 -27 10 -57q-33 -20 -69.5 -20.5t-65.5 34.5t-29 90q0 96 78 162q135 117 342 117q334 0 334 -227q0 -129 -75 -214t-166 -134.5t-187 -94.5q-248 -113 -363 -260 q322 -113 498 -112q154 0 154 124h38q0 -125 -59 -203.5t-188 -78.5q-78 0 -165 47t-156.5 94t-106.5 47t-55.5 -27.5t-20.5 -62.5q-6 -90 -66 -90q-51 0 -51 82z" />
<glyph unicode="&#xb3;" horiz-adv-x="968" d="M8 479q0 74 48 137.5t122 63.5q45 0 90 -31q-74 -100 -73.5 -180t54.5 -123t157.5 -43t186.5 89t83 201t-60.5 178.5t-156.5 66.5q-23 0 -65 -12.5t-60.5 -12.5t-33.5 14.5t-15 37t24.5 40t74.5 17.5t101 -19q109 27 187 120t78 196q0 68 -40 109.5t-127 41.5 t-151.5 -71.5t-64.5 -163.5q0 -41 14 -76q-29 -18 -67 -18.5t-66.5 35.5t-28.5 101.5t42 121t106 85.5q129 59 269 59.5t238.5 -56t98.5 -179.5t-81 -202.5t-196 -120.5q98 -20 154.5 -89t56.5 -159q0 -190 -163.5 -301t-376.5 -111q-150 0 -254.5 63.5t-104.5 190.5z" />
<glyph unicode="&#xb4;" horiz-adv-x="1087" d="M580 1102q18 10 133.5 95t152.5 112q8 4 24.5 4t56.5 -22.5t40 -35.5q0 -4 -4 -6q-82 -35 -217 -103.5t-141.5 -68.5t-25.5 10.5t-19 14.5z" />
<glyph unicode="&#xb5;" horiz-adv-x="927" d="M-610 -363.5q0 58.5 31.5 104.5t86 46t72.5 -43q-20 -12 -31.5 -43t-11.5 -58.5t21.5 -47t58.5 -19.5q172 0 309 330q55 135 151.5 431t176.5 417q18 29 49 37t98 8h93q-94 -133 -179 -369q-57 -172 -57 -240.5t51 -68.5q57 0 133 107.5t164 278.5t103 193 q75 119 145 119l98 -2q31 0 39 2q-59 -39 -162.5 -268t-103.5 -332q0 -61 41 -61q27 0 73 34.5t78.5 76.5t70.5 103.5t65.5 106.5t31.5 45q12 0 12.5 -39t-22.5 -71q-74 -125 -138.5 -212t-142 -150.5t-143.5 -63.5q-115 0 -114 170q0 53 8 102q-195 -272 -381 -272 q-14 0 -21 2q-213 -473 -569 -473q-76 0 -130 30.5t-54 89z" />
<glyph unicode="&#xb6;" horiz-adv-x="1142" d="M88 981q0 170 150.5 309.5t394.5 139.5h741q-72 -55 -170 -222.5t-192 -360t-189.5 -461.5t-95.5 -382t57 -133h-145q-84 0 -84 112.5t92 367.5t261 611.5t239 426.5h-109q-117 -129 -299 -492q-70 -143 -178 -418.5t-141 -397.5t-33 -219.5t57 -117.5h-116 q-84 0 -84 109.5t62.5 293t211.5 545.5q-23 -2 -65 -2q-180 0 -272.5 83t-92.5 208zM293 1024q0 -113 67.5 -192.5t182.5 -79.5q264 578 340 637h-138q-221 0 -336.5 -110t-115.5 -255z" />
<glyph unicode="&#xb7;" horiz-adv-x="555" d="M315 627q0 45 62.5 84t132.5 39q49 0 49 -45q0 -29 -20 -43q-10 -10 -35 -44q-66 -82 -76 -81q-31 0 -72 31.5t-41 58.5z" />
<glyph unicode="&#xb8;" horiz-adv-x="1380" d="M82 -426q0 133 87 222t216 89h8l41 95q2 8 23.5 8t21.5 -6l-39 -129q-2 -8 -19.5 -6.5t-29.5 1.5q-72 0 -137.5 -94t-65.5 -188t82 -94q76 0 150 77q4 4 9 4.5t5 -14.5q0 -49 -64.5 -83t-139 -34t-111.5 42t-37 110z" />
<glyph unicode="&#xb9;" horiz-adv-x="595" d="M0 274q47 111 303 799l82 223l-227 -204h-99l338 354h221q-90 -211 -233 -628t-168 -544h-217z" />
<glyph unicode="&#xba;" horiz-adv-x="892" d="M4 842q0 129 58.5 265t176 234.5t255 98.5t194.5 -71t57 -181q0 -188 -143 -404q16 -33 53 -32q66 0 170 137q35 45 93.5 143t62.5 98q12 0 12 -37.5t-20 -72.5q-133 -213 -209 -290t-139.5 -77t-100.5 43q-117 -106 -286 -106q-102 0 -168 61.5t-66 190.5zM200.5 796.5 q0.5 -122.5 106.5 -128.5q88 0 178 110l-4 27q-4 25 -4 59.5t24.5 71.5t49.5 37t37 -23l14 31q49 115 49 225q0 139 -100 140q-141 0 -277 -275q-74 -152 -73.5 -274.5z" />
<glyph unicode="&#xbb;" horiz-adv-x="1419" d="M254 164q0 53 189.5 196.5t365.5 249.5q-303 215 -389 363q-2 2 -2 16.5t37 47t49 32.5t14 -2q215 -244 412 -385q41 -29 41 -46.5t-49 -45.5q-342 -190 -658 -432q-2 -2 -6 -2t-4 8zM750 164q0 53 185 193.5t370 252.5q-303 215 -390 363q-2 2 -2 16.5t37 47t49.5 32.5 t14.5 -2q214 -244 411 -385q41 -31 41 -46t-51 -46q-344 -193 -655 -432q-2 -2 -6 -2t-4 8z" />
<glyph unicode="&#xbc;" horiz-adv-x="2033" d="M2 274q47 111 301 799l84 223l-227 -204h-99l338 354h222q-90 -211 -233.5 -628t-168.5 -544h-217zM109 -109l1138 1541q6 6 56.5 6t50.5 -15v-2l-1139 -1540q-4 -6 -55 -6t-51 14v2zM903 389q0 82 76 125l764 657h221q-104 -240 -252 -679q199 16 199 122q0 33 -21 48 q25 22 53.5 22t57.5 -29.5t29 -81.5q0 -86 -85 -153.5t-235 -67.5q-31 0 -45 2q-84 -262 -102 -354h-217q29 63 147 381q-39 10 -121 33q-172 51 -238.5 51t-93 -22.5t-28.5 -49.5q-2 -74 -49 -74q-25 0 -42.5 18.5t-17.5 51.5zM1137 539q104 -6 199.5 -22.5t197.5 -22.5 l207 555z" />
<glyph unicode="&#xbd;" horiz-adv-x="1945" d="M0 348q47 111 303 799l82 223l-227 -205h-99l338 355h221q-90 -211 -233 -628t-168 -544h-217zM29 -109l1138 1541q6 6 56.5 6t50.5 -15v-2l-1139 -1540q-4 -6 -55 -6t-51 14v2zM932 68q0 188 272 389q313 217 385 309q78 102 78 197q0 59 -34 95t-112.5 36t-149.5 -76 t-71 -166q0 -27 11 -57q-33 -20 -70 -20.5t-65.5 34.5t-28.5 90q0 96 78 162q135 117 342 117q334 -1 334 -228q0 -129 -75 -214t-166 -134t-187 -94q-248 -113 -363 -260q322 -113 498 -113q154 0 153 125h39q0 -125 -59.5 -204t-188.5 -79q-78 0 -165 47.5t-156.5 94.5 t-106.5 47t-55 -27.5t-20 -62.5q-6 -90 -66 -90q-51 0 -51 82z" />
<glyph unicode="&#xbe;" horiz-adv-x="2498" d="M8 479q0 74 48 137.5t122 63.5q45 0 90 -31q-74 -100 -73.5 -180t54.5 -123t157.5 -43t186.5 89t83 201t-60.5 178.5t-156.5 66.5q-23 0 -65 -12.5t-60.5 -12.5t-33.5 14.5t-15 37t24.5 40t74.5 17.5t101 -19q109 27 187 120t78 196q0 68 -40 109.5t-127 41.5 t-151.5 -71.5t-64.5 -163.5q0 -41 14 -76q-29 -18 -67 -18.5t-66.5 35.5t-28.5 101.5t42 121t106 85.5q129 59 269 59.5t238.5 -56t98.5 -179.5t-81 -202.5t-196 -120.5q98 -20 154.5 -89t56.5 -159q0 -190 -163.5 -301t-376.5 -111q-150 0 -254.5 63.5t-104.5 190.5z M645 -109l1139 1541q6 6 56 6t50 -15v-2l-1138 -1540q-4 -6 -55.5 -6t-51.5 14v2zM1376 389q0 82 76 125l764 657h221q-104 -240 -252 -679q199 16 199 122q0 33 -21 48q25 22 53.5 22t57.5 -29.5t29 -81.5q0 -86 -85 -153.5t-235 -67.5q-31 0 -45 2q-84 -262 -102 -354 h-217q29 63 147 381q-39 10 -119 33q-174 51 -240.5 51t-93 -22.5t-26.5 -49.5q-4 -74 -51 -74q-25 0 -42.5 18.5t-17.5 51.5zM1610 539q104 -6 199.5 -22.5t197.5 -22.5l207 555z" />
<glyph unicode="&#xbf;" horiz-adv-x="1040" d="M55 -41q0 143 105 223q86 63 193.5 108.5t158.5 71t115 64.5q133 82 133 188l-4 31q0 25 25.5 42.5t52.5 17.5q47 0 47 -58q0 -111 -131 -209l-37 -24q-295 -188 -389 -336q-33 -55 -33 -101q0 -90 49 -141t127 -51q55 0 151 51q47 25 81 78t34 105.5t-14 82.5 q29 16 66.5 16.5t71.5 -36.5t34 -98q0 -98 -88 -160q-150 -109 -363 -109q-385 0 -385 244zM811 979q0 37 44 71.5t101 34.5q84 0 84 -51q0 -6 -4 -22q-23 -4 -66.5 -47t-58.5 -70q-100 33 -100 84z" />
<glyph unicode="&#xc0;" horiz-adv-x="1665" d="M-98 0q193 176 598 578q522 520 686 720q41 49 61.5 68.5t62.5 41.5t89 22h147q-94 -90 -191.5 -492.5t-97.5 -622.5q0 -156 58 -215q25 -27 61.5 -26.5t77.5 26.5l12 -18q-29 -41 -102.5 -70.5t-144.5 -29.5q-106 0 -145.5 75.5t-45.5 202.5q0 104 27 270h-469 q-305 -324 -480 -530h-204zM338 1163q0 267 498 267h458q-51 -51 -178 -78t-286.5 -42.5t-208.5 -25.5q-219 -51 -220 -262q-63 66 -63 141zM676 633h393q37 203 119 508q-233 -219 -512 -508zM1225 1675q0 12 41 35t57 23t25 -4q37 -27 106 -78l119 -88q47 -35 61 -41 q0 -6 -20.5 -15.5t-25.5 -9.5t-62 29l-146 71q-88 45 -121.5 59.5t-33.5 18.5z" />
<glyph unicode="&#xc1;" horiz-adv-x="1665" d="M-98 0q193 176 598 578q522 520 686 720q41 49 61.5 68.5t62.5 41.5t89 22h147q-94 -90 -191.5 -492.5t-97.5 -622.5q0 -156 58 -215q25 -27 61.5 -26.5t77.5 26.5l12 -18q-29 -41 -102.5 -70.5t-144.5 -29.5q-106 0 -145.5 75.5t-45.5 202.5q0 104 27 270h-469 q-305 -324 -480 -530h-204zM338 1163q0 267 498 267h458q-51 -51 -178 -78t-286.5 -42.5t-208.5 -25.5q-219 -51 -220 -262q-63 66 -63 141zM676 633h393q37 203 119 508q-233 -219 -512 -508zM1399 1511q18 10 134 95.5t153 111.5q8 4 24 4t56 -22.5t40 -34.5q0 -4 -4 -6 q-82 -35 -217 -103.5t-141 -68.5t-25.5 10t-19.5 14z" />
<glyph unicode="&#xc2;" horiz-adv-x="1665" d="M-98 0q193 176 598 578q522 520 686 720q41 49 61.5 68.5t62.5 41.5t89 22h147q-94 -90 -191.5 -492.5t-97.5 -622.5q0 -156 58 -215q25 -27 61.5 -26.5t77.5 26.5l12 -18q-29 -41 -102.5 -70.5t-144.5 -29.5q-106 0 -145.5 75.5t-45.5 202.5q0 104 27 270h-469 q-305 -324 -480 -530h-204zM338 1163q0 267 498 267h458q-51 -51 -178 -78t-286.5 -42.5t-208.5 -25.5q-219 -51 -220 -262q-63 66 -63 141zM676 633h393q37 203 119 508q-233 -219 -512 -508zM1266 1542v2q197 160 299 266q16 18 33.5 18.5t49 -45.5t76.5 -114.5t70 -99.5 v-2q0 -6 -29.5 -22.5t-46.5 -16.5q-29 0 -79 73.5t-74 129.5q-68 -66 -151 -130.5t-115.5 -64.5t-32.5 6z" />
<glyph unicode="&#xc3;" horiz-adv-x="1665" d="M-98 0q193 176 598 578q522 520 686 720q41 49 61.5 68.5t62.5 41.5t89 22h147q-94 -90 -191.5 -492.5t-97.5 -622.5q0 -156 58 -215q25 -27 61.5 -26.5t77.5 26.5l12 -18q-29 -41 -102.5 -70.5t-144.5 -29.5q-106 0 -145.5 75.5t-45.5 202.5q0 104 27 270h-469 q-305 -324 -480 -530h-204zM338 1163q0 267 498 267h458q-51 -51 -178 -78t-286.5 -42.5t-208.5 -25.5q-219 -51 -220 -262q-63 66 -63 141zM676 633h393q37 203 119 508q-233 -219 -512 -508zM1343 1692.5q0 19.5 53.5 79t103.5 59.5t144.5 -38t136.5 -38t65.5 21.5 t37.5 42t27 20.5q18 0 18 -16q0 -7 -4 -15q-86 -147 -164 -147q-47 0 -133 37t-136 37t-87 -31t-39 -31q-23 0 -23 19.5z" />
<glyph unicode="&#xc4;" horiz-adv-x="1665" d="M-98 0q193 176 598 578q522 520 686 720q41 49 61.5 68.5t62.5 41.5t89 22h147q-94 -90 -191.5 -492.5t-97.5 -622.5q0 -156 58 -215q25 -27 61.5 -26.5t77.5 26.5l12 -18q-29 -41 -102.5 -70.5t-144.5 -29.5q-106 0 -145.5 75.5t-45.5 202.5q0 104 27 270h-469 q-305 -324 -480 -530h-204zM338 1163q0 267 498 267h458q-51 -51 -178 -78t-286.5 -42.5t-208.5 -25.5q-219 -51 -220 -262q-63 66 -63 141zM676 633h393q37 203 119 508q-233 -219 -512 -508zM1276 1589q0 35 50 106.5t93 71.5q23 0 43.5 -30.5t20 -54t-12.5 -25.5 q-41 -10 -85 -56.5t-66 -46.5q-43 0 -43 35zM1659 1589q0 35 50 106.5t93 71.5q23 0 43.5 -30.5t20 -54t-12.5 -25.5q-41 -10 -85 -56.5t-66 -46.5q-43 0 -43 35z" />
<glyph unicode="&#xc5;" horiz-adv-x="1665" d="M-98 0q193 176 598 578q522 520 686 720q41 49 61.5 68.5t62.5 41.5t89 22h147q-94 -90 -191.5 -492.5t-97.5 -622.5q0 -156 58 -215q25 -27 61.5 -26.5t77.5 26.5l12 -18q-29 -41 -102.5 -70.5t-144.5 -29.5q-106 0 -145.5 75.5t-45.5 202.5q0 104 27 270h-469 q-305 -324 -480 -530h-204zM338 1163q0 267 498 267h458q-51 -51 -178 -78t-286.5 -42.5t-208.5 -25.5q-219 -51 -220 -262q-63 66 -63 141zM676 633h393q37 203 119 508q-233 -219 -512 -508z" />
<glyph unicode="&#xc6;" horiz-adv-x="2043" d="M-98 0q193 176 598 578q522 520 686 720q41 49 61.5 68.5t62.5 41.5t89 22h411l224 10q63 0 70 -25.5t7 -38.5q0 -72 -50 -181.5t-71.5 -109.5t-21.5 17l17 123q0 63 -51.5 100t-123 37t-106.5 -10.5t-55 -42.5q-150 -223 -273 -508h535l2 -2q0 -14 -29 -56.5t-47 -42.5 h-506q-55 -135 -108.5 -303t-53.5 -222t33 -79.5t111 -25.5q598 0 708 233q2 6 14.5 6t12.5 -12t-4 -33q-57 -178 -170 -225q-59 -25 -111.5 -32t-134.5 -7h-618q-63 0 -64 98q0 137 115 432h-475q-305 -324 -480 -530h-204zM338 1163q0 267 498 267h458q-51 -51 -178 -78 t-286.5 -42.5t-208.5 -25.5q-219 -51 -220 -262q-63 66 -63 141zM676 633h424l71 168q186 449 273 551q0 2 -1 7t-1 9q-76 -47 -196 -154.5t-204 -193.5q-252 -258 -366 -387z" />
<glyph unicode="&#xc7;" horiz-adv-x="1333" d="M6 387q0 170 76 355.5t205 344t322.5 261t382 102.5t288.5 -64.5t100 -164.5q0 -37 -16 -82q-33 -84 -122 -141.5t-185 -57.5q-45 0 -74 19.5t-29 50t25 65.5q23 -8 51 -8q80 0 147.5 55.5t67.5 132.5q0 119 -158 119q-209 0 -407.5 -143.5t-320 -371.5t-121.5 -464 q0 -365 331 -364q207 0 438.5 159.5t307.5 346.5q39 -27 39 -72q0 -92 -131 -228.5t-330 -217t-406 -80.5q-481 0 -481 448zM78 -463q0 133 87 222t216 89h8l41 95q2 8 23.5 8t21.5 -6l-39 -129q-2 -8 -19.5 -6t-29.5 2q-72 0 -137.5 -94.5t-65.5 -188.5t82 -94q76 0 150 78 q4 4 9 4t5 -15q0 -49 -64.5 -82.5t-139 -33.5t-111.5 42t-37 109z" />
<glyph unicode="&#xc8;" horiz-adv-x="1202" d="M20 1133.5q0 11.5 3 15.5q78 213 284 260q94 20 252 21h406l223 10q63 0 70.5 -25.5t7.5 -38.5q0 -72 -50.5 -181.5t-72 -109.5t-21.5 17l17 123q0 63 -51.5 100t-123 37t-106.5 -10.5t-55 -42.5q-150 -223 -273 -508h535l2 -2q0 -14 -28.5 -56.5t-47.5 -42.5h-506 q-55 -135 -108 -303t-53 -222t32.5 -79.5t110.5 -25.5q598 0 709 233q4 6 15 6t11 -12t-4 -33q-57 -178 -170 -225q-59 -25 -111.5 -32t-134.5 -7h-618q-63 0 -64 96q0 166 183 604h-113q-16 0 -16 11q0 20 38.5 55t63.5 35h70q188 453 272 551q-193 -25 -351.5 -82.5 t-207.5 -141.5q-2 -6 -10.5 -6t-8.5 11.5zM641 1675q0 12 41 35t57.5 23t24.5 -4q37 -27 108 -78l117 -88q47 -35 62 -41q0 -6 -20.5 -15.5t-26 -9.5t-62.5 29l-145 71q-88 45 -122 59.5t-34 18.5z" />
<glyph unicode="&#xc9;" horiz-adv-x="1202" d="M20 1133.5q0 11.5 3 15.5q78 213 284 260q94 20 252 21h406l223 10q63 0 70.5 -25.5t7.5 -38.5q0 -72 -50.5 -181.5t-72 -109.5t-21.5 17l17 123q0 63 -51.5 100t-123 37t-106.5 -10.5t-55 -42.5q-150 -223 -273 -508h535l2 -2q0 -14 -28.5 -56.5t-47.5 -42.5h-506 q-55 -135 -108 -303t-53 -222t32.5 -79.5t110.5 -25.5q598 0 709 233q4 6 15 6t11 -12t-4 -33q-57 -178 -170 -225q-59 -25 -111.5 -32t-134.5 -7h-618q-63 0 -64 96q0 166 183 604h-113q-16 0 -16 11q0 20 38.5 55t63.5 35h70q188 453 272 551q-193 -25 -351.5 -82.5 t-207.5 -141.5q-2 -6 -10.5 -6t-8.5 11.5zM748 1511q18 10 133.5 95.5t152.5 111.5q8 4 24.5 4t56.5 -22.5t40 -34.5q0 -4 -4 -6q-82 -35 -217 -103.5t-141.5 -68.5t-25.5 10t-19 14z" />
<glyph unicode="&#xca;" horiz-adv-x="1202" d="M20 1133.5q0 11.5 3 15.5q78 213 284 260q94 20 252 21h406l223 10q63 0 70.5 -25.5t7.5 -38.5q0 -72 -50.5 -181.5t-72 -109.5t-21.5 17l17 123q0 63 -51.5 100t-123 37t-106.5 -10.5t-55 -42.5q-150 -223 -273 -508h535l2 -2q0 -14 -28.5 -56.5t-47.5 -42.5h-506 q-55 -135 -108 -303t-53 -222t32.5 -79.5t110.5 -25.5q598 0 709 233q4 6 15 6t11 -12t-4 -33q-57 -178 -170 -225q-59 -25 -111.5 -32t-134.5 -7h-618q-63 0 -64 96q0 166 183 604h-113q-16 0 -16 11q0 20 38.5 55t63.5 35h70q188 453 272 551q-193 -25 -351.5 -82.5 t-207.5 -141.5q-2 -6 -10.5 -6t-8.5 11.5zM666 1526v2q197 160 299 266q16 18 33.5 18t49 -46t76.5 -114.5t70 -99.5v-2q0 -6 -29.5 -22.5t-46.5 -16.5q-29 0 -79 74t-74 129q-68 -66 -151 -130t-115.5 -64t-32.5 6z" />
<glyph unicode="&#xcb;" horiz-adv-x="1202" d="M20 1133.5q0 11.5 3 15.5q78 213 284 260q94 20 252 21h406l223 10q63 0 70.5 -25.5t7.5 -38.5q0 -72 -50.5 -181.5t-72 -109.5t-21.5 17l17 123q0 63 -51.5 100t-123 37t-106.5 -10.5t-55 -42.5q-150 -223 -273 -508h535l2 -2q0 -14 -28.5 -56.5t-47.5 -42.5h-506 q-55 -135 -108 -303t-53 -222t32.5 -79.5t110.5 -25.5q598 0 709 233q4 6 15 6t11 -12t-4 -33q-57 -178 -170 -225q-59 -25 -111.5 -32t-134.5 -7h-618q-63 0 -64 96q0 166 183 604h-113q-16 0 -16 11q0 20 38.5 55t63.5 35h70q188 453 272 551q-193 -25 -351.5 -82.5 t-207.5 -141.5q-2 -6 -10.5 -6t-8.5 11.5zM651 1589q0 35 50.5 106.5t93.5 71.5q23 0 43 -30.5t20 -54t-12 -25.5q-41 -10 -85 -56.5t-67 -46.5q-43 0 -43 35zM1034 1589q0 35 50.5 106.5t93.5 71.5q23 0 43 -30.5t20 -54t-12 -25.5q-41 -10 -85 -56.5t-67 -46.5 q-43 0 -43 35z" />
<glyph unicode="&#xcc;" horiz-adv-x="835" d="M8 1145q0 4 4 20q39 113 113 174.5t144.5 76t174.5 14.5h463q-141 -109 -389 -672q-63 -143 -144 -375.5t-81 -339.5q0 -29 8 -43h-264q57 248 242 688q246 586 317 666q-174 -4 -353.5 -70.5t-207.5 -159.5q-2 -6 -8 -6q-18 0 -19 27zM481 1675q0 12 41 35t57.5 23 t24.5 -4q37 -27 109 -78l116 -88q47 -35 62 -41q0 -6 -20.5 -15.5t-25.5 -9.5t-63 29l-145 71q-88 45 -122 59.5t-34 18.5z" />
<glyph unicode="&#xcd;" horiz-adv-x="835" d="M8 1145q0 4 4 20q39 113 113 174.5t144.5 76t174.5 14.5h463q-141 -109 -389 -672q-63 -143 -144 -375.5t-81 -339.5q0 -29 8 -43h-264q57 248 242 688q246 586 317 666q-174 -4 -353.5 -70.5t-207.5 -159.5q-2 -6 -8 -6q-18 0 -19 27zM672 1511q18 10 134 95.5 t152 111.5q8 4 24.5 4t56.5 -22.5t40 -34.5q0 -4 -4 -6q-82 -35 -217 -103.5t-141 -68.5t-25.5 10t-19.5 14z" />
<glyph unicode="&#xce;" horiz-adv-x="835" d="M8 1145q0 4 4 20q39 113 113 174.5t144.5 76t174.5 14.5h463q-141 -109 -389 -672q-63 -143 -144 -375.5t-81 -339.5q0 -29 8 -43h-264q57 248 242 688q246 586 317 666q-174 -4 -353.5 -70.5t-207.5 -159.5q-2 -6 -8 -6q-18 0 -19 27zM518 1518v2q197 160 299 266 q16 18 33.5 18t49.5 -46t77 -114.5t70 -99.5v-2q0 -6 -30 -22.5t-46 -16.5q-29 0 -79 74t-75 129q-68 -66 -150.5 -130.5t-115.5 -64.5t-33 7z" />
<glyph unicode="&#xcf;" horiz-adv-x="835" d="M8 1145q0 4 4 20q39 113 113 174.5t144.5 76t174.5 14.5h463q-141 -109 -389 -672q-63 -143 -144 -375.5t-81 -339.5q0 -29 8 -43h-264q57 248 242 688q246 586 317 666q-174 -4 -353.5 -70.5t-207.5 -159.5q-2 -6 -8 -6q-18 0 -19 27zM469 1589q0 35 50 106.5t93 71.5 q23 0 43.5 -30.5t20.5 -54t-12 -25.5q-41 -10 -85 -56.5t-67 -46.5q-43 0 -43 35zM852 1589q0 35 50 106.5t93 71.5q23 0 43.5 -30.5t20.5 -54t-12 -25.5q-41 -10 -85 -56.5t-67 -46.5q-43 0 -43 35z" />
<glyph unicode="&#xd0;" horiz-adv-x="1497" d="M0 1133.5q0 11.5 2 15.5q78 213 285 260q94 20 252 21h419q291 0 432.5 -158t141.5 -402q0 -59 -10 -137q-39 -242 -182.5 -420t-348.5 -266t-444 -88q-444 0 -445 227q0 92 24 163t32 93q31 92 61 152h-203q-2 0 -2 11t29 56.5t47 45.5h174q119 283 208 457.5t95 183.5 q-162 -12 -329.5 -71.5t-219.5 -148.5q-2 -6 -10 -6t-8 11.5zM324 159q0 -63 41 -87.5t145 -24.5q285 0 508 191.5t289 478.5q23 94 22 180q0 199 -117 330q-66 72 -179 105.5t-212 33.5q-150 -199 -338 -659h240q2 0 2 -11.5t-28.5 -56.5t-47.5 -45h-209q-4 -12 -19 -49 t-21.5 -53.5t-18.5 -51t-18.5 -54t-15.5 -51.5t-13 -56q-10 -57 -10 -120z" />
<glyph unicode="&#xd1;" horiz-adv-x="1439" d="M78 0q117 299 334 788.5t264 581.5q-186 0 -363.5 -73.5t-208.5 -172.5q-2 -6 -8 -6q-16 0 -16 27q0 4 16.5 55t62.5 106.5t107 82.5q100 41 248 41h346q-29 -47 -29 -115q0 -152 117 -426q106 -256 126 -326.5t25 -93.5t7 -53.5t4 -38.5q27 66 457 1053q4 10 37.5 10 t89 -6.5t63.5 -6.5q-82 -53 -230.5 -343.5t-264 -607t-115.5 -439.5q0 -27 4 -37h-129q-6 119 -42 208t-54.5 133t-63.5 146.5t-80 184.5q-106 248 -120 422q-135 -301 -266.5 -637t-131.5 -439q0 -14 2 -18h-188zM966.5 1692.5q0.5 19.5 53.5 79t103.5 59.5t144.5 -38 t136 -38t65.5 21.5t38 42t26.5 20.5q18 0 18 -16q0 -7 -4 -15q-86 -147 -164 -147q-47 0 -133 37t-136 37t-87 -31t-39 -31q-23 0 -22.5 19.5z" />
<glyph unicode="&#xd2;" horiz-adv-x="1562" d="M6 383q0 203 85 398.5t224.5 342t330 236.5t388.5 90q260 0 390 -128t130 -319.5t-84 -381.5q-135 -307 -385.5 -497t-570.5 -190q-508 0 -508 449zM246 381q0 -162 71.5 -262.5t228 -100.5t314.5 94.5t270.5 241t183 325.5t70.5 343q0 334 -299 334 q-217 0 -414.5 -149.5t-311 -375t-113.5 -450.5zM877 1712q0 12 40.5 34.5t57 22.5t24.5 -4q37 -27 107 -77l119 -89q47 -35 61 -40q0 -6 -20.5 -15.5t-25.5 -9.5t-62 29l-146 71q-88 45 -121.5 59.5t-33.5 18.5z" />
<glyph unicode="&#xd3;" horiz-adv-x="1562" d="M6 383q0 203 85 398.5t224.5 342t330 236.5t388.5 90q260 0 390 -128t130 -319.5t-84 -381.5q-135 -307 -385.5 -497t-570.5 -190q-508 0 -508 449zM246 381q0 -162 71.5 -262.5t228 -100.5t314.5 94.5t270.5 241t183 325.5t70.5 343q0 334 -299 334 q-217 0 -414.5 -149.5t-311 -375t-113.5 -450.5zM991 1563q18 10 134 95t153 111q8 4 24.5 4.5t56.5 -22t40 -35.5q0 -4 -4 -6q-82 -35 -217.5 -103.5t-141.5 -68.5t-25.5 10.5t-19.5 14.5z" />
<glyph unicode="&#xd4;" horiz-adv-x="1562" d="M6 383q0 203 85 398.5t224.5 342t330 236.5t388.5 90q260 0 390 -128t130 -319.5t-84 -381.5q-135 -307 -385.5 -497t-570.5 -190q-508 0 -508 449zM246 381q0 -162 71.5 -262.5t228 -100.5t314.5 94.5t270.5 241t183 325.5t70.5 343q0 334 -299 334 q-217 0 -414.5 -149.5t-311 -375t-113.5 -450.5zM879 1561v2q197 160 299 266q16 18 33.5 18t49 -46t76.5 -114.5t70 -99.5v-2q0 -6 -29.5 -22.5t-46.5 -16.5q-29 0 -79 74t-74 129q-68 -66 -151 -130.5t-115.5 -64.5t-32.5 7z" />
<glyph unicode="&#xd5;" horiz-adv-x="1562" d="M6 383q0 203 85 398.5t224.5 342t330 236.5t388.5 90q260 0 390 -128t130 -319.5t-84 -381.5q-135 -307 -385.5 -497t-570.5 -190q-508 0 -508 449zM246 381q0 -162 71.5 -262.5t228 -100.5t314.5 94.5t270.5 241t183 325.5t70.5 343q0 334 -299 334 q-217 0 -414.5 -149.5t-311 -375t-113.5 -450.5zM897 1692.5q0 19.5 53.5 79t103.5 59.5t144 -38t136 -38t65.5 21.5t38 42t26.5 20.5q18 0 19 -16q0 -7 -4 -15q-86 -147 -164 -147q-47 0 -133 37t-136.5 37t-87 -31t-38.5 -31q-23 0 -23 19.5z" />
<glyph unicode="&#xd6;" horiz-adv-x="1562" d="M6 383q0 203 85 398.5t224.5 342t330 236.5t388.5 90q260 0 390 -128t130 -319.5t-84 -381.5q-135 -307 -385.5 -497t-570.5 -190q-508 0 -508 449zM246 381q0 -162 71.5 -262.5t228 -100.5t314.5 94.5t270.5 241t183 325.5t70.5 343q0 334 -299 334 q-217 0 -414.5 -149.5t-311 -375t-113.5 -450.5zM862 1665q0 35 50.5 106.5t93.5 71.5q23 0 43 -30.5t20 -54t-12 -25.5q-41 -10 -85 -56.5t-67 -46.5q-43 0 -43 35zM1245 1665q0 35 50.5 106.5t93.5 71.5q23 0 43 -30.5t20 -54t-12 -25.5q-41 -10 -85 -56.5t-67 -46.5 q-43 0 -43 35z" />
<glyph unicode="&#xd7;" horiz-adv-x="1515" d="M315.5 214q-0.5 32 9 77t21.5 53l383 272l-276 267q-6 6 -6.5 29.5t16 79t24.5 55.5h2l359 -347l485 347h2q4 0 4 -29q0 -113 -30 -135l-375 -267l285 -272q6 -6 6 -30.5t-15.5 -78t-25.5 -53.5l-367 350l-493 -350h-2q-6 0 -6.5 32z" />
<glyph unicode="&#xd8;" horiz-adv-x="1562" d="M6 381q0 266 138.5 511t371 398.5t492.5 159.5q158 0 268 -39l31 41q6 6 56 6t50 -14v-2l-51 -72q193 -121 192 -387q0 -167 -84 -362q-135 -307 -385.5 -497t-570.5 -190q-90 0 -172 17l-49 -70q-4 -6 -55.5 -6t-51.5 14v2l62 86q-242 92 -242 404zM252 361 q0 -171 84 -261l885 1233q-57 23 -123 23q-160 0 -316.5 -92.5t-271.5 -234.5t-186.5 -319.5t-71.5 -348.5zM412 45q59 -27 133 -27q160 0 317.5 95.5t270 241t182 324.5t69.5 350t-86 253z" />
<glyph unicode="&#xd9;" horiz-adv-x="1529" d="M20 1145q0 4 17.5 55t65 106.5t106.5 82.5q100 41 248 41h465q-94 -72 -232.5 -332t-218.5 -459q-113 -260 -113 -392t105 -132q88 0 227 126t275 308q266 362 374.5 564t168 259.5t130.5 57.5h127q-96 -74 -280 -443q-276 -557 -277 -801q0 -113 72 -112q35 0 82 26h2 q6 0 6 -12q0 -39 -102.5 -71.5t-165.5 -32.5q-131 0 -131 151q0 76 53 243t135 345q-305 -455 -454 -588q-166 -150 -308 -149q-236 0 -235 227q0 168 123.5 478t283.5 599q37 59 39 64q-174 -4 -353 -70.5t-208 -159.5q-2 -6 -8 -6q-18 0 -19 27zM1008 1706q0 12 41 34.5 t57 22.5t24 -4q37 -27 107 -80l119 -86q47 -35 61 -41q0 -6 -20.5 -15t-25.5 -9t-62 28l-146 74q-88 43 -121.5 58.5t-33.5 17.5z" />
<glyph unicode="&#xda;" horiz-adv-x="1529" d="M20 1145q0 4 17.5 55t65 106.5t106.5 82.5q100 41 248 41h465q-94 -72 -232.5 -332t-218.5 -459q-113 -260 -113 -392t105 -132q88 0 227 126t275 308q266 362 374.5 564t168 259.5t130.5 57.5h127q-96 -74 -280 -443q-276 -557 -277 -801q0 -113 72 -112q35 0 82 26h2 q6 0 6 -12q0 -39 -102.5 -71.5t-165.5 -32.5q-131 0 -131 151q0 76 53 243t135 345q-305 -455 -454 -588q-166 -150 -308 -149q-236 0 -235 227q0 168 123.5 478t283.5 599q37 59 39 64q-174 -4 -353 -70.5t-208 -159.5q-2 -6 -8 -6q-18 0 -19 27zM1102 1546q18 10 134 95 t153 112q8 4 24.5 4t56 -22.5t39.5 -34.5q0 -4 -4 -6q-82 -35 -217 -103.5t-141 -68.5t-25.5 10t-19.5 14z" />
<glyph unicode="&#xdb;" horiz-adv-x="1529" d="M20 1145q0 4 17.5 55t65 106.5t106.5 82.5q100 41 248 41h465q-94 -72 -232.5 -332t-218.5 -459q-113 -260 -113 -392t105 -132q88 0 227 126t275 308q266 362 374.5 564t168 259.5t130.5 57.5h127q-96 -74 -280 -443q-276 -557 -277 -801q0 -113 72 -112q35 0 82 26h2 q6 0 6 -12q0 -39 -102.5 -71.5t-165.5 -32.5q-131 0 -131 151q0 76 53 243t135 345q-305 -455 -454 -588q-166 -150 -308 -149q-236 0 -235 227q0 168 123.5 478t283.5 599q37 59 39 64q-174 -4 -353 -70.5t-208 -159.5q-2 -6 -8 -6q-18 0 -19 27zM999 1518v2 q197 160 299 266q16 18 34 18t49.5 -46t76.5 -114.5t70 -99.5v-2q0 -6 -30 -22.5t-46 -16.5q-29 0 -79 74t-75 129q-68 -66 -150.5 -130.5t-115.5 -64.5t-33 7z" />
<glyph unicode="&#xdc;" horiz-adv-x="1529" d="M20 1145q0 4 17.5 55t65 106.5t106.5 82.5q100 41 248 41h465q-94 -72 -232.5 -332t-218.5 -459q-113 -260 -113 -392t105 -132q88 0 227 126t275 308q266 362 374.5 564t168 259.5t130.5 57.5h127q-96 -74 -280 -443q-276 -557 -277 -801q0 -113 72 -112q35 0 82 26h2 q6 0 6 -12q0 -39 -102.5 -71.5t-165.5 -32.5q-131 0 -131 151q0 76 53 243t135 345q-305 -455 -454 -588q-166 -150 -308 -149q-236 0 -235 227q0 168 123.5 478t283.5 599q37 59 39 64q-174 -4 -353 -70.5t-208 -159.5q-2 -6 -8 -6q-18 0 -19 27zM940 1579q0 35 50 106.5 t93 71.5q23 0 43.5 -30.5t20.5 -54t-12 -25.5q-41 -10 -85 -56.5t-67 -46.5q-43 0 -43 35zM1323 1579q0 35 50 106.5t93 71.5q23 0 43.5 -30.5t20.5 -54t-12 -25.5q-41 -10 -85 -56.5t-67 -46.5q-43 0 -43 35z" />
<glyph unicode="&#xdd;" horiz-adv-x="1400" d="M8 1122.5q0 16.5 2 18.5q72 145 152 213.5t202.5 68.5t178 -63.5t112 -255t111.5 -414.5q43 59 229.5 325.5t268.5 373.5q33 43 168 43q23 0 62.5 -1t53.5 -1q-193 -133 -381 -347q-233 -264 -372 -569q-78 -174 -115 -350q-16 -76 -16 -113t8 -51h-264q8 35 80.5 254 t72.5 316.5t-47 261t-126 300t-152 136.5q-92 0 -213 -160q-2 -2 -5 -2q-10 0 -10 16.5zM807 1511q18 10 134 95.5t153 111.5q8 4 24.5 4t56 -22.5t39.5 -34.5q0 -4 -4 -6q-82 -35 -217 -103.5t-141 -68.5t-25.5 10t-19.5 14z" />
<glyph unicode="&#xde;" horiz-adv-x="1021" d="M-111 840q0 4 17.5 55t64.5 106.5t107 79.5q100 43 248 43h182q86 160 160 262q71 97 196 97l88 -6q29 0 60 4q-82 -53 -267 -357h97q188 0 284.5 -81.5t96.5 -206.5q0 -221 -224.5 -372t-562.5 -151q-47 0 -94 6q-170 -430 -170 -581q0 -23 8 -43h-264q82 338 346 932 q10 23 45 104q61 152 119 238l41 80q-172 -4 -347 -72t-204 -158q-2 -6 -8 -6q-18 0 -19 27zM354 352h25q149 0 295.5 51.5t240 156t93.5 251.5q0 236 -281 252q-145 -186 -330 -610z" />
<glyph unicode="&#xdf;" horiz-adv-x="1114" d="M-672 -355.5q0 64.5 34 105.5t73 41q80 0 80 -57q0 -12 -28 -54t-28 -71q0 -66 74 -66q33 0 88 27t120.5 101.5t113 154.5t100.5 203t84 209t77 222t75.5 216t48 130t62.5 148.5t78 152.5t92 127t116 109q143 96 307 97q106 0 199.5 -59.5t93.5 -168.5q0 -76 -48 -133 t-118 -94t-139.5 -72.5t-117.5 -89t-48 -113t29.5 -101.5t72.5 -73.5t86 -64.5q102 -82 103 -197q0 -57 -30 -108t-71 -82q70 29 139.5 105.5t112.5 151.5t76 133t42 58t9.5 -40.5t-22.5 -77.5q-135 -231 -268.5 -340t-344.5 -109q-109 0 -183.5 43t-74.5 123q0 49 29 91 t79 42t64 -37q-39 -39 -39 -90q0 -102 115 -102q68 0 118 47t50 97t-21.5 93t-87 107.5t-111.5 127t-46 141.5t51 136.5t125 95.5t148.5 75.5t125.5 100t51 143.5t-46 120t-111 39q-248 0 -512 -721q-6 -14 -11.5 -29.5t-39 -106.5t-48 -128t-46 -119t-52 -130t-49.5 -116 q-45 -104 -124 -239.5t-177 -213t-237.5 -77.5t-201 51t-61.5 115.5z" />
<glyph unicode="&#xe0;" horiz-adv-x="968" d="M57 182q0 143 62.5 291t179.5 251t256 103q66 0 123 -29.5t76 -95.5q23 47 69.5 82t87.5 35l103 -2h20q-68 -55 -166 -279.5t-98 -326.5q0 -53 37 -53q119 0 303 350q8 14 14 14q12 0 12.5 -38t-20.5 -72q-252 -424 -422 -424q-111 0 -110 170q0 127 43 250 q-233 -414 -432 -414q-137 0 -138 188zM256 227q0 -63 49 -63q53 0 125 66.5t129 156.5q127 201 182 297q-20 66 -96 66q-135 0 -262 -187.5t-127 -335.5zM508 1208q0 12 41 35t57.5 23t24.5 -4q37 -27 106 -78l119 -88q47 -35 62 -41q0 -6 -20.5 -15.5t-26 -9.5t-62.5 29 l-145 71q-88 45 -122 59.5t-34 18.5z" />
<glyph unicode="&#xe1;" horiz-adv-x="968" d="M57 182q0 143 62.5 291t179.5 251t256 103q66 0 123 -29.5t76 -95.5q23 47 69.5 82t87.5 35l103 -2h20q-68 -55 -166 -279.5t-98 -326.5q0 -53 37 -53q119 0 303 350q8 14 14 14q12 0 12.5 -38t-20.5 -72q-252 -424 -422 -424q-111 0 -110 170q0 127 43 250 q-233 -414 -432 -414q-137 0 -138 188zM256 227q0 -63 49 -63q53 0 125 66.5t129 156.5q127 201 182 297q-20 66 -96 66q-135 0 -262 -187.5t-127 -335.5zM557 1057q18 10 134 95t153 112q8 4 24.5 4t56.5 -22.5t40 -35.5q0 -4 -4 -6q-82 -35 -217.5 -103.5t-141.5 -68.5 t-25.5 10.5t-19.5 14.5z" />
<glyph unicode="&#xe2;" horiz-adv-x="968" d="M57 182q0 143 62.5 291t179.5 251t256 103q66 0 123 -29.5t76 -95.5q23 47 69.5 82t87.5 35l103 -2h20q-68 -55 -166 -279.5t-98 -326.5q0 -53 37 -53q119 0 303 350q8 14 14 14q12 0 12.5 -38t-20.5 -72q-252 -424 -422 -424q-111 0 -110 170q0 127 43 250 q-233 -414 -432 -414q-137 0 -138 188zM256 227q0 -63 49 -63q53 0 125 66.5t129 156.5q127 201 182 297q-20 66 -96 66q-135 0 -262 -187.5t-127 -335.5zM446 1020v2q197 160 299 266q16 18 34 18.5t49.5 -46t76.5 -114.5t70 -99v-3q0 -6 -30 -22t-46 -16q-29 0 -79 73.5 t-75 128.5q-68 -66 -150.5 -130t-115.5 -64t-33 6z" />
<glyph unicode="&#xe3;" horiz-adv-x="968" d="M57 182q0 143 62.5 291t179.5 251t256 103q66 0 123 -29.5t76 -95.5q23 47 69.5 82t87.5 35l103 -2h20q-68 -55 -166 -279.5t-98 -326.5q0 -53 37 -53q119 0 303 350q8 14 14 14q12 0 12.5 -38t-20.5 -72q-252 -424 -422 -424q-111 0 -110 170q0 127 43 250 q-233 -414 -432 -414q-137 0 -138 188zM256 227q0 -63 49 -63q53 0 125 66.5t129 156.5q127 201 182 297q-20 66 -96 66q-135 0 -262 -187.5t-127 -335.5zM469 1098.5q0 19.5 53 79t103.5 59.5t144.5 -38t136 -38t65.5 21.5t38 42t26.5 20.5q18 0 19 -16q0 -7 -4 -15 q-86 -147 -164 -147q-47 0 -133 37t-136.5 37t-87 -31t-38.5 -31q-23 0 -23 19.5z" />
<glyph unicode="&#xe4;" horiz-adv-x="968" d="M57 182q0 143 62.5 291t179.5 251t256 103q66 0 123 -29.5t76 -95.5q23 47 69.5 82t87.5 35l103 -2h20q-68 -55 -166 -279.5t-98 -326.5q0 -53 37 -53q119 0 303 350q8 14 14 14q12 0 12.5 -38t-20.5 -72q-252 -424 -422 -424q-111 0 -110 170q0 127 43 250 q-233 -414 -432 -414q-137 0 -138 188zM256 227q0 -63 49 -63q53 0 125 66.5t129 156.5q127 201 182 297q-20 66 -96 66q-135 0 -262 -187.5t-127 -335.5zM467 1075q0 35 50 106.5t93 71.5q23 0 43.5 -30.5t20.5 -54t-12 -25.5q-41 -10 -85.5 -56.5t-66.5 -46.5 q-43 0 -43 35zM850 1075q0 35 50 106.5t93 71.5q23 0 43.5 -30.5t20 -54t-12.5 -25.5q-41 -10 -85 -56.5t-66 -46.5q-43 0 -43 35z" />
<glyph unicode="&#xe5;" horiz-adv-x="968" d="M57 182q0 143 62.5 291t179.5 251t256 103q66 0 123 -29.5t76 -95.5q23 47 69.5 82t87.5 35l103 -2h20q-68 -55 -166 -279.5t-98 -326.5q0 -53 37 -53q119 0 303 350q8 14 14 14q12 0 12.5 -38t-20.5 -72q-252 -424 -422 -424q-111 0 -110 170q0 127 43 250 q-233 -414 -432 -414q-137 0 -138 188zM256 227q0 -63 49 -63q53 0 125 66.5t129 156.5q127 201 182 297q-20 66 -96 66q-135 0 -262 -187.5t-127 -335.5zM592 1126q0 90 74.5 165t191.5 75q74 0 113 -38t39 -95q-1 -24 -11 -59q-25 -76 -94 -129.5t-154 -53.5t-122 38 t-37 97zM700 1128q0 -80 78 -79q68 0 118 62.5t50 130t-61 75.5l-21 2q-66 0 -115 -62.5t-49 -128.5z" />
<glyph unicode="&#xe6;" horiz-adv-x="1265" d="M57 182q0 143 62.5 291t179.5 251t256 103q66 0 123 -29.5t76 -95.5q20 43 66 80t91 37l103 -2h20q-14 -12 -41 -53q98 51 175 51t113 -36t36 -79q0 -152 -111.5 -230.5t-221.5 -78.5t-159 27l-20 -58q-16 -43 -18.5 -123.5t34.5 -127t117 -46.5t171 67t155.5 149.5 t146.5 238.5q8 14 14 14q12 0 12.5 -39.5t-32.5 -95t-64.5 -104.5t-85 -114.5t-104.5 -104.5q-129 -94 -258 -94t-210 65.5t-81 196.5q0 70 33 151q-133 -199 -235.5 -299t-204.5 -100q-137 0 -138 188zM256 227q0 -63 49 -63q53 0 125 66.5t129 156.5q127 201 182 297 q-20 66 -96 66q-135 0 -262 -187.5t-127 -335.5zM874 496q0 -41 78 -41t163 75.5t93 163.5q0 59 -57 60q-80 0 -178.5 -98.5t-98.5 -159.5z" />
<glyph unicode="&#xe7;" horiz-adv-x="733" d="M-20 -426q0 133 87 222t216 89h8l41 95q2 8 23.5 8t21.5 -6l-39 -129q-2 -8 -19.5 -6.5t-29.5 1.5q-72 0 -137.5 -94t-65.5 -188t82 -94q76 0 149 77q4 4 9.5 4.5t5.5 -14.5q0 -49 -64.5 -83t-139.5 -34t-111.5 42t-36.5 110zM70 242q0 215 152.5 394t359.5 179 q92 0 147 -48t55 -114.5t-36.5 -116t-83.5 -49.5q-92 0 -93 76q0 25 52 47q20 8 36.5 31t16.5 59q0 53 -58 54q-123 0 -243.5 -178.5t-120.5 -345.5t145 -167q203 0 396 314q39 61 64.5 104t29.5 43q12 0 12 -39t-33.5 -96t-53 -87t-67 -95.5t-82 -94t-87.5 -67.5 q-90 -66 -234.5 -65.5t-209 73t-64.5 189.5z" />
<glyph unicode="&#xe8;" horiz-adv-x="733" d="M70 250q0 209 153.5 387t358.5 178q92 0 147 -48t55 -116q0 -115 -108.5 -184.5t-255.5 -69.5q-86 0 -127 23q-39 -104 -39 -184q0 -172 145 -173q86 0 177.5 67t156 149.5t146.5 238.5q8 14 14 14q12 0 12 -39.5t-32.5 -95t-64.5 -104.5t-85 -114.5t-105 -104.5 q-129 -94 -259 -94t-209.5 66.5t-79.5 203.5zM342 496q0 -41 78 -41t163 75.5t93 163.5q0 59 -58 60q-80 0 -178 -98.5t-98 -159.5zM373 1184q0 12 41 34.5t57 22.5t25 -4q37 -27 106 -78l119 -88q47 -35 61 -41q0 -6 -20.5 -15t-25.5 -9t-62 28l-146 72q-88 45 -121.5 59.5 t-33.5 18.5z" />
<glyph unicode="&#xe9;" horiz-adv-x="733" d="M70 250q0 209 153.5 387t358.5 178q92 0 147 -48t55 -116q0 -115 -108.5 -184.5t-255.5 -69.5q-86 0 -127 23q-39 -104 -39 -184q0 -172 145 -173q86 0 177.5 67t156 149.5t146.5 238.5q8 14 14 14q12 0 12 -39.5t-32.5 -95t-64.5 -104.5t-85 -114.5t-105 -104.5 q-129 -94 -259 -94t-209.5 66.5t-79.5 203.5zM342 496q0 -41 78 -41t163 75.5t93 163.5q0 59 -58 60q-80 0 -178 -98.5t-98 -159.5zM528 1022q18 10 134 95t153 112q8 4 24.5 4t56.5 -22.5t40 -34.5q0 -5 -4 -7q-82 -35 -217 -103.5t-141.5 -68.5t-26 10.5t-19.5 14.5z" />
<glyph unicode="&#xea;" horiz-adv-x="733" d="M70 250q0 209 153.5 387t358.5 178q92 0 147 -48t55 -116q0 -115 -108.5 -184.5t-255.5 -69.5q-86 0 -127 23q-39 -104 -39 -184q0 -172 145 -173q86 0 177.5 67t156 149.5t146.5 238.5q8 14 14 14q12 0 12 -39.5t-32.5 -95t-64.5 -104.5t-85 -114.5t-105 -104.5 q-129 -94 -259 -94t-209.5 66.5t-79.5 203.5zM342 496q0 -41 78 -41t163 75.5t93 163.5q0 59 -58 60q-80 0 -178 -98.5t-98 -159.5zM393 1028v2q197 160 299 266q16 18 33.5 18.5t49.5 -45.5t77 -114.5t70 -99.5v-2q0 -6 -30 -22.5t-46 -16.5q-29 0 -79 73.5t-75 129.5 q-68 -66 -150.5 -130.5t-115.5 -64.5t-33 6z" />
<glyph unicode="&#xeb;" horiz-adv-x="733" d="M70 250q0 209 153.5 387t358.5 178q92 0 147 -48t55 -116q0 -115 -108.5 -184.5t-255.5 -69.5q-86 0 -127 23q-39 -104 -39 -184q0 -172 145 -173q86 0 177.5 67t156 149.5t146.5 238.5q8 14 14 14q12 0 12 -39.5t-32.5 -95t-64.5 -104.5t-85 -114.5t-105 -104.5 q-129 -94 -259 -94t-209.5 66.5t-79.5 203.5zM342 496q0 -41 78 -41t163 75.5t93 163.5q0 59 -58 60q-80 0 -178 -98.5t-98 -159.5zM410 1073q0 35 50 106.5t93 71.5q23 0 43 -30.5t20 -54t-12 -25.5q-41 -10 -85 -56.5t-66 -46.5q-43 0 -43 35zM793 1073q0 35 50 106.5 t93 71.5q23 0 43 -30.5t20 -54t-12 -25.5q-41 -10 -85 -56.5t-66 -46.5q-43 0 -43 35z" />
<glyph unicode="&#xec;" horiz-adv-x="444" d="M51 147q0 248 170 549q72 123 160 123l102 -2h21q-33 -25 -87.5 -133.5t-81 -163.5t-60 -149.5t-33.5 -153.5t39 -59q27 0 74.5 35.5t78.5 75.5t69 101.5t65.5 106.5t31.5 45q12 0 12 -38t-20 -72q-76 -127 -138.5 -212t-142.5 -148.5t-145 -63.5q-115 0 -115 159z M211 1202q0 12 41 35t57.5 23t24.5 -5q37 -27 108 -79l117 -86q47 -35 62 -41q0 -6 -20.5 -15.5t-26 -9.5t-62.5 29l-145 73q-88 43 -122 58.5t-34 17.5z" />
<glyph unicode="&#xed;" horiz-adv-x="444" d="M51 147q0 248 170 549q72 123 160 123l102 -2h21q-33 -25 -87.5 -133.5t-81 -163.5t-60 -149.5t-33.5 -153.5t39 -59q27 0 74.5 35.5t78.5 75.5t69 101.5t65.5 106.5t31.5 45q12 0 12 -38t-20 -72q-76 -127 -138.5 -212t-142.5 -148.5t-145 -63.5q-115 0 -115 159z M344 1055q18 10 134 95t153 112q8 4 24.5 4t56.5 -22.5t40 -35.5q0 -4 -4 -6q-82 -35 -217.5 -103.5t-141.5 -68.5t-25.5 10.5t-19.5 14.5z" />
<glyph unicode="&#xee;" horiz-adv-x="444" d="M51 147q0 248 170 549q72 123 160 123l102 -2h21q-33 -25 -87.5 -133.5t-81 -163.5t-60 -149.5t-33.5 -153.5t39 -59q27 0 74.5 35.5t78.5 75.5t69 101.5t65.5 106.5t31.5 45q12 0 12 -38t-20 -72q-76 -127 -138.5 -212t-142.5 -148.5t-145 -63.5q-115 0 -115 159z M209 1016v2q197 160 299 266q16 18 33.5 18.5t49.5 -46t76.5 -115t69.5 -99.5v-2q0 -6 -29.5 -22.5t-45.5 -16.5q-29 0 -79.5 74t-74.5 129q-68 -66 -151 -130t-115.5 -64t-32.5 6z" />
<glyph unicode="&#xef;" horiz-adv-x="444" d="M51 147q0 248 170 549q72 123 160 123l102 -2h21q-33 -25 -87.5 -133.5t-81 -163.5t-60 -149.5t-33.5 -153.5t39 -59q27 0 74.5 35.5t78.5 75.5t69 101.5t65.5 106.5t31.5 45q12 0 12 -38t-20 -72q-76 -127 -138.5 -212t-142.5 -148.5t-145 -63.5q-115 0 -115 159z M172 1077q0 35 50 106.5t93 71.5q23 0 43.5 -30.5t20.5 -54t-12 -25.5q-41 -10 -85 -56.5t-67 -46.5q-43 0 -43 35zM555 1077q0 35 50 106.5t93 71.5q23 0 43.5 -30.5t20.5 -54t-12 -25.5q-41 -10 -85 -56.5t-67 -46.5q-43 0 -43 35z" />
<glyph unicode="&#xf0;" horiz-adv-x="987" d="M-41 1271.5q0 65.5 66.5 119t205.5 53.5q201 0 363 -127l180 119q6 0 6 -25q0 -86 -24 -104l-88 -56q118 -121 185 -289.5t67 -328.5t-61.5 -309.5t-195 -257t-292 -107.5t-235.5 105.5t-77 261t62.5 297t182.5 238.5t265 97q29 0 29 -11t-33 -23q-88 -29 -160.5 -127.5 t-110.5 -220t-38 -234.5q0 -266 207 -266q135 0 218 132t83 291.5t-66.5 340t-173.5 317.5q-176 -111 -276 -178h-2q-4 0 -4 22q0 90 26 107l193 123q-143 150 -289 149q-84 0 -84 -71q0 -35 31 -74t31 -59.5t-22 -37t-60.5 -16.5t-73.5 42t-35 107.5z" />
<glyph unicode="&#xf1;" horiz-adv-x="892" d="M-43 0q0 43 180 494q74 211 74 294q0 20 -6 31h86q72 0 92 -14t20 -39t-22 -100q172 164 346 163q117 0 117 -106q0 -35 -10.5 -70t-51.5 -139q-90 -229 -90 -307q0 -49 37 -49q27 0 75 36.5t79.5 76.5t69.5 100.5t64.5 105.5t31.5 45q12 0 11.5 -37.5t-20.5 -72.5 q-76 -127 -138 -212t-142 -148.5t-146 -63.5q-121 0 -120.5 133t153.5 534q8 18 8 39q0 43 -54 43t-106.5 -33.5t-95.5 -96t-77.5 -127t-64.5 -148.5t-47 -140.5t-34.5 -121t-19.5 -70.5h-199zM344 1074.5q0 19.5 53.5 78.5t103.5 59t144 -37.5t136 -37.5t65.5 21.5t38 42 t26.5 20.5q18 0 19 -17q0 -6 -4 -14q-86 -147 -164 -148q-47 0 -133 37t-136.5 37t-87 -30.5t-38.5 -30.5q-23 0 -23 19.5z" />
<glyph unicode="&#xf2;" d="M72 237q0 128 58 264t176 234.5t263 98.5q244 0 244 -259q0 -98 -43 -206q31 -43 88 -43q107 0 201 178q6 12 12 12q12 0 12 -31q0 -98 -78.5 -162.5t-147.5 -64.5t-118 39q-74 -145 -175 -229t-261 -84q-102 0 -166.5 62.5t-64.5 190.5zM268 190.5q0 -122.5 107 -129.5 q88 0 162.5 93.5t126.5 205.5q-70 59 -70 150q0 55 29.5 88t81.5 33h12q-8 109 -99 108q-141 0 -276 -274q-74 -152 -74 -274.5zM356 1196q0 12 41 34.5t57.5 22.5t24.5 -4q37 -27 107 -78l119 -88q47 -35 61 -41q0 -6 -20.5 -15t-25.5 -9t-63 29l-145 71q-88 45 -122 59.5 t-34 18.5z" />
<glyph unicode="&#xf3;" d="M72 237q0 128 58 264t176 234.5t263 98.5q244 0 244 -259q0 -98 -43 -206q31 -43 88 -43q107 0 201 178q6 12 12 12q12 0 12 -31q0 -98 -78.5 -162.5t-147.5 -64.5t-118 39q-74 -145 -175 -229t-261 -84q-102 0 -166.5 62.5t-64.5 190.5zM268 190.5q0 -122.5 107 -129.5 q88 0 162.5 93.5t126.5 205.5q-70 59 -70 150q0 55 29.5 88t81.5 33h12q-8 109 -99 108q-141 0 -276 -274q-74 -152 -74 -274.5zM479 1042q18 10 134 95.5t153 111.5q8 4 24.5 4t56.5 -22.5t40 -34.5q0 -4 -4 -6q-82 -35 -217.5 -103.5t-141.5 -68.5t-25.5 10t-19.5 14z" />
<glyph unicode="&#xf4;" d="M72 237q0 128 58 264t176 234.5t263 98.5q244 0 244 -259q0 -98 -43 -206q31 -43 88 -43q107 0 201 178q6 12 12 12q12 0 12 -31q0 -98 -78.5 -162.5t-147.5 -64.5t-118 39q-74 -145 -175 -229t-261 -84q-102 0 -166.5 62.5t-64.5 190.5zM268 190.5q0 -122.5 107 -129.5 q88 0 162.5 93.5t126.5 205.5q-70 59 -70 150q0 55 29.5 88t81.5 33h12q-8 109 -99 108q-141 0 -276 -274q-74 -152 -74 -274.5zM367 1001v3q197 160 299 266q16 18 33.5 18t49 -46t76.5 -114.5t70 -99.5v-2q0 -6 -29.5 -22.5t-46.5 -16.5q-29 0 -79 74t-74 129 q-68 -66 -151 -130.5t-115.5 -64.5t-32.5 6z" />
<glyph unicode="&#xf5;" d="M72 237q0 128 58 264t176 234.5t263 98.5q244 0 244 -259q0 -98 -43 -206q31 -43 88 -43q107 0 201 178q6 12 12 12q12 0 12 -31q0 -98 -78.5 -162.5t-147.5 -64.5t-118 39q-74 -145 -175 -229t-261 -84q-102 0 -166.5 62.5t-64.5 190.5zM268 190.5q0 -122.5 107 -129.5 q88 0 162.5 93.5t126.5 205.5q-70 59 -70 150q0 55 29.5 88t81.5 33h12q-8 109 -99 108q-141 0 -276 -274q-74 -152 -74 -274.5zM335.5 1061.5q0.5 19.5 53.5 79t103.5 59.5t144.5 -38t136 -38t65.5 21.5t38 42t26.5 20.5q18 0 19 -16q0 -6 -4 -14q-86 -147 -164 -148 q-47 0 -133 37t-136.5 37t-87.5 -31t-39 -31q-23 0 -22.5 19.5z" />
<glyph unicode="&#xf6;" d="M72 237q0 128 58 264t176 234.5t263 98.5q244 0 244 -259q0 -98 -43 -206q31 -43 88 -43q107 0 201 178q6 12 12 12q12 0 12 -31q0 -98 -78.5 -162.5t-147.5 -64.5t-118 39q-74 -145 -175 -229t-261 -84q-102 0 -166.5 62.5t-64.5 190.5zM268 190.5q0 -122.5 107 -129.5 q88 0 162.5 93.5t126.5 205.5q-70 59 -70 150q0 55 29.5 88t81.5 33h12q-8 109 -99 108q-141 0 -276 -274q-74 -152 -74 -274.5zM406 1059q0 35 50 106.5t93 71.5q23 0 43 -30.5t20 -54.5t-12 -26q-41 -10 -85 -56t-66 -46q-43 0 -43 35zM788 1059q0 35 50.5 106.5 t93.5 71.5q23 0 43 -30.5t20 -54.5t-12 -26q-41 -10 -85 -56t-67 -46q-43 0 -43 35z" />
<glyph unicode="&#xf7;" horiz-adv-x="1509" d="M315 639q0 10 39.5 66.5t57.5 56.5h770q2 0 2 -10.5t-38 -66.5t-59 -56h-770q-2 0 -2 10zM526 343q0 28 48.5 57.5t93.5 29.5t45 -35q0 -20 -11.5 -30.5t-29.5 -34.5q-51 -63 -60 -64q-23 0 -54.5 24.5t-31.5 52.5zM764 965.5q0 27.5 47 56.5t102 29q35 0 35 -33 q0 -21 -14 -33q-72 -96 -84 -96q-23 0 -54.5 24.5t-31.5 52z" />
<glyph unicode="&#xf8;" d="M72 233q0 131 58 267.5t176 235t263 98.5q98 0 160 -48l113 179q6 10 39.5 10t33.5 -4v-2l-143 -228q41 -63 41 -163.5t-43 -208.5q31 -43 88 -43q107 0 201 178q6 12 12 12q12 0 12 -31q0 -98 -78.5 -162.5t-147.5 -64.5t-118 39q-74 -147 -176 -230t-266 -83h-4 l-133 -211q-6 -10 -40 -10.5t-34 4.5v2l141 225q-156 41 -155 239zM268 197q0 -63 27 -99l389 617q-20 25 -66 24q-141 0 -276 -274q-74 -152 -74 -268zM344 66q20 -4 31 -5q88 0 163 93t126 206q-53 43 -66 107z" />
<glyph unicode="&#xf9;" d="M55 158q0 84 59.5 277.5t145.5 318.5q20 31 44 38t89 7h99q-51 -70 -111 -189q-135 -281 -135 -411q0 -78 56 -78t134 108.5t167 281.5t104 196q75 118 145 118l98 -2q31 0 39 2q-57 -39 -164.5 -271t-107.5 -335q0 -61 41 -61q27 0 73 34.5t78.5 76.5t70.5 103.5 t65.5 106.5t31.5 45q12 0 12.5 -39t-22.5 -73q-254 -424 -424 -424q-115 0 -115 170q0 53 9 102q-193 -272 -367 -272q-51 0 -83 43t-32 127zM436 1186q0 12 41 34.5t57.5 22.5t24.5 -4q37 -27 109 -80l116 -86q47 -35 62 -41q0 -6 -20.5 -15t-25.5 -9t-63 28l-145 74 q-88 43 -122 58.5t-34 17.5z" />
<glyph unicode="&#xfa;" d="M55 158q0 84 59.5 277.5t145.5 318.5q20 31 44 38t89 7h99q-51 -70 -111 -189q-135 -281 -135 -411q0 -78 56 -78t134 108.5t167 281.5t104 196q75 118 145 118l98 -2q31 0 39 2q-57 -39 -164.5 -271t-107.5 -335q0 -61 41 -61q27 0 73 34.5t78.5 76.5t70.5 103.5 t65.5 106.5t31.5 45q12 0 12.5 -39t-22.5 -73q-254 -424 -424 -424q-115 0 -115 170q0 53 9 102q-193 -272 -367 -272q-51 0 -83 43t-32 127zM537 1034q18 10 133.5 95t152.5 112q8 4 24.5 4t56.5 -22.5t40 -34.5q0 -4 -4 -6q-82 -35 -217 -103.5t-141.5 -68.5t-25.5 10 t-19 14z" />
<glyph unicode="&#xfb;" d="M55 158q0 84 59.5 277.5t145.5 318.5q20 31 44 38t89 7h99q-51 -70 -111 -189q-135 -281 -135 -411q0 -78 56 -78t134 108.5t167 281.5t104 196q75 118 145 118l98 -2q31 0 39 2q-57 -39 -164.5 -271t-107.5 -335q0 -61 41 -61q27 0 73 34.5t78.5 76.5t70.5 103.5 t65.5 106.5t31.5 45q12 0 12.5 -39t-22.5 -73q-254 -424 -424 -424q-115 0 -115 170q0 53 9 102q-193 -272 -367 -272q-51 0 -83 43t-32 127zM449 1008v2q197 160 299 266q16 18 33.5 18t49 -46t76.5 -114.5t70 -99.5v-2q0 -6 -29.5 -22.5t-46.5 -16.5q-29 0 -79 74t-74 129 q-68 -66 -151 -130.5t-115.5 -64.5t-32.5 7z" />
<glyph unicode="&#xfc;" d="M55 158q0 84 59.5 277.5t145.5 318.5q20 31 44 38t89 7h99q-51 -70 -111 -189q-135 -281 -135 -411q0 -78 56 -78t134 108.5t167 281.5t104 196q75 118 145 118l98 -2q31 0 39 2q-57 -39 -164.5 -271t-107.5 -335q0 -61 41 -61q27 0 73 34.5t78.5 76.5t70.5 103.5 t65.5 106.5t31.5 45q12 0 12.5 -39t-22.5 -73q-254 -424 -424 -424q-115 0 -115 170q0 53 9 102q-193 -272 -367 -272q-51 0 -83 43t-32 127zM395 1067q0 35 50.5 106.5t93.5 71.5q23 0 43 -30.5t20 -54t-12 -25.5q-41 -10 -85 -56.5t-67 -46.5q-43 0 -43 35zM778 1067 q0 35 50.5 106.5t93.5 71.5q23 0 43 -30.5t20 -54t-12 -25.5q-41 -10 -85 -56.5t-67 -46.5q-43 0 -43 35z" />
<glyph unicode="&#xfd;" horiz-adv-x="870" d="M-102 -246q0 45 27.5 81t63.5 36t60.5 -16.5t34.5 -36.5q-37 -12 -37 -86q0 -39 27.5 -62.5t70.5 -23.5q166 0 279 297l117 311q-96 -121 -167 -181.5t-111 -72.5t-94 -12t-87 44t-32 129t49 242.5t106.5 249.5t121 119t171.5 27q8 0 8 -8.5t-12 -20.5 q-84 -74 -171 -264.5t-87 -321.5q0 -70 38 -69q74 0 189 147.5t176 294.5q8 20 23.5 59t21.5 53.5t19.5 40t23.5 35t27.5 23.5t36.5 18q59 13 110 13h84q-63 -39 -129 -193q-53 -129 -90 -234.5t-45 -128t-38 -109.5t-48 -134q-51 -143 -118.5 -227t-168 -134.5t-203 -50.5 t-175 40t-72.5 126zM547 1022q18 10 134 95t153 112q8 4 24 4t56 -22.5t40 -34.5q0 -5 -4 -7q-82 -35 -217 -103.5t-141 -68.5t-25.5 10.5t-19.5 14.5z" />
<glyph unicode="&#xfe;" horiz-adv-x="806" d="M-250 -508q61 88 135 301q18 49 54 152.5t57 158.5q14 66 31.5 107t62.5 195.5t91 298t107.5 291t143.5 237.5t172 90h62q-37 -23 -101 -131q-145 -250 -258 -645q78 119 174.5 199.5t180.5 80.5q137 0 137 -188q0 -158 -96.5 -314.5t-233.5 -261.5h14h2q152 0 322 218 q27 33 90.5 139t67.5 106q12 0 12 -37.5t-23 -76.5q-139 -252 -275 -349.5t-318.5 -97.5t-213.5 76l-6 22l-114 -358q-41 -121 -62.5 -156.5t-48.5 -46t-68 -10.5h-98zM184 149.5q0 -96.5 60 -96.5q72 0 158.5 106.5t142 234.5t55.5 189.5t-31 69.5q-6 2 -18 2 q-43 0 -94 -41q-84 -66 -178.5 -217t-94.5 -247.5z" />
<glyph unicode="&#xff;" horiz-adv-x="870" d="M-102 -246q0 45 27.5 81t63.5 36t60.5 -16.5t34.5 -36.5q-37 -12 -37 -86q0 -39 27.5 -62.5t70.5 -23.5q166 0 279 297l117 311q-96 -121 -167 -181.5t-111 -72.5t-94 -12t-87 44t-32 129t49 242.5t106.5 249.5t121 119t171.5 27q8 0 8 -8.5t-12 -20.5 q-84 -74 -171 -264.5t-87 -321.5q0 -70 38 -69q74 0 189 147.5t176 294.5q8 20 23.5 59t21.5 53.5t19.5 40t23.5 35t27.5 23.5t36.5 18q59 13 110 13h84q-63 -39 -129 -193q-53 -129 -90 -234.5t-45 -128t-38 -109.5t-48 -134q-51 -143 -118.5 -227t-168 -134.5t-203 -50.5 t-175 40t-72.5 126zM428 1048.5q0 34.5 50 106.5t93 72q23 0 43.5 -31t20.5 -54.5t-12 -25.5q-41 -10 -85 -56t-67 -46q-43 0 -43 34.5zM811 1048.5q0 34.5 50 106.5t93 72q23 0 43.5 -31t20.5 -54.5t-12 -25.5q-41 -10 -85 -56t-67 -46q-43 0 -43 34.5z" />
<glyph unicode="&#x152;" horiz-adv-x="2289" d="M6 383q0 203 85 398.5t224.5 342t330 236.5t397 90t332.5 -88t163 -240q61 137 102 205q4 20 3 52t5.5 41.5t28.5 9.5h365l223 10q63 0 70.5 -25.5t7.5 -38.5q0 -72 -50 -181.5t-71.5 -109.5t-21.5 17l16 123q0 63 -51 100t-123 37t-106.5 -10.5t-55.5 -42.5 q-150 -223 -272 -508h534l2 -2q0 -14 -28.5 -56.5t-47.5 -42.5h-505q-55 -135 -108.5 -303t-53.5 -222t32.5 -79.5t110.5 -25.5q592 0 709 233q4 6 10 6q16 0 16 -22q0 -6 -16 -58.5t-57 -109t-100.5 -81t-111.5 -31.5t-134 -7h-619q-63 0 -63 98q0 37 14 117 q-291 -281 -678 -281q-508 0 -508 449zM246 381q0 -162 71.5 -262.5t228 -100.5t314.5 94.5t270.5 241t183 325.5t70.5 343q0 334 -299 334q-217 0 -414.5 -149.5t-311 -375t-113.5 -450.5z" />
<glyph unicode="&#x153;" horiz-adv-x="1327" d="M72 235.5q0 129.5 58 265.5t176 234.5t247 98.5q236 0 258 -209q166 197 381 196q174 0 174 -129q0 -94 -93 -183t-211 -139.5t-210 -56.5q-8 -39 -8 -82q0 -168 145 -168q162 0 338 220q23 27 62 90q92 152 96 151q12 0 12 -37.5t-20 -72.5q-70 -111 -113 -170.5 t-111 -128.5q-131 -135 -325 -135q-115 0 -180.5 49t-81.5 133l-2 8q-139 -186 -361 -186q-102 0 -166.5 61t-64.5 190.5zM268.5 187q0.5 -126 106.5 -126q145 0 289 299q61 127 61 252t-107 125q-82 0 -153.5 -84t-134 -212t-62 -254zM866 371q98 20 207.5 82t175.5 168 q25 37 25 75q0 57 -60 58q-96 0 -204.5 -120t-143.5 -263z" />
<glyph unicode="&#x178;" horiz-adv-x="1196" d="M49 1403q0 8 14.5 17.5t32.5 9.5h219q41 0 55.5 -12.5t51.5 -127t164 -600.5q344 492 497 699q33 43 170 43q23 0 62 -1t53 -1q-233 -166 -479 -467q-131 -160 -236.5 -370t-142.5 -384t-37 -185.5t4 -23.5h-250q8 35 82 254t74 308t-52 258t-112.5 322.5t-97.5 207.5 q-18 23 -72 53zM553 1569q0 35 50 106.5t93 71.5q23 0 43.5 -30.5t20.5 -54.5t-12 -26q-41 -10 -85.5 -56t-66.5 -46q-43 0 -43 35zM936 1569q0 35 50 106.5t93 71.5q23 0 43.5 -30.5t20 -54.5t-12.5 -26q-41 -10 -85 -56t-66 -46q-43 0 -43 35z" />
<glyph unicode="&#x2c6;" horiz-adv-x="1087" d="M469 1008v2q197 160 299 266q16 18 33.5 18t49.5 -46t76.5 -114.5t69.5 -99.5v-2q0 -6 -29.5 -22.5t-45.5 -16.5q-29 0 -79 74t-75 129q-68 -66 -150.5 -130.5t-115.5 -64.5t-33 7z" />
<glyph unicode="&#x2dc;" horiz-adv-x="1052" d="M557 1283.5q0 19.5 53.5 78.5t103.5 59t144 -37.5t136 -37.5t65.5 21.5t38 42t26.5 20.5q18 0 19 -17q0 -6 -4 -14q-86 -147 -164 -148q-47 0 -133 37t-136.5 37t-87 -30.5t-38.5 -30.5q-23 0 -23 19.5z" />
<glyph unicode="&#x2000;" horiz-adv-x="923" />
<glyph unicode="&#x2001;" horiz-adv-x="1847" />
<glyph unicode="&#x2002;" horiz-adv-x="923" />
<glyph unicode="&#x2003;" horiz-adv-x="1847" />
<glyph unicode="&#x2004;" horiz-adv-x="615" />
<glyph unicode="&#x2005;" horiz-adv-x="461" />
<glyph unicode="&#x2006;" horiz-adv-x="307" />
<glyph unicode="&#x2007;" horiz-adv-x="307" />
<glyph unicode="&#x2008;" horiz-adv-x="230" />
<glyph unicode="&#x2009;" horiz-adv-x="369" />
<glyph unicode="&#x200a;" horiz-adv-x="102" />
<glyph unicode="&#x2010;" horiz-adv-x="1003" d="M313 467q0 10 39.5 66.5t57.5 56.5h571q2 0 2 -10.5t-38 -66.5t-58 -56h-572q-2 0 -2 10z" />
<glyph unicode="&#x2011;" horiz-adv-x="1003" d="M313 467q0 10 39.5 66.5t57.5 56.5h571q2 0 2 -10.5t-38 -66.5t-58 -56h-572q-2 0 -2 10z" />
<glyph unicode="&#x2012;" horiz-adv-x="1003" d="M313 467q0 10 39.5 66.5t57.5 56.5h571q2 0 2 -10.5t-38 -66.5t-58 -56h-572q-2 0 -2 10z" />
<glyph unicode="&#x2013;" horiz-adv-x="1599" d="M313 467q0 10 38.5 66.5t58.5 56.5h1165q2 0 2 -10.5t-38 -66.5t-58 -56h-1166q-2 0 -2 10z" />
<glyph unicode="&#x2014;" horiz-adv-x="2586" d="M313 467q0 10 38.5 66.5t58.5 56.5h2152q2 0 2 -10.5t-38 -66.5t-58 -56h-2153q-2 0 -2 10z" />
<glyph unicode="&#x2018;" horiz-adv-x="444" d="M104.5 1062q-0.5 62 31.5 121.5t62.5 105.5t84 96.5t96.5 50.5q6 0 22 -4q-29 -33 -89 -123t-62 -115h12q70 0 70 -69.5t-42 -115.5t-95 -46q-22 0 -45 12q-45 25 -45.5 87z" />
<glyph unicode="&#x2019;" horiz-adv-x="325" d="M176 979q29 33 89.5 123t62.5 115h-13q-70 0 -69 77q0 59 42 106.5t95 47.5q22 0 45 -12q45 -27 45 -88.5t-31.5 -121t-62.5 -105.5t-84 -96t-96 -50q-10 0 -23 4z" />
<glyph unicode="&#x201a;" horiz-adv-x="577" d="M227 -238q29 33 89.5 123t62.5 115h-12q-70 0 -70 78q0 59 42 106t95 47q22 0 45 -12q45 -27 45 -88t-31.5 -120.5t-62.5 -105.5t-84 -96.5t-96 -50.5q-10 0 -23 4z" />
<glyph unicode="&#x201c;" horiz-adv-x="763" d="M102 1062q0 62 32 121.5t62.5 105.5t84 96.5t96.5 50.5q6 0 22 -4q-29 -33 -89 -123t-62 -115h12q70 0 70 -69.5t-42 -115.5t-95 -46q-26 0 -46 12q-45 25 -45 87zM424 1062q0 62 31.5 121.5t62.5 105.5t84 96.5t96 50.5q6 0 23 -4q-29 -33 -89.5 -123t-62.5 -115h13 q70 0 69.5 -69.5t-42.5 -115.5t-95 -46q-22 0 -45 12q-45 25 -45 87z" />
<glyph unicode="&#x201d;" horiz-adv-x="763" d="M125 979q29 33 89 123t62 115h-12q-70 0 -69 77q0 59 42 106.5t95 47.5q25 0 45 -12q45 -27 45 -88.5t-32 -121t-62.5 -105.5t-84 -96t-96.5 -50q-10 0 -22 4zM440 979q29 33 89.5 123t62.5 115h-12q-70 0 -70 77q0 59 42 106.5t95 47.5q25 0 45 -12q45 -27 45 -88.5 t-31.5 -121t-62.5 -105.5t-84 -96t-96 -50q-10 0 -23 4z" />
<glyph unicode="&#x201e;" horiz-adv-x="903" d="M227 -238q29 33 89.5 123t62.5 115h-12q-70 0 -70 78q0 59 42 106t95 47q22 0 45 -12q45 -27 45 -88t-31.5 -120.5t-62.5 -105.5t-84 -96.5t-96 -50.5q-10 0 -23 4zM543 -238q29 33 89 123t62 115h-12q-70 0 -70 78q0 59 42 106t96 47q25 0 45 -12q45 -27 45 -88 t-32 -120.5t-62.5 -105.5t-84 -96.5t-96.5 -50.5q-10 0 -22 4z" />
<glyph unicode="&#x2022;" horiz-adv-x="1046" d="M166 465.5q0 146.5 96 267.5q129 158 322 158q154 0 258 -109.5t104 -269.5t-127 -286t-285.5 -126t-263 109.5t-104.5 256z" />
<glyph unicode="&#x2026;" horiz-adv-x="1327" d="M229 68q0 37 44 71.5t102 34.5q84 0 84 -51q0 -7 -4 -23q-23 -4 -67 -47t-58 -69q-100 33 -101 84zM625 68q0 37 44 71.5t101 34.5q84 0 84 -51q0 -7 -4 -23q-23 -4 -67 -47t-58 -69q-100 33 -100 84zM1020 68q0 37 44 71.5t101 34.5q84 0 84 -51q0 -7 -4 -23 q-23 -4 -66.5 -47t-58.5 -69q-100 33 -100 84z" />
<glyph unicode="&#x202f;" horiz-adv-x="369" />
<glyph unicode="&#x2039;" horiz-adv-x="884" d="M141 590q0 16 52 47q338 190 655 430q2 2 5 2t3 -6q0 -51 -186.5 -194.5t-366.5 -254.5q307 -217 389 -360q2 -4 2 -18.5t-38 -47t-50 -32.5t-12 2q-215 244 -412 385q-41 31 -41 47z" />
<glyph unicode="&#x203a;" horiz-adv-x="907" d="M254 164q0 53 189.5 196.5t365.5 249.5q-303 215 -389 363q-2 2 -2 16.5t37 47t49 32.5t14 -2q215 -244 412 -385q41 -31 41 -46t-51 -46q-344 -193 -656 -432q-2 -2 -6 -2t-4 8z" />
<glyph unicode="&#x205f;" horiz-adv-x="461" />
<glyph unicode="&#x20ac;" horiz-adv-x="1323" d="M33 488.5q0 15.5 11 37t19 21.5h148q16 61 61 153h-114q-12 0 -12.5 15.5t11 37t19.5 21.5h137l19 27q133 193 328.5 319.5t406.5 126.5q156 0 224.5 -51t68.5 -127t-51.5 -130t-114.5 -54q-94 0 -94 71q0 6 4 27q43 0 74.5 33t31.5 73.5t-43 64.5t-96 24 q-160 0 -302 -121t-226 -283h461q4 0 4 -10t-19.5 -37t-38.5 -27h-442l-19 -43q-20 -47 -34 -110h436q4 0 4 -10.5t-19.5 -37t-37.5 -26.5h-400q-8 -47 -8 -102q0 -131 63.5 -211t191.5 -80t291 74.5t245 173.5q12 12 16 12t4 -12q0 -55 -27 -86q-111 -139 -283.5 -206 t-364 -67t-292 97.5t-100.5 265.5q0 63 16 141h-145q-12 0 -12 15.5z" />
<glyph unicode="&#x2122;" horiz-adv-x="1038" d="M223 1321q0 41 26.5 68.5t65.5 27.5h203l70 4q20 0 22 -10v-8q0 -27 -16 -59.5t-21 -32.5q-8 0 -8 4l6 37q0 43 -86 43q-66 -78 -114.5 -195t-48.5 -167t16 -56h-62q-27 0 -26.5 45t62 190.5t98.5 182.5h-15q-84 0 -119 -35q-18 -16 -32 -33l-15 -14q-6 0 -6 8zM512 1012 q0 88 127 331q39 74 45 74q51 0 62.5 -45t11.5 -141t-2 -121q119 147 197.5 227t121.5 80h39q-45 -35 -108.5 -171t-63.5 -212q0 -35 23 -35l24 9q2 0 2 -4q0 -10 -31.5 -20.5t-52.5 -10.5q-41 0 -41 45q0 82 129 323q-37 -31 -101.5 -109.5t-115.5 -137t-67.5 -58.5 t-32.5 8q18 29 18 140.5t-8 169.5q-53 -80 -94 -179.5t-41 -145.5t16 -52h-32q-25 0 -25 35z" />
<glyph unicode="&#xe000;" horiz-adv-x="819" d="M0 0v819h819v-819h-819z" />
</font>
</defs>
</svg>
